<?xml version="1.0" encoding="utf-8"?>
<!-- Generator: Adobe Illustrator 27.9.0, SVG Export Plug-In . SVG Version: 6.00 Build 0)  -->
<svg version="1.1" id="Layer_1" xmlns="http://www.w3.org/2000/svg" xmlns:xlink="http://www.w3.org/1999/xlink" x="0px" y="0px"
	 viewBox="0 0 24 24" style="enable-background:new 0 0 24 24;" xml:space="preserve">
<style type="text/css">
	.st0{fill-rule:evenodd;clip-rule:evenodd;fill:#07182C;stroke:#68AEFF;stroke-width:1.49;}
	.st1{fill:#63A9FA;}
	.st2{fill-rule:evenodd;clip-rule:evenodd;fill:#FFFFFF;}
</style>
<g id="Page-1">
	<g id="display_flag">
		<path id="Path" class="st0" d="M22.4,12c0,0.3-0.1,0.6-0.2,0.8c-1.1,1.8-2.6,3.2-4.4,4.3c-3.6,2.1-8,2.1-11.6,0
			c-1.8-1-3.3-2.5-4.4-4.3c-0.3-0.5-0.3-1.1,0-1.6C2.9,9.4,4.4,8,6.2,6.9c3.6-2.1,8-2.1,11.6,0c1.8,1,3.3,2.5,4.4,4.3
			C22.3,11.4,22.4,11.7,22.4,12z"/>
		<circle id="Oval-1" class="st1" cx="12" cy="11.3" r="5.2"/>
		<path id="Path-2" class="st2" d="M11.6,7.3c0-0.1-0.1-0.3-0.2-0.3c-0.1-0.1-0.3-0.2-0.4-0.2c-0.9,0-1.8,0.3-2.5,1
			c-0.7,0.7-1,1.6-1,2.5c0,0.1,0.1,0.3,0.2,0.4c0.1,0.1,0.3,0.2,0.4,0.2c0.3,0,0.6-0.2,0.6-0.6l0,0c0-1.3,1.1-2.4,2.4-2.4
			c0.1,0,0.3-0.1,0.4-0.2C11.6,7.6,11.7,7.5,11.6,7.3L11.6,7.3z"/>
	</g>
</g>
</svg>
