<?xml version="1.0" encoding="utf-8"?>
<!-- Generator: Adobe Illustrator 27.9.0, SVG Export Plug-In . SVG Version: 6.00 Build 0)  -->
<svg version="1.1" id="Layer_1" xmlns="http://www.w3.org/2000/svg" xmlns:xlink="http://www.w3.org/1999/xlink" x="0px" y="0px"
	 viewBox="0 0 24 24" style="enable-background:new 0 0 24 24;" xml:space="preserve">
<style type="text/css">
	.st0{fill:url(#Rectangle-24_00000011750401198269836010000012385282821333502851_);stroke:#C9C9C9;stroke-width:1.52;}
	.st1{fill:#87D0CC;}
	.st2{fill:#F8E81C;}
	.st3{opacity:0.6;fill:#FFFFFF;stroke:#000000;stroke-width:1.2;stroke-linejoin:round;enable-background:new    ;}
	.st4{opacity:0.88;}
	.st5{fill:#FFFFFF;}
	.st6{fill:none;stroke:#FF6421;stroke-width:1.2;stroke-linejoin:round;}
	.st7{fill:#333333;}
</style>
<radialGradient id="Rectangle-24_00000066473156237270172460000007861156177653275296_" cx="-1476.4867" cy="1342.0079" r="10.62" gradientTransform="matrix(1.64 1.000000e-02 -1.000000e-02 1.57 2438.8 -2085.72)" gradientUnits="userSpaceOnUse">
	<stop  offset="0" style="stop-color:#5C9AE6"/>
	<stop  offset="1" style="stop-color:#2171CE"/>
</radialGradient>
<path id="Rectangle-24" style="fill:url(#Rectangle-24_00000066473156237270172460000007861156177653275296_);stroke:#C9C9C9;stroke-width:1.52;" d="
	M3.9,2.1h16.2c1,0,1.8,0.8,1.8,1.8v16.2c0,1-0.8,1.8-1.8,1.8H3.9c-1,0-1.8-0.8-1.8-1.8V3.9C2.1,2.9,2.9,2.1,3.9,2.1z"/>
<polygon id="Path" class="st1" points="13.8,6.2 18.6,12.3 18.6,18.9 2.1,18.9 2.1,16 5.9,11.3 7.8,13.7 "/>
<path id="path3129" class="st2" d="M10,7.7c0,1.5-1.2,2.8-2.8,2.8c0,0,0,0,0,0l0,0c-1.5,0-2.8-1.2-2.9-2.7c0,0,0,0,0-0.1l0,0
	c0-1.5,1.2-2.8,2.7-2.9c0,0,0,0,0,0l0,0C8.7,4.8,10,6,10,7.6C10,7.6,10,7.6,10,7.7L10,7.7z"/>
<rect x="9.3" y="10.2" class="st3" width="12.8" height="11.9"/>
<g class="st4">
	<rect x="9.3" y="10.2" class="st5" width="12.8" height="11.9"/>
	<polyline class="st6" points="22.1,19.5 22.1,22.1 19.5,22.1 	"/>
	<polyline class="st6" points="11.8,22.1 9.3,22.1 9.3,19.5 	"/>
	<polyline class="st6" points="9.3,12.7 9.3,10.2 11.8,10.2 	"/>
	<polyline class="st6" points="19.5,10.2 22.1,10.2 22.1,12.7 	"/>
</g>
<path class="st7" d="M15,15.4l-2.5-3.3c-0.1-0.2-0.1-0.4,0.1-0.6c0.1-0.1,0.4-0.1,0.5,0c0,0,0,0,0,0l2.6,3l2.6-3
	c0.1-0.1,0.4-0.1,0.5,0c0.2,0.1,0.2,0.4,0,0.6l-2.5,3.3l1.5,1.8c1-0.4,2.1,0.1,2.4,1.1c0.4,1-0.1,2.1-1.1,2.4
	c-0.6,0.2-1.4,0.1-1.9-0.3c-0.7-0.6-0.9-1.6-0.4-2.4v0l-1.2-1.6L15,15.4z M14.5,15.9l0.7,0.9l-0.8,1c0,0,0,0,0,0
	c0.5,0.9,0.3,2-0.6,2.6c-0.9,0.5-2,0.3-2.6-0.6s-0.3-2,0.6-2.6c0.5-0.3,1-0.4,1.6-0.2L14.5,15.9z M12.9,20c0.4,0,0.8-0.3,0.9-0.7
	c0.3-0.6,0-1.2-0.6-1.5c-0.2-0.1-0.4-0.1-0.6-0.1c-0.6,0.1-1.1,0.6-1,1.2C11.7,19.6,12.3,20.1,12.9,20z M18.4,20
	c0.6,0.1,1.2-0.4,1.3-1c0-0.2,0-0.4-0.1-0.6c-0.2-0.4-0.5-0.6-0.9-0.7c-0.6,0-1.1,0.5-1.1,1.1C17.5,19.4,17.9,19.9,18.4,20z"/>
</svg>
