<?xml version="1.0" encoding="utf-8"?>
<!-- Generator: Adobe Illustrator 25.0.1, SVG Export Plug-In . SVG Version: 6.00 Build 0)  -->
<svg version="1.1" id="Layer_1" xmlns="http://www.w3.org/2000/svg" xmlns:xlink="http://www.w3.org/1999/xlink" x="0px" y="0px"
	 viewBox="0 0 24 24" style="enable-background:new 0 0 24 24;" xml:space="preserve">
<style type="text/css">
	.st0{fill-rule:evenodd;clip-rule:evenodd;fill:url(#rect5876_1_);}
	.st1{fill-rule:evenodd;clip-rule:evenodd;fill:#BABDB6;}
	.st2{fill-rule:evenodd;clip-rule:evenodd;fill:url(#path5944_1_);}
	.st3{fill-rule:evenodd;clip-rule:evenodd;fill:url(#path5973_1_);}
	.st4{fill-rule:evenodd;clip-rule:evenodd;fill:url(#path6027_1_);stroke:#323232;stroke-width:0.5236;}
	.st5{fill-rule:evenodd;clip-rule:evenodd;fill:#EEEEEC;}
	.st6{fill-rule:evenodd;clip-rule:evenodd;fill-opacity:0.1111;}
	.st7{fill-rule:evenodd;clip-rule:evenodd;fill-opacity:0.1543;}
	.st8{fill-rule:evenodd;clip-rule:evenodd;fill:#D3D3D3;stroke:#2E3436;stroke-width:0.5236;}
	.st9{fill-rule:evenodd;clip-rule:evenodd;fill-opacity:0.216;}
	.st10{fill:none;stroke:url(#rect5886_1_);stroke-width:0.7854;stroke-linecap:round;}
	.st11{fill:none;stroke:#204A87;stroke-width:0.7854;stroke-linecap:round;}
	.st12{fill-rule:evenodd;clip-rule:evenodd;fill:#EEEEEC;fill-opacity:0.75;}
	.st13{fill-rule:evenodd;clip-rule:evenodd;fill:#FFFFFF;fill-opacity:0.5432;}
</style>
<g id="layer1_1_">
	
		<linearGradient id="rect5876_1_" gradientUnits="userSpaceOnUse" x1="-22.1207" y1="49.8235" x2="-22.1054" y2="67.0965" gradientTransform="matrix(1.1415 0 0 -1.1415 37.2555 79.2022)">
		<stop  offset="0" style="stop-color:#729FCF"/>
		<stop  offset="1" style="stop-color:#376DA5"/>
	</linearGradient>
	<path id="rect5876" class="st0" d="M3.2,1.3h17.6c1,0,1.9,0.8,1.9,1.9v17.7c0,1-0.8,1.9-1.9,1.9H3.2c-1,0-1.9-0.8-1.9-1.9V3.2
		C1.4,2.1,2.2,1.3,3.2,1.3z"/>
	<path id="path5933" class="st1" d="M11.8,6.6c-0.1,0.4-0.4,0.7-0.9,0.7c-0.2,0-0.3-0.1-0.5-0.1c-0.3,0.4-0.8,0.7-1.3,0.7
		c-0.5,0-1-0.2-1.3-0.6c-0.1,0-0.3,0-0.4,0c-0.1,0-0.2,0-0.3,0c-0.3,0.7-1,1.1-1.8,1.1C4.6,8.4,4,8,3.6,7.5C3.5,7.5,3.4,7.6,3.2,7.6
		c-0.4,0-0.8-0.3-0.9-0.7c0,0,0,0.1,0,0.1c0,0.5,0.4,0.9,0.9,0.9c0.2,0,0.3,0,0.4-0.1c0.4,0.6,1,0.9,1.7,0.9c0.8,0,1.5-0.5,1.8-1.1
		c0.1,0,0.2,0,0.3,0c0.1,0,0.3,0,0.4,0C8.2,8,8.6,8.2,9.1,8.2c0.5,0,1-0.3,1.3-0.7c0.1,0.1,0.3,0.1,0.5,0.1c0.5,0,0.9-0.4,0.9-0.9
		C11.8,6.7,11.8,6.7,11.8,6.6z"/>
	
		<radialGradient id="path5944_1_" cx="-68.9473" cy="-76.8639" r="4.745" gradientTransform="matrix(1.346 -2.037844e-02 -1.240667e-02 -0.8195 98.9143 -59.3014)" gradientUnits="userSpaceOnUse">
		<stop  offset="0" style="stop-color:#FFFFFF"/>
		<stop  offset="0.5" style="stop-color:#FFFFFF"/>
		<stop  offset="1" style="stop-color:#B6F9FF"/>
	</radialGradient>
	<path id="path5944" class="st2" d="M7.5,3.2C6.7,3.2,6,3.6,5.6,4.3c-0.1,0-0.2,0-0.3,0c-1,0-1.8,0.7-2,1.6c0,0-0.1,0-0.1,0
		c-0.5,0-0.9,0.4-0.9,0.9s0.4,0.9,0.9,0.9c0.2,0,0.3,0,0.4-0.1c0.4,0.6,1,0.9,1.7,0.9c0.8,0,1.5-0.5,1.8-1.1c0.1,0,0.2,0,0.3,0
		c0.1,0,0.3,0,0.4,0C8.2,7.7,8.6,8,9.1,8c0.5,0,1-0.3,1.3-0.7c0.1,0.1,0.3,0.1,0.5,0.1c0.5,0,0.9-0.4,0.9-0.9s-0.4-0.9-0.9-0.9
		c-0.1,0-0.2,0-0.3,0.1C10.4,5.2,10,4.9,9.5,4.8C9.3,3.9,8.5,3.2,7.5,3.2z"/>
	<g id="g6156" transform="translate(-0.777778,-4.722222)">
		<path id="path5971" class="st1" d="M14.6,15.7c0,0,0,0.1,0,0.1c0,0.5,0.4,0.9,0.9,0.9c0.2,0,0.3,0,0.4-0.1c0.4,0.6,1,0.9,1.7,0.9
			c0.8,0,1.5-0.5,1.8-1.1c0.1,0,0.2,0,0.3,0c0.1,0,0.3,0,0.4,0c0.3,0.4,0.8,0.6,1.3,0.6c0.5,0,1-0.3,1.3-0.7
			c0.1,0.1,0.2,0.1,0.3,0.1v-0.3c-0.1,0-0.2-0.1-0.3-0.1c-0.3,0.4-0.8,0.7-1.3,0.7c-0.5,0-1-0.2-1.3-0.6c-0.1,0-0.3,0-0.4,0
			c-0.1,0-0.2,0-0.3,0c-0.3,0.7-1,1.1-1.8,1.1c-0.7,0-1.3-0.4-1.7-0.9c-0.1,0.1-0.3,0.1-0.4,0.1C15.1,16.4,14.7,16.1,14.6,15.7z"/>
		
			<radialGradient id="path5973_1_" cx="-86.0269" cy="-123.1879" r="4.745" gradientTransform="matrix(1.4541 3.531329e-03 1.775414e-03 -0.731 144.4398 -75.6959)" gradientUnits="userSpaceOnUse">
			<stop  offset="0" style="stop-color:#FFFFFF"/>
			<stop  offset="0.5" style="stop-color:#FFFFFF"/>
			<stop  offset="1" style="stop-color:#B6F9FF"/>
		</radialGradient>
		<path id="path5973" class="st3" d="M19.7,12c-0.8,0-1.5,0.5-1.8,1.1c-0.1,0-0.2,0-0.3,0c-1,0-1.8,0.7-2,1.6c0,0-0.1,0-0.1,0
			c-0.5,0-0.9,0.4-0.9,0.9s0.4,0.9,0.9,0.9c0.2,0,0.3,0,0.4-0.1c0.4,0.6,1,0.9,1.7,0.9c0.8,0,1.5-0.5,1.8-1.1c0.1,0,0.2,0,0.3,0
			c0.1,0,0.3,0,0.4,0c0.3,0.4,0.8,0.6,1.3,0.6c0.5,0,1-0.3,1.3-0.7c0.1,0.1,0.2,0.1,0.4,0.1v-1.8c-0.1,0-0.1,0-0.2,0
			c-0.2-0.4-0.6-0.8-1.1-0.9C21.6,12.7,20.7,12,19.7,12z"/>
	</g>
	
		<linearGradient id="path6027_1_" gradientUnits="userSpaceOnUse" x1="3.6796" y1="11.314" x2="14.7731" y2="0.6677" gradientTransform="matrix(1 0 0 -1 0 23.8898)">
		<stop  offset="0" style="stop-color:#D3D3D3"/>
		<stop  offset="1" style="stop-color:#A8BEBB"/>
	</linearGradient>
	<path id="path6027" class="st4" d="M8.2,7.9l-3.4,3.3l-1.7,3.3l-1.8,1.3v4.8C1.3,21.4,2,22,2.7,22l16.2,0.1l0.1-2.7l-1.1-1.6
		l-2.5-2l-1.6-2.4l-1-3l-1.6,0.7L8.2,7.9z"/>
	<path id="path6029" class="st5" d="M8.2,8.3l-3.2,3l-1.7,3.4l-2,1.5v4.1l0.5-0.1v-2.3l1.1-1.4l0,2.4l2.5-3L5,13.4l1.1-2.2L8.2,8.3z
		"/>
	<path id="path6031" class="st5" d="M7.5,10.7L6,13.6l0.3,2.1l1.3,1.1L7.5,10.7z"/>
	<path id="path6033" class="st5" d="M1.6,21.7l3-1.6l1.6-2.8l-0.7,3.5l-1.4,1L1.6,21.7z"/>
	<path id="path6035" class="st6" d="M8.3,8.2l0.9,2.3l1.1,2.7l-0.9,1.9l1.4,1.8l-1.4,2.4l-1.8,1l1,0.9L9,21.8l9.6,0l0.1-2.3
		l-1.5-2.3l-2-1.3l-1.6-2.3l-0.9-2.8L11,11.4L8.3,8.2z"/>
	<path id="path6037" class="st7" d="M10.7,21.7l1-1.5l1.5-0.3L12,17.5l2.2,0.9l-1.5-3.2l0.8-1.7l1.7,2.5l1,0.8l2.5,5.1L10.7,21.7z"
		/>
	<path id="path6049" class="st8" d="M19.4,14L18,15.6L16.3,17l-2.4,0.7l-1.5,1.8l-2.5,1.2l-2,2l12.8,0c1.1,0,2-0.9,2-2v-3.1
		l-0.1-0.1l-1-2.5L19.4,14z"/>
	<path id="path6051" class="st5" d="M19.4,14.3l-1.4,1.4L17,17.9L14.3,20v1.8l1.8-0.3V20l0.7-0.9l0,1.6l1.6-1.9l-0.3-1.6l0.7-1.4
		L19.4,14.3z"/>
	<path id="path6053" class="st5" d="M19.7,15.4l-1,1.9l0.2,1.4l0.9,0.7L19.7,15.4z"/>
	<path id="path6055" class="st5" d="M15.8,22.5l2-1l1-1.8l-0.5,2.3l-0.9,0.7L15.8,22.5z"/>
	<path id="path6057" class="st9" d="M19.9,14.5l0.8,1.2l-0.3,1.2l0.5,1.3l0.9,1.2L21,21l-1.2,0.6l0.7,0.6l0.2,0.4H21
		c0.9,0,1.6-0.7,1.6-1.6v-3l-0.3-0.3l-1-2.5L19.9,14.5z"/>
	
		<linearGradient id="rect5886_1_" gradientUnits="userSpaceOnUse" x1="-25.8486" y1="73.3222" x2="-25.4952" y2="52.9318" gradientTransform="matrix(1.1585 0 0 -1.1595 41.777 86.6637)">
		<stop  offset="0" style="stop-color:#EEEEEC"/>
		<stop  offset="1" style="stop-color:#EEEEEC;stop-opacity:0"/>
	</linearGradient>
	<path id="rect5886" class="st10" d="M3.1,2.1h17.8c0.5,0,1,0.4,1,1v18c0,0.5-0.4,1-1,1H3.1c-0.5,0-1-0.4-1-1V3
		C2.1,2.5,2.6,2.1,3.1,2.1z"/>
	<path id="rect6146" class="st11" d="M3.2,1.3h17.6c1,0,1.9,0.8,1.9,1.9v17.6c0,1-0.8,1.9-1.9,1.9H3.2c-1,0-1.9-0.8-1.9-1.9V3.1
		C1.3,2.1,2.2,1.3,3.2,1.3z"/>
	<path id="path6170" class="st12" d="M11.1,11.4l1.5-0.6l-0.8,2.3L11.1,11.4z"/>
	<path id="path6172" class="st13" d="M4.3,12.7L5,11.3l3.2-3l2.9,3.3l1.5-0.7l0.7,2c0,0-0.1,0.9-1.4,0.9s-2-0.9-3.1-0.9
		S7.3,13.9,6,13.7S4.3,12.8,4.3,12.7z"/>
</g>
</svg>
