<?xml version="1.0" encoding="utf-8"?>
<!-- Generator: Adobe Illustrator 27.9.0, SVG Export Plug-In . SVG Version: 6.00 Build 0)  -->
<svg version="1.1" id="Layer_1" xmlns="http://www.w3.org/2000/svg" xmlns:xlink="http://www.w3.org/1999/xlink" x="0px" y="0px"
	 viewBox="0 0 24 24" style="enable-background:new 0 0 24 24;" xml:space="preserve">
<style type="text/css">
	.st0{fill-rule:evenodd;clip-rule:evenodd;fill:#07182C;stroke:#90BECD;stroke-width:1.49;}
	.st1{fill:#90BECD;}
	.st2{fill-rule:evenodd;clip-rule:evenodd;fill:#FFFFFF;}
	.st3{fill-rule:evenodd;clip-rule:evenodd;fill:#08192C;}
	.st4{fill-rule:evenodd;clip-rule:evenodd;fill:#B9CFD6;}
</style>
<g id="Page-1">
	<g id="hidden_flag">
		<path id="Path" class="st0" d="M22.4,12.7c0,0.3-0.1,0.6-0.2,0.8c-1.1,1.8-2.6,3.2-4.4,4.3c-1.8,1-3.8,1.6-5.8,1.6
			c-2,0-4-0.6-5.8-1.6c-1.8-1-3.3-2.5-4.4-4.3c-0.1-0.2-0.2-0.5-0.2-0.8c0-0.3,0.1-0.6,0.2-0.8c1.1-1.8,2.6-3.2,4.4-4.3
			c3.6-2.2,8-2.2,11.6,0c1.8,1,3.3,2.5,4.4,4.3C22.3,12.2,22.4,12.5,22.4,12.7z"/>
		<circle id="Oval-1" class="st1" cx="12" cy="12" r="5.2"/>
		<path id="Path-2" class="st2" d="M11.6,8.1c0-0.1-0.1-0.3-0.2-0.4c-0.1-0.1-0.3-0.2-0.4-0.2c-1.9,0-3.5,1.6-3.5,3.5
			c0,0.1,0.1,0.3,0.2,0.4c0.1,0.1,0.3,0.2,0.4,0.2c0.1,0,0.3-0.1,0.4-0.2c0.1-0.1,0.2-0.3,0.2-0.4c0-1.3,1.1-2.4,2.4-2.4
			c0.1,0,0.3-0.1,0.4-0.2C11.6,8.4,11.6,8.2,11.6,8.1z"/>
		<polygon id="Rectangle-1-Copy" class="st3" points="19.8,1.6 10.5,22.4 7.5,22.4 16.8,1.6 		"/>
		<polygon id="Rectangle-1" class="st4" points="18.3,1.6 9,22.4 6.1,22.4 15.4,1.6 		"/>
	</g>
</g>
</svg>
