<?xml version="1.0" encoding="utf-8"?>
<!-- Generator: Adobe Illustrator 27.9.0, SVG Export Plug-In . SVG Version: 6.00 Build 0)  -->
<svg version="1.1" id="Layer_1" xmlns="http://www.w3.org/2000/svg" xmlns:xlink="http://www.w3.org/1999/xlink" x="0px" y="0px"
	 viewBox="0 0 200 200" style="enable-background:new 0 0 200 200;" xml:space="preserve">
<style type="text/css">
	.st0{fill:#1F0040;}
	.st1{fill:#D291FF;}
</style>
<path class="st0" d="M30.8,10.2h138.5c13.7,0,20.5,6.8,20.5,20.5v138.5c0,13.7-6.8,20.5-20.5,20.5H30.8c-13.7,0-20.5-6.8-20.5-20.5
	V30.8C10.2,17.1,17.1,10.2,30.8,10.2z"/>
<path class="st1" d="M169.2,194.4H30.8c-13.9,0-25.1-11.3-25.1-25.1V30.8c0-13.9,11.3-25.1,25.1-25.1h138.5
	c13.9,0,25.1,11.3,25.1,25.1v138.5C194.4,183.1,183.1,194.4,169.2,194.4z M30.8,14.9c-8.8,0-15.9,7.1-15.9,15.9v138.5
	c0,8.8,7.1,15.9,15.9,15.9h138.5c8.8,0,15.9-7.1,15.9-15.9V30.8c0-8.8-7.1-15.9-15.9-15.9L30.8,14.9z"/>
<path class="st1" d="M66.3,35.6h13.6l28.2,73.2H94.4l-6.9-19.4H58.3l-6.9,19.4H38.2L66.3,35.6z M61.8,79.7h22.4l-11-31.5h-0.3
	L61.8,79.7z M122.6,85.3c0,8.3,4.5,15.7,14.3,15.7c6.8,0,10.9-3,12.9-8.8h11.1c-2.6,11.6-12.4,18.1-24,18.1c-16.6,0-26-11.6-26-27.9
	c0-15.1,9.8-28,25.6-28c16.7,0,27,15.1,25,31H122.6z M149.9,77.6c-0.4-7.4-5.4-14.1-13.3-14.1c-8.1,0-13.6,6.2-14,14.1H149.9z"/>
<rect x="80.3" y="153.8" transform="matrix(2.309876e-13 -1 1 2.309876e-13 -71.4967 271.4967)" class="st1" width="39.5" height="35.3"/>
<polygon class="st1" points="100,124.6 153.2,165.3 46.8,165.3 100,124.6 "/>
</svg>
