<?xml version="1.0" encoding="utf-8"?>
<!-- Generator: Adobe Illustrator 27.9.0, SVG Export Plug-In . SVG Version: 6.00 Build 0)  -->
<svg version="1.1"
	 id="svg2168" xmlns:inkscape="http://www.inkscape.org/namespaces/inkscape" xmlns:cc="http://creativecommons.org/ns#" xmlns:rdf="http://www.w3.org/1999/02/22-rdf-syntax-ns#" xmlns:svg="http://www.w3.org/2000/svg" xmlns:dc="http://purl.org/dc/elements/1.1/" xmlns:sodipodi="http://sodipodi.sourceforge.net/DTD/sodipodi-0.dtd" inkscape:output_extension="org.inkscape.output.svg.inkscape" inkscape:version="0.48.4 r9939" sodipodi:version="0.32"
	 xmlns="http://www.w3.org/2000/svg" xmlns:xlink="http://www.w3.org/1999/xlink" x="0px" y="0px" viewBox="0 0 16 16"
	 style="enable-background:new 0 0 16 16;" xml:space="preserve">
<style type="text/css">
	.st0{opacity:0.5;}
	.st1{fill:url(#SVGID_1_);stroke:#FFFFFF;stroke-width:0.9534;stroke-linecap:square;}
</style>
<path class="st0" d="M15,3.2c-0.3-0.8-0.9-1.5-1.8-1.8c-0.8-0.3-2-0.5-3.5-0.5H4.1l-1.9,15h4.5l0.5-4.1h1.2c1.4,0,2.6-0.2,3.5-0.5
	c1-0.4,1.7-1,2.2-1.8c0.5-0.8,0.9-1.9,1-3.2C15.4,5,15.3,4,15,3.2z M10.6,6.3C10.5,7,10.3,7.4,10,7.6C9.8,7.8,9.3,8,8.3,8H7.7
	l0.4-3.4h0.7c1,0,1.4,0.2,1.6,0.3C10.6,5.1,10.7,5.6,10.6,6.3z"/>
<sodipodi:namedview  bordercolor="#666666" borderopacity="1.0" height="24px" id="base" inkscape:current-layer="layer1" inkscape:cx="3.238504" inkscape:cy="3.2032251" inkscape:document-units="px" inkscape:grid-bbox="true" inkscape:pageopacity="0.0" inkscape:pageshadow="2" inkscape:window-height="1496" inkscape:window-maximized="1" inkscape:window-width="2560" inkscape:window-x="-8" inkscape:window-y="-8" inkscape:zoom="32" pagecolor="#ffffff" showgrid="true" width="24px">
	<inkscape:grid  empspacing="5" enabled="true" id="grid3013" snapvisiblegridlinesonly="true" type="xygrid" visible="true">
		</inkscape:grid>
</sodipodi:namedview>
<linearGradient id="SVGID_1_" gradientUnits="userSpaceOnUse" x1="7.2329" y1="1.739" x2="7.2329" y2="12.5705" gradientTransform="matrix(1 0 -0.1261 1 1.9483 0)">
	<stop  offset="0" style="stop-color:#000000"/>
	<stop  offset="1" style="stop-color:#012E5E"/>
</linearGradient>
<path class="st1" d="M13.9,5.5c-0.2,1.3-0.5,2.3-0.9,3c-0.5,0.7-1.1,1.3-2,1.6c-0.9,0.3-2,0.5-3.4,0.5H6l-0.5,4.1H1.9L3.7,0.6h5.2
	c1.4,0,2.6,0.2,3.3,0.5s1.3,0.8,1.6,1.5C14,3.4,14.1,4.3,13.9,5.5z M7.4,7.8c0.9,0,1.6-0.2,2-0.5c0.4-0.3,0.7-0.9,0.8-1.7
	c0.1-0.8,0-1.4-0.3-1.7C9.6,3.6,8.9,3.4,8,3.4H6.9L6.4,7.8H7.4z"/>
</svg>
