<?xml version="1.0" encoding="utf-8"?>
<!-- Generator: Adobe Illustrator 27.9.0, SVG Export Plug-In . SVG Version: 6.00 Build 0)  -->
<svg version="1.1" id="svg27586" xmlns="http://www.w3.org/2000/svg" xmlns:xlink="http://www.w3.org/1999/xlink" x="0px" y="0px"
	 viewBox="0 0 48 48" style="enable-background:new 0 0 48 48;" xml:space="preserve">
<style type="text/css">
	.st0{fill:url(#polygon11038_00000060002344876050766140000016678457408331160495_);}
	.st1{fill:url(#polygon11045_00000072252802088006819450000015304308379049692317_);}
	.st2{fill:url(#polygon11058_00000016059153142855011510000008620910723829863062_);}
	.st3{fill:none;stroke:#192333;stroke-miterlimit:4.38;}
	.st4{fill:none;stroke:#FFFFFF;stroke-linecap:round;stroke-opacity:0.61;}
	.st5{fill-rule:evenodd;clip-rule:evenodd;}
	.st6{fill:#FFFFFF;stroke:#404040;stroke-width:1.13;}
</style>
<g id="layer1">
	
		<linearGradient id="polygon11038_00000083793579770998159640000003683336579048727196_" gradientUnits="userSpaceOnUse" x1="674.1182" y1="1377.2267" x2="660.8082" y2="1342.1766" gradientTransform="matrix(1.1 0 0 1.1 -721.86 -1466.38)">
		<stop  offset="0" style="stop-color:#FFA91D"/>
		<stop  offset="1" style="stop-color:#F57900"/>
	</linearGradient>
	<polygon id="polygon11038" style="fill:url(#polygon11038_00000083793579770998159640000003683336579048727196_);" points="
		17.9,47.2 4.7,31.4 2.5,6.2 16.9,18.9 	"/>
	
		<linearGradient id="polygon11045_00000015334430274412711910000014518904804833118120_" gradientUnits="userSpaceOnUse" x1="662.6127" y1="1340.324" x2="700.3327" y2="1344.6741" gradientTransform="matrix(1.1 0 0 1.1 -721.86 -1466.38)">
		<stop  offset="0" style="stop-color:#FCCB3E"/>
		<stop  offset="1" style="stop-color:#FF7307"/>
	</linearGradient>
	<polygon id="polygon11045" style="fill:url(#polygon11045_00000015334430274412711910000014518904804833118120_);" points="
		45.9,10.8 16.9,18.9 2.5,6.2 28.4,0.6 	"/>
	
		<linearGradient id="polygon11058_00000101787713869832819770000007003813471737476240_" gradientUnits="userSpaceOnUse" x1="698.5731" y1="1368.403" x2="675.3831" y2="1352.8329" gradientTransform="matrix(1.1 0 0 1.1 -721.86 -1466.38)">
		<stop  offset="0" style="stop-color:#FF7100"/>
		<stop  offset="1" style="stop-color:#CA5000"/>
	</linearGradient>
	<polygon id="polygon11058" style="fill:url(#polygon11058_00000101787713869832819770000007003813471737476240_);" points="
		43.4,37.2 17.9,47.2 16.9,18.9 45.9,10.8 	"/>
	<polygon id="polygon11130" class="st3" points="2.5,6.2 28.4,0.6 45.9,10.8 43.4,37.2 17.9,47.2 4.7,31.4 	"/>
	<path id="path27580" class="st4" d="M3.6,7l13.5,12.3"/>
	<path id="path27582" class="st4" d="M17.2,19.1l27.7-7.9"/>
	<path id="path27584" class="st4" d="M17.2,19l0.9,27.1"/>
	<path id="path42486" class="st5" d="M6,9c-1,5,1,9,1,13c-0.1,2.7-0.3,5.3-0.8,8c1.2-1.5,3.3-4.3,3.2-6.5C9.3,20,8,16,8,15
		c0.2-1.1,0.5-2.1,0.9-3.1L6,9z"/>
	<path id="path42488" class="st5" d="M15.7,44.9C15.4,31.2,14,36.1,15.1,23C13,32.4,12,33.4,12.8,41.1L15.7,44.9z"/>
	<path id="path42492" class="st5" d="M6.4,33.9c1.6-3.9,3.4-5.4,6.5-10C12,28,9.3,30.7,10,37.5"/>
	<path id="path42494" class="st5" d="M12.6,15.5c-2,1.5,2.5,6.6-1.8,9c0.3-4.9-2-7.2-0.4-11.5"/>
	<path id="path42496" class="st5" d="M9.5,4.6c6.3,3.3,6,7.6,11.8,12.7c-9-4.4-5.9-7.8-15.5-11.6C6.7,5.4,8.6,5.2,9.5,4.6z"/>
	<path id="path42498" class="st5" d="M24.5,16.9c-6.3-3.3-6.2-7.8-12-12.9c9,4.4,6.1,8.1,15.7,12C27.4,16.3,25.2,16.7,24.5,16.9z"/>
	<path id="path42500" class="st5" d="M29.1,15.4c-5.9-5.2-3.6-6.1-9.5-11.4c9.5,6.9,5.6,8,13.2,10.2C31.5,14.6,30.3,15,29.1,15.4z"
		/>
	<path id="path42502" class="st5" d="M35.2,13.7c-1.7-5-8.9-6.6-10.7-12.7c3.8,4.9,9.6,7.4,14.3,11.7C38,13.1,36,13.1,35.2,13.7z"/>
	<path id="path42504" class="st5" d="M23.6,2c4.6,6.1,2,4.6,8.1,10.2C22.2,5.3,26.8,6.7,20,3C21.2,2.6,22.4,2.3,23.6,2z"/>
	<path id="path42506" class="st5" d="M16.9,3c2.2,2,3.9,4.5,5,7.2c-2.5-2.9-4.6-5.1-8.6-6.2C14.5,3.5,15.7,3.1,16.9,3z"/>
	<path id="path42508" class="st5" d="M4.9,8.2C4.1,7.6,3.3,7,2.7,6.2c0,2.8,0.7,10.5,0.8,12.6C5.6,16.6,2.8,11.1,4.9,8.2z"/>
	<path id="path42510" class="st5" d="M16.5,18.9c-1.6,1.5-1,2.6-3,6.1c0.8-3.2-0.2-4.6,0.6-8.5"/>
	<path id="path42512" class="st5" d="M24.4,16.8C28.8,22.2,22.9,35,25,44c1.4-0.5,3.3-0.8,4.5-2c-7-11.5,1.4-17.6-1.4-26.1
		C26.9,16.3,25.7,16.6,24.4,16.8z"/>
	<path id="path42514" class="st5" d="M22.6,45c-2.2-9.2,2.9-16.5,0.5-26.9c0.3,14.5-7,16.6-4,28.3C20.3,46,21.5,45.6,22.6,45z"/>
	<path id="path42516" class="st5" d="M19.6,19c0.5,4.8-2.4,2.5-2,13.7c1.9-8.4,2.6-4.1,4.6-14.7"/>
	<path id="path42518" class="st5" d="M26,1.2c7.5,6.1,14,6.4,15,10.6c1.5-0.1,3-0.5,4.4-0.9L28.5,1L26,1.2z"/>
	<path id="path42520" class="st5" d="M28.9,15.1c5.5,8.5,0,16.8,1.5,26.9c0.5-0.3,2.2-0.6,3.6-1.3c-7.2-2.3,1.8-15.6-1.3-26.5
		C31.5,14.5,30.2,14.8,28.9,15.1z"/>
	<path id="path42522" class="st5" d="M35,13.4c1.2,4.8,0.8,18.8,0.4,27.4c1.4-0.5,2-1.3,3.6-1.7c-6-3.7,0.4-23.5-0.2-26.4
		C37.6,13,36.3,13.2,35,13.4z"/>
	<path id="path42524" class="st5" d="M41.2,11.9c5.5,2.9,0.2,13.6,1.6,25c1.5-0.5,0.6-0.2,1-0.2c0.3-3,2.2-24.8,2.2-26
		C44.6,11.2,42.3,11.6,41.2,11.9z"/>
	<path id="path42526" class="st5" d="M41.6,37.9c1.7-6.9-2.1-12.5-1.1-22.1c-4.3,11.5,1.9,16-2.3,23.5
		C39.3,38.7,40.4,38.2,41.6,37.9z"/>
</g>
<g id="text4929">
	<path id="path4937" class="st6" d="M28,29.4v-0.9c0-1.1,0.2-2.2,0.6-3.3c0.5-1.1,1.2-2.2,2-3.1c1.1-1.1,2.1-2.3,2.9-3.6
		c1-1.5,1.5-3.2,1.5-4.9c0-2.1-0.8-4.1-2.4-5.5c-1.6-1.6-4.1-2.4-7.4-2.4c-1.7,0-3.3,0.2-4.9,0.6C19,6.5,17.8,7,16.7,7.7l1.7,5.6
		c0.7-0.5,1.5-0.9,2.4-1.1c0.9-0.3,1.8-0.4,2.7-0.4c1,0,2,0.3,2.8,0.9c0.6,0.6,0.9,1.3,0.9,2.2c0,0.9-0.4,1.8-0.9,2.6
		c-0.6,1-1.3,1.9-2.1,2.8c-1,1.2-1.9,2.5-2.4,4c-0.5,1.3-0.7,2.6-0.6,3.9l0,1.3L28,29.4z M24.5,41.1c1.2,0,2.5-0.4,3.3-1.3
		c0.8-0.9,1.3-2.1,1.2-3.3c0-1.2-0.4-2.4-1.3-3.3c-0.9-0.9-2.1-1.3-3.3-1.3c-1.2,0-2.4,0.4-3.3,1.3c-1.7,1.9-1.7,4.8,0,6.7
		C22.1,40.6,23.2,41.1,24.5,41.1z"/>
</g>
</svg>
