<?xml version="1.0" encoding="utf-8"?>
<!-- Generator: Adobe Illustrator 27.9.0, SVG Export Plug-In . SVG Version: 6.00 Build 0)  -->
<svg version="1.1" id="Layer_1" xmlns="http://www.w3.org/2000/svg" xmlns:xlink="http://www.w3.org/1999/xlink" x="0px" y="0px"
	 viewBox="0 0 24 24" style="enable-background:new 0 0 24 24;" xml:space="preserve">
<style type="text/css">
	.st0{fill-rule:evenodd;clip-rule:evenodd;fill:#BABDB6;stroke:#2E3436;stroke-width:0.53;stroke-linecap:round;}
	
		.st1{fill:none;stroke:url(#path14575_00000060716775656816313640000016721899373473293748_);stroke-width:0.53;stroke-linecap:round;}
	
		.st2{fill-rule:evenodd;clip-rule:evenodd;fill:url(#path7968_00000160149073051368156140000010714737574002736312_);stroke:#9F8200;stroke-width:0.69;}
	
		.st3{fill:none;stroke:url(#path7972_00000087376953693266675730000005814074537265430917_);stroke-width:0.52;stroke-linecap:round;}
	.st4{opacity:0.46;fill:none;stroke:#FFFFFF;stroke-width:0.52;enable-background:new    ;}
	
		.st5{fill:none;stroke:url(#path7974_00000013185264362300530260000005102342573296051080_);stroke-width:0.52;stroke-linecap:round;}
	
		.st6{fill:none;stroke:url(#path7976_00000052797994449928999070000015517288839972963000_);stroke-width:0.52;stroke-linecap:round;}
	
		.st7{fill:none;stroke:url(#path7978_00000103236637555611340360000007611649562116945048_);stroke-width:0.52;stroke-linecap:round;}
	
		.st8{fill:none;stroke:url(#path7980_00000164505998295838268650000007826997028598354617_);stroke-width:0.52;stroke-linecap:round;}
	
		.st9{fill-rule:evenodd;clip-rule:evenodd;fill:url(#path7982_00000015340851621031827270000015658263390413102766_);stroke:#9F8200;stroke-width:0.69;stroke-linecap:round;stroke-linejoin:round;}
	.st10{opacity:0.25;fill:none;stroke:#FFFFFF;stroke-width:0.52;enable-background:new    ;}
	
		.st11{fill-rule:evenodd;clip-rule:evenodd;fill:url(#rect7984_00000163793162507489859470000005471847816219270804_);stroke:#2E3436;stroke-width:0.69;stroke-linecap:round;}
	
		.st12{fill-rule:evenodd;clip-rule:evenodd;fill:#FFFFFF;stroke:#2E3436;stroke-width:0.69;stroke-linecap:round;stroke-linejoin:round;}
	.st13{opacity:0.32;fill-rule:evenodd;clip-rule:evenodd;fill:#FFFFFF;enable-background:new    ;}
</style>
<g id="layer1">
	<path id="path7966" class="st0" d="M3.1,1.5C4.2,1,5.4,1.4,6,2.4l2.4,5.4c0.5,0.7,0.4,1.8-0.3,2.3c-0.8,0.3-1.8,0-2.2-0.9L2.5,4.5
		C2,3.6,2.2,2,3.1,1.5z"/>
	
		<linearGradient id="path14575_00000118376276973844129260000010388868618499465389_" gradientUnits="userSpaceOnUse" x1="2720.6934" y1="2561.426" x2="2731.3335" y2="2578.0459" gradientTransform="matrix(0.41 0 0 0.41 -1114.92 -1052.54)">
		<stop  offset="0" style="stop-color:#FFFFFF"/>
		<stop  offset="1" style="stop-color:#FFFFFF;stop-opacity:0"/>
	</linearGradient>
	
		<path id="path14575" style="fill:none;stroke:url(#path14575_00000118376276973844129260000010388868618499465389_);stroke-width:0.53;stroke-linecap:round;" d="
		M3.4,2c0.7-0.4,1.6-0.1,2,0.6c0,0.1,0.1,0.1,0.1,0.2l2.5,5.8L6.7,9.4l-3.6-5C2.6,3.5,2.6,2.5,3.4,2z"/>
	
		<radialGradient id="path7968_00000049220401346362076820000014731966018508540343_" cx="4832.1841" cy="3719.2959" r="20.43" gradientTransform="matrix(0.17 -8.000000e-02 0.21 0.43 -1578.64 -1203.45)" gradientUnits="userSpaceOnUse">
		<stop  offset="0" style="stop-color:#FEF088"/>
		<stop  offset="0.5" style="stop-color:#FDE63A"/>
		<stop  offset="1" style="stop-color:#DAC203"/>
	</radialGradient>
	
		<path id="path7968" style="fill-rule:evenodd;clip-rule:evenodd;fill:url(#path7968_00000049220401346362076820000014731966018508540343_);stroke:#9F8200;stroke-width:0.69;" d="
		M7.5,12.7c-0.4,3.6,0.8,7.3,3.2,10c2.2,0.1,7.1-1.7,10.4-5.2c-4.7-2.3-7.9-8-10.4-6.8L7.5,12.7z"/>
	
		<linearGradient id="path7972_00000035499591479660749010000016630551555043038624_" gradientUnits="userSpaceOnUse" x1="1171.361" y1="3211.1306" x2="1172.8009" y2="3199.1406" gradientTransform="matrix(0.32 -0.18 0.29 0.51 -1293.39 -1402.87)">
		<stop  offset="0" style="stop-color:#C4A000"/>
		<stop  offset="1" style="stop-color:#C4A000;stop-opacity:0"/>
	</linearGradient>
	
		<path id="path7972" style="fill:none;stroke:url(#path7972_00000035499591479660749010000016630551555043038624_);stroke-width:0.52;stroke-linecap:round;" d="
		M8.3,13.5c1.2,3.2,1.3,6.5,3.7,9.1"/>
	<path id="path7970" class="st4" d="M8.1,13.1c-0.5,0.2-0.1,6.4,2.8,9.1c3.8-0.1,7.9-3.2,9.3-4.5c-4.8-3-7.6-7.5-9.4-6.4L8.1,13.1z"
		/>
	
		<linearGradient id="path7974_00000010991986749066197140000017466462456366643104_" gradientUnits="userSpaceOnUse" x1="1191.0104" y1="3207.3547" x2="1189.4504" y2="3194.4648" gradientTransform="matrix(0.32 -0.18 0.29 0.51 -1293.3101 -1402.73)">
		<stop  offset="0" style="stop-color:#C4A000"/>
		<stop  offset="1" style="stop-color:#C4A000;stop-opacity:0"/>
	</linearGradient>
	
		<path id="path7974" style="fill:none;stroke:url(#path7974_00000010991986749066197140000017466462456366643104_);stroke-width:0.52;stroke-linecap:round;" d="
		M12.1,12.5c0.4-0.4,2.9,3.1,7.6,6.3"/>
	
		<linearGradient id="path7976_00000021803747256040603770000014050111149561327259_" gradientUnits="userSpaceOnUse" x1="1163.1418" y1="3028.3542" x2="1161.6919" y2="3017.3542" gradientTransform="matrix(0.32 -0.18 0.31 0.54 -1296.58 -1403.9501)">
		<stop  offset="0" style="stop-color:#C4A000"/>
		<stop  offset="1" style="stop-color:#C4A000;stop-opacity:0"/>
	</linearGradient>
	
		<path id="path7976" style="fill:none;stroke:url(#path7976_00000021803747256040603770000014050111149561327259_);stroke-width:0.52;stroke-linecap:round;" d="
		M9.1,12.8c1.9,2.7,1.5,6.3,4.5,9.2"/>
	
		<linearGradient id="path7978_00000127034447505888851580000013452173707860287146_" gradientUnits="userSpaceOnUse" x1="1182.1663" y1="3200.4304" x2="1182.1663" y2="3188.5906" gradientTransform="matrix(0.32 -0.18 0.29 0.51 -1291.5601 -1402.24)">
		<stop  offset="0" style="stop-color:#C4A000"/>
		<stop  offset="1" style="stop-color:#C4A000;stop-opacity:0"/>
	</linearGradient>
	
		<path id="path7978" style="fill:none;stroke:url(#path7978_00000127034447505888851580000013452173707860287146_);stroke-width:0.52;stroke-linecap:round;" d="
		M11.7,12.7c0,0,4.1,6.6,5.7,7.7"/>
	
		<linearGradient id="path7980_00000155834276985731723000000005021701063419912096_" gradientUnits="userSpaceOnUse" x1="1142.8459" y1="2963.5085" x2="1138.866" y2="2956.5984" gradientTransform="matrix(0.32 -0.18 0.32 0.55 -1297.76 -1404.15)">
		<stop  offset="0" style="stop-color:#C4A000"/>
		<stop  offset="1" style="stop-color:#C4A000;stop-opacity:0"/>
	</linearGradient>
	
		<path id="path7980" style="fill:none;stroke:url(#path7980_00000155834276985731723000000005021701063419912096_);stroke-width:0.52;stroke-linecap:round;" d="
		M9.8,12.4c1.8,1.5,4.4,7.2,5.7,8.9"/>
	
		<linearGradient id="path7982_00000059279858410490295570000008794467594884526511_" gradientUnits="userSpaceOnUse" x1="3222.7815" y1="2885.2661" x2="3230.7615" y2="2880.636" gradientTransform="matrix(0.37 0 0 0.37 -1190.47 -1053.75)">
		<stop  offset="0" style="stop-color:#DAC203"/>
		<stop  offset="0.5" style="stop-color:#FDEC69"/>
		<stop  offset="1" style="stop-color:#FDEF7E"/>
	</linearGradient>
	
		<path id="path7982" style="fill-rule:evenodd;clip-rule:evenodd;fill:url(#path7982_00000059279858410490295570000008794467594884526511_);stroke:#9F8200;stroke-width:0.69;stroke-linecap:round;stroke-linejoin:round;" d="
		M4.3,10.3L10.1,7c0.3,1.2-0.2,1.6,0.9,3.6l-4,2.3C6.3,11.2,5.2,11.2,4.3,10.3z"/>
	<path id="path11655" class="st10" d="M7.1,11.9c-0.4-0.7-1.3-1.1-1.9-1.6l4.4-2.5c0.1,0.8,0.2,1.5,0.4,2.3L7.1,11.9z"/>
	
		<linearGradient id="rect7984_00000068658430296779933650000005631914083007223957_" gradientUnits="userSpaceOnUse" x1="-900.2019" y1="1747.6287" x2="-892.7019" y2="1747.6287" gradientTransform="matrix(0.95 -0.55 0.55 0.94 -101.46 -2123.9299)">
		<stop  offset="0" style="stop-color:#EEEEEC"/>
		<stop  offset="1" style="stop-color:#96968A"/>
	</linearGradient>
	
		<path id="rect7984" style="fill-rule:evenodd;clip-rule:evenodd;fill:url(#rect7984_00000068658430296779933650000005631914083007223957_);stroke:#2E3436;stroke-width:0.69;stroke-linecap:round;" d="
		M5.7,12.1L11.1,9c0.3-0.2,0.6-0.1,0.8,0.2c0,0,0,0,0,0l0.4,0.7c0.2,0.3,0.1,0.6-0.2,0.8c0,0,0,0,0,0l-5.4,3.1
		c-0.3,0.2-0.6,0.1-0.8-0.2c0,0,0,0,0,0l-0.4-0.7C5.3,12.7,5.4,12.3,5.7,12.1z"/>
	<path id="path10193" class="st12" d="M5.2,4C5.1,4.4,4.7,4.6,4.3,4.5C3.9,4.4,3.7,4,3.8,3.6l0,0C3.9,3.2,4.3,3,4.7,3.1
		C5.1,3.2,5.3,3.6,5.2,4z"/>
	<path id="path3558" class="st13" d="M14.1,21.8c0.4-0.1,0.8-0.3,1.1-0.5c-0.6-1-1.7-3-2.8-4.5C12.7,18.5,13.2,20.2,14.1,21.8z"/>
	<path id="path3560" class="st13" d="M15.8,21l1-0.5c-1.4-1.6-2.6-3.4-3.8-5.2L15.8,21z"/>
	<path id="path3562" class="st13" d="M18.1,19.6l1.2-0.9c-1.6-0.7-5.9-5-5.9-5L18.1,19.6z"/>
	<path id="path3565" class="st13" d="M19.9,18.4l0.9-0.7c-1.7-0.8-6.4-5-6.4-5S17.5,17.3,19.9,18.4z"/>
	<path id="path2265" class="st13" d="M12.4,22.3l1-0.2c-1.2-1.2-2.1-2.7-2.6-4.4C11.1,21.2,12.4,22.3,12.4,22.3z"/>
	<path id="path2267" class="st13" d="M10.8,22.5h0.6c-1.2-1.3-1.6-2.7-2.2-4.8C9.3,19.4,9.9,21.1,10.8,22.5z"/>
</g>
</svg>
