<?xml version="1.0" encoding="utf-8"?>
<!-- Generator: Adobe Illustrator 27.9.0, SVG Export Plug-In . SVG Version: 6.00 Build 0)  -->
<svg version="1.1" id="Layer_1" xmlns="http://www.w3.org/2000/svg" xmlns:xlink="http://www.w3.org/1999/xlink" x="0px" y="0px"
	 viewBox="0 0 24 24" style="enable-background:new 0 0 24 24;" xml:space="preserve">
<style type="text/css">
	
		.st0{fill:url(#path2020_00000099625476780446214390000005092949177561282738_);stroke:url(#path2020_00000129912714085006083310000003808437452492115389_);stroke-width:1.5;}
	.st1{fill:none;stroke:url(#path2048_00000160149904735346147410000002295851108018483878_);stroke-width:1.5;}
</style>
<g id="layer1">
	
		<radialGradient id="path2020_00000083089236739490490240000013457591461895568013_" cx="188.6422" cy="1241.6707" r="11.17" gradientTransform="matrix(0.91 -1.000000e-02 1.000000e-02 0.87 -173.62 -1068.08)" gradientUnits="userSpaceOnUse">
		<stop  offset="0" style="stop-color:#FFF496"/>
		<stop  offset="1" style="stop-color:#EDD400"/>
	</radialGradient>
	
		<linearGradient id="path2020_00000077321814127837123360000000710643283035853211_" gradientUnits="userSpaceOnUse" x1="187.0072" y1="1185.8479" x2="197.6172" y2="1201.4279" gradientTransform="matrix(0.91 -1.000000e-02 1.000000e-02 0.91 -173.46 -1069.1901)">
		<stop  offset="0" style="stop-color:#C4A000"/>
		<stop  offset="1" style="stop-color:#886F00"/>
	</linearGradient>
	
		<path id="path2020" style="fill:url(#path2020_00000083089236739490490240000013457591461895568013_);stroke:url(#path2020_00000077321814127837123360000000710643283035853211_);stroke-width:1.5;" d="
		M22.2,9.8c0.2,0.7-5.1,4.2-5.3,4.8s1.9,6.7,1.3,7.1s-5.5-3.6-6.2-3.6S6.2,22,5.6,21.5s1.7-6.4,1.5-7s-5.5-4.3-5.2-5S8.4,9.2,9,8.8
		s2.4-6.5,3.1-6.5s2.4,6.1,2.9,6.6S22,9.1,22.2,9.8z"/>
	
		<linearGradient id="path2048_00000119821062458082779170000010373875598224213439_" gradientUnits="userSpaceOnUse" x1="1.4647" y1="1082.3502" x2="5.2547" y2="1088.0602" gradientTransform="matrix(1 -1.000000e-02 1.000000e-02 1 -1.39 -1070.88)">
		<stop  offset="0" style="stop-color:#FFFFFF"/>
		<stop  offset="1" style="stop-color:#FFFFFF;stop-opacity:0"/>
	</linearGradient>
	
		<path id="path2048" style="fill:none;stroke:url(#path2048_00000119821062458082779170000010373875598224213439_);stroke-width:1.5;" d="
		M12.1,5.3c-0.1,0.2-0.2,0.3-0.2,0.6c-0.3,0.8-0.6,1.6-0.9,2.2c-0.1,0.3-0.3,0.6-0.4,0.9c-0.1,0.4-0.4,0.7-0.7,0.9
		c-0.3,0.2-0.7,0.4-1.1,0.4c-0.3,0-0.6,0.1-1,0.1c-0.7,0-1.6,0.1-2.4,0.1H4.7l0.5,0.4C5.8,11.5,6.5,12,7,12.5
		c0.3,0.2,0.5,0.4,0.7,0.7c0.3,0.2,0.6,0.6,0.6,1c0.1,0.4,0.1,0.8,0,1.1c0,0.3-0.1,0.6-0.2,1C8,17,7.7,17.8,7.5,18.6
		c-0.1,0.2-0.1,0.4-0.2,0.6l0.5-0.3c0.7-0.5,1.4-0.9,2-1.3c0.3-0.2,0.6-0.4,0.9-0.5c0.3-0.2,0.7-0.4,1.1-0.3c0.4-0.1,0.8,0,1.2,0.2
		c0.3,0.1,0.5,0.3,0.9,0.5c0.6,0.4,1.3,0.9,2,1.3c0.2,0.1,0.3,0.2,0.5,0.3c-0.1-0.2-0.1-0.4-0.1-0.6c-0.2-0.8-0.4-1.6-0.6-2.3
		c-0.1-0.4-0.1-0.7-0.2-1c-0.1-0.4-0.1-0.8,0-1.1c0.1-0.4,0.3-0.7,0.7-0.9c0.2-0.2,0.5-0.4,0.8-0.6c0.6-0.5,1.2-1,1.9-1.5l0.5-0.4
		l-0.6-0.1c-0.8,0-1.7-0.1-2.4-0.1c-0.4,0-0.7-0.1-1-0.1c-0.4,0-0.8-0.1-1.1-0.4c-0.3-0.2-0.6-0.5-0.7-0.9c-0.1-0.3-0.2-0.6-0.4-0.9
		c-0.3-0.7-0.5-1.5-0.8-2.3C12.2,5.7,12.1,5.5,12.1,5.3z"/>
</g>
</svg>
