<?xml version="1.0" encoding="utf-8"?>
<!-- Generator: Adobe Illustrator 27.9.0, SVG Export Plug-In . SVG Version: 6.00 Build 0)  -->
<svg version="1.1"
	 id="SVGRoot" xmlns:inkscape="http://www.inkscape.org/namespaces/inkscape" xmlns:sodipodi="http://sodipodi.sourceforge.net/DTD/sodipodi-0.dtd" xmlns:svg="http://www.w3.org/2000/svg"
	 xmlns="http://www.w3.org/2000/svg" xmlns:xlink="http://www.w3.org/1999/xlink" x="0px" y="0px" viewBox="0 0 16 16"
	 style="enable-background:new 0 0 16 16;" xml:space="preserve">
<style type="text/css">
	.st0{fill:none;stroke:url(#SVGID_1_);stroke-width:1.2;stroke-miterlimit:10;}
	.st1{fill:url(#SVGID_00000052086827886616836530000003419770744967588503_);}
	.st2{fill:url(#SVGID_00000028301480877212258750000013119123449272439434_);}
</style>
<sodipodi:namedview  bordercolor="#666666" borderopacity="1.0" id="namedview15790" inkscape:current-layer="layer1" inkscape:cx="6.7446268" inkscape:cy="8.918719" inkscape:document-units="px" inkscape:lockguides="false" inkscape:pagecheckerboard="0" inkscape:pageopacity="0.0" inkscape:pageshadow="2" inkscape:snap-global="false" inkscape:window-height="1557" inkscape:window-maximized="1" inkscape:window-width="2880" inkscape:window-x="-8" inkscape:window-y="-8" inkscape:zoom="60.714997" pagecolor="#ffffff" showgrid="true">
	<inkscape:grid  id="grid15853" type="xygrid"></inkscape:grid>
</sodipodi:namedview>
<g>
	<g>
		<linearGradient id="SVGID_1_" gradientUnits="userSpaceOnUse" x1="1.2822" y1="7.6881" x2="14.6824" y2="7.6881">
			<stop  offset="0.1117" style="stop-color:#FFFFFF"/>
			<stop  offset="0.5419" style="stop-color:#00DEC0"/>
			<stop  offset="0.905" style="stop-color:#0048BA"/>
		</linearGradient>
		<path class="st0" d="M1.9,13.3c0.6-6.3,1.9-7.8,2.9-8c2.2-0.4,4.2,4.7,6.4,4.2c1.8-0.3,2.6-4.2,2.9-7.5"/>
		<g>
			
				<linearGradient id="SVGID_00000096026861100973844840000004194321326098890138_" gradientUnits="userSpaceOnUse" x1="1.2822" y1="13.3306" x2="14.6824" y2="13.3306">
				<stop  offset="0.1117" style="stop-color:#FFFFFF"/>
				<stop  offset="0.5419" style="stop-color:#00DEC0"/>
				<stop  offset="0.905" style="stop-color:#0048BA"/>
			</linearGradient>
			<path style="fill:url(#SVGID_00000096026861100973844840000004194321326098890138_);" d="M3.2,13.5c-0.1,0.7-0.7,1.3-1.5,1.2
				c-0.7-0.1-1.3-0.7-1.2-1.5C0.6,12.5,1.3,11.9,2,12C2.8,12.1,3.3,12.7,3.2,13.5z"/>
		</g>
		<g>
			
				<linearGradient id="SVGID_00000104682655547920489320000011432587015145529519_" gradientUnits="userSpaceOnUse" x1="1.2822" y1="2.0547" x2="14.6824" y2="2.0547">
				<stop  offset="0.1117" style="stop-color:#FFFFFF"/>
				<stop  offset="0.5419" style="stop-color:#00DEC0"/>
				<stop  offset="0.905" style="stop-color:#0048BA"/>
			</linearGradient>
			<path style="fill:url(#SVGID_00000104682655547920489320000011432587015145529519_);" d="M15.4,2.2c0.1-0.7-0.4-1.4-1.2-1.5
				c-0.7-0.1-1.4,0.4-1.5,1.2c-0.1,0.7,0.4,1.4,1.2,1.5C14.7,3.5,15.3,3,15.4,2.2z"/>
		</g>
	</g>
</g>
</svg>
