<?xml version="1.0" encoding="utf-8"?>
<!-- Generator: Adobe Illustrator 27.9.0, SVG Export Plug-In . SVG Version: 6.00 Build 0)  -->
<svg version="1.1" id="svg27586" xmlns="http://www.w3.org/2000/svg" xmlns:xlink="http://www.w3.org/1999/xlink" x="0px" y="0px"
	 viewBox="0 0 48 48" style="enable-background:new 0 0 48 48;" xml:space="preserve">
<style type="text/css">
	.st0{fill:url(#polygon11038_00000011716440800598113750000018011133956596919487_);}
	.st1{fill:url(#polygon11045_00000063605146718230751770000017134497783865070518_);}
	.st2{fill:url(#polygon11058_00000142896578940877516060000017780171970428577447_);}
	.st3{fill:none;stroke:#192333;stroke-miterlimit:4.38;}
	.st4{fill:none;}
	.st5{fill-rule:evenodd;clip-rule:evenodd;}
	.st6{fill:#333333;}
	.st7{fill:#E6E6E6;}
</style>
<g id="layer1">
	
		<linearGradient id="polygon11038_00000137825831512446748610000014351053297774445744_" gradientUnits="userSpaceOnUse" x1="674.1182" y1="1377.2267" x2="660.8082" y2="1342.1766" gradientTransform="matrix(1.1 0 0 1.1 -721.86 -1466.38)">
		<stop  offset="0" style="stop-color:#FFA91D"/>
		<stop  offset="1" style="stop-color:#F57900"/>
	</linearGradient>
	<polygon id="polygon11038" style="fill:url(#polygon11038_00000137825831512446748610000014351053297774445744_);" points="
		17.9,47.2 4.7,31.4 2.5,6.2 16.9,18.9 	"/>
	
		<linearGradient id="polygon11045_00000150102963659195082600000009173929572240025996_" gradientUnits="userSpaceOnUse" x1="662.6127" y1="1340.324" x2="700.3327" y2="1344.6741" gradientTransform="matrix(1.1 0 0 1.1 -721.86 -1466.38)">
		<stop  offset="0" style="stop-color:#FCCB3E"/>
		<stop  offset="1" style="stop-color:#FF7307"/>
	</linearGradient>
	<polygon id="polygon11045" style="fill:url(#polygon11045_00000150102963659195082600000009173929572240025996_);" points="
		45.9,10.8 16.9,18.9 2.5,6.2 28.4,0.6 	"/>
	
		<linearGradient id="polygon11058_00000049184703101731176780000006777366798987746746_" gradientUnits="userSpaceOnUse" x1="698.5731" y1="1368.403" x2="675.3831" y2="1352.8329" gradientTransform="matrix(1.1 0 0 1.1 -721.86 -1466.38)">
		<stop  offset="0" style="stop-color:#FF7100"/>
		<stop  offset="1" style="stop-color:#CA5000"/>
	</linearGradient>
	<polygon id="polygon11058" style="fill:url(#polygon11058_00000049184703101731176780000006777366798987746746_);" points="
		43.4,37.2 17.9,47.2 16.9,18.9 45.9,10.8 	"/>
	<polygon id="polygon11130" class="st3" points="2.5,6.2 28.4,0.6 45.9,10.8 43.4,37.2 17.9,47.2 4.7,31.4 	"/>
	<path id="path27580" class="st4" d="M3.6,7l13.5,12.3"/>
	<path id="path27582" class="st4" d="M17.2,19.1l27.7-7.9"/>
	<path id="path27584" class="st4" d="M17.2,19l0.9,27.1"/>
	<path id="path42486" class="st5" d="M6,9c-1,5,1,9,1,13s-0.8,7-0.8,8c1.2-1.5,3.3-4.3,3.2-6.6C9.3,20,8,16,8,15s0.9-3.1,0.9-3.1
		L6,9L6,9z"/>
	<path id="path42488" class="st5" d="M15.7,44.9C15.4,31.2,14,36.1,15.2,23C13,32.4,12,33.4,12.8,41.1
		C12.8,41.1,15.7,44.9,15.7,44.9z"/>
	<path id="path42492" class="st5" d="M6.4,33.9c1.6-3.9,3.4-5.4,6.5-10C12,28,9.3,30.7,10,37.5"/>
	<path id="path42494" class="st5" d="M12.6,15.5c-2,1.5,2.5,6.6-1.8,9c0.3-4.9-1.9-7.2-0.4-11.5"/>
	<path id="path42496" class="st5" d="M9.5,4.6c6.3,3.3,6,7.6,11.8,12.7c-9-4.4-5.9-7.8-15.5-11.6C6.7,5.4,8.6,5.1,9.5,4.6L9.5,4.6z"
		/>
	<path id="path42498" class="st5" d="M24.5,16.9c-6.3-3.3-6.2-7.8-12-12.9c9,4.4,6.1,8.1,15.7,12C27.3,16.3,25.2,16.7,24.5,16.9
		L24.5,16.9z"/>
	<path id="path42500" class="st5" d="M29.1,15.4c-6-5.2-3.6-6.1-9.5-11.4c9.5,6.9,5.6,7.9,13.2,10.2C31.9,14.5,30,15.1,29.1,15.4z"
		/>
	<path id="path42502" class="st5" d="M35.2,13.7c-1.7-5-8.9-6.6-10.7-12.7c3.8,4.9,9.6,7.4,14.3,11.7C38,13.1,36,13.1,35.2,13.7
		L35.2,13.7z"/>
	<path id="path42504" class="st5" d="M23.6,2c4.6,6.1,2,4.6,8.1,10.2C22.2,5.3,26.8,6.7,20,3C20.8,2.6,22.7,2.2,23.6,2z"/>
	<path id="path42506" class="st5" d="M16.9,3c1.9,1.9,3.8,4.2,5,7.2c-2.5-2.9-4.5-5.1-8.6-6.2C14.1,3.6,15.8,3,16.9,3z"/>
	<path id="path42508" class="st5" d="M4.9,8.2c-0.6-0.4-1.7-1.3-2.2-2c0,2.8,0.7,10.5,0.8,12.6C5.6,16.6,2.8,11.1,4.9,8.2L4.9,8.2z"
		/>
	<path id="path42510" class="st5" d="M16.5,18.9c-1.6,1.5-1,2.6-3.1,6.1c0.8-3.2-0.2-4.6,0.6-8.5"/>
	<path id="path42512" class="st5" d="M24.4,16.8C28.8,22.2,22.9,35,25,44c1.4-0.5,3.3-0.8,4.5-2c-7-11.5,1.4-17.6-1.5-26.1
		C26.7,16.4,25.6,16.5,24.4,16.8z"/>
	<path id="path42514" class="st5" d="M22.6,45c-2.2-9.2,2.9-16.5,0.5-26.9c0.3,14.5-7,16.6-4,28.3C20.4,46.2,21.7,45.5,22.6,45
		L22.6,45z"/>
	<path id="path42516" class="st5" d="M19.6,19c0.5,4.8-2.4,2.5-2,13.7c1.9-8.4,2.6-4.1,4.6-14.7"/>
	<path id="path42518" class="st5" d="M26,1.2c7.5,6.1,14,6.4,15,10.6c1.1,0.1,4.4-0.9,4.4-0.9L28.5,1L26,1.2z"/>
	<path id="path42520" class="st5" d="M28.9,15.1c5.5,8.5,0,16.8,1.5,26.9c0.5-0.3,2.2-0.6,3.6-1.3c-7.2-2.3,1.8-15.6-1.3-26.5
		C31.4,14.6,30.1,14.8,28.9,15.1L28.9,15.1z"/>
	<path id="path42522" class="st5" d="M35,13.4c1.2,4.8,0.8,18.8,0.4,27.4c1.4-0.5,2-1.3,3.6-1.8c-6-3.7,0.4-23.4-0.2-26.4
		C37.5,13.2,36.2,13.1,35,13.4z"/>
	<path id="path42524" class="st5" d="M41.2,11.9c5.5,2.9,0.2,13.6,1.6,25c1.4-0.5,0.6-0.2,1-0.2c0.3-3,2.2-24.8,2.2-26
		C44.6,11.2,42.3,11.6,41.2,11.9z"/>
	<path id="path42526" class="st5" d="M41.6,37.9c1.7-6.9-2.1-12.5-1.1-22.1c-4.3,11.5,1.9,16-2.3,23.5C39,38.9,40.6,38.1,41.6,37.9
		L41.6,37.9z"/>
</g>
<g id="layer1-2">
	<path class="st6" d="M41.1,28.5L28.8,40.8c-1.1,1.2-3,1.2-4.1,0l-4.2-4.2c-1.1-1.1-1.1-3,0-4.1l1.1-1.1h-9.8
		c-1.8,0-3.3-1.5-3.3-3.3v-3.6c0-1.8,1.5-3.3,3.3-3.3h9.8l-1.2-1.2c-1.1-1.1-1.1-3,0-4.1l4.2-4.2c1.1-1.1,2.9-1.1,4.1,0L35,18
		l6.1,6.1C42.3,25.3,42.3,27.3,41.1,28.5z"/>
	<polygon class="st7" points="39.2,26.4 35,30.5 26.8,38.7 22.7,34.5 28,29.2 11.2,29.2 11.2,23.4 27.9,23.4 22.7,18.2 26.8,14 
		35,22.2 	"/>
</g>
</svg>
