<?xml version="1.0" encoding="utf-8"?>
<!-- Generator: Adobe Illustrator 27.9.0, SVG Export Plug-In . SVG Version: 6.00 Build 0)  -->
<svg version="1.1" id="Layer_1" xmlns="http://www.w3.org/2000/svg" xmlns:xlink="http://www.w3.org/1999/xlink" x="0px" y="0px"
	 viewBox="0 0 512 512" style="enable-background:new 0 0 512 512;" xml:space="preserve">
<style type="text/css">
	.st0{fill:#122155;stroke:#C7B299;stroke-width:2.4749;stroke-linejoin:round;stroke-miterlimit:10;}
	.st1{fill:#3DD6E1;}
	.st2{fill:#F4DFC7;}
	.st3{fill:#B7D4D0;}
	.st4{fill:#FD975B;}
	.st5{fill:none;stroke:#FD462C;stroke-width:26.8537;stroke-miterlimit:10;}
	.st6{fill:none;stroke:#122155;stroke-width:10.7415;stroke-miterlimit:10;}
	.st7{fill:none;stroke:#267CAE;stroke-width:44.7562;stroke-linecap:round;stroke-miterlimit:10;}
	.st8{fill:none;stroke:#183A72;stroke-width:21.082;stroke-linecap:round;stroke-miterlimit:10;}
	.st9{fill:#75D9DE;}
	.st10{fill:none;stroke:#FFFFFF;stroke-width:8.9512;stroke-linecap:round;stroke-miterlimit:10;}
	.st11{fill:#183A72;}
	.st12{fill:#FFFFFF;}
	.st13{fill:none;stroke:#122155;stroke-width:2.5686;stroke-miterlimit:10;}
	.st14{fill:none;stroke:#FFFFFF;stroke-width:10;stroke-linecap:round;stroke-miterlimit:10;}
	.st15{fill:#171723;stroke:#C7B299;stroke-width:2.6854;stroke-miterlimit:10;}
	.st16{fill:#122155;}
	.st17{fill:#122155;stroke:#C7B299;stroke-width:0.8951;stroke-miterlimit:10;}
	.st18{fill:#122155;stroke:#C7B299;stroke-width:2.5211;stroke-linecap:round;stroke-linejoin:round;stroke-miterlimit:10;}
	.st19{fill:#171723;}
</style>
<path class="st0" d="M85.3,163.2c-3.6-0.9-6.3-3.7-14-18.7c-6.1-11.9-10.6-22.3-13.8-30c-1.5,1-15.8,9.8-31.3,3.6
	C9.2,111.3,6,92.6,5.5,89.6c-0.5-3-2.9-17.2,6.7-29.4C22,47.8,36.9,47.2,40.2,47.1c3.7-0.2,17.2-0.7,26.7,9
	c6.3,6.5,7.6,14.1,8.7,20.3c0.9,5.4,3,17.3-4.1,27c-2.2,3.1-4.8,5.1-6.5,6.3c4.2,7.7,11,17.1,22.2,23.4c11.7,6.6,20.6,5.3,22.1,10.5
	C111.4,151.2,96.1,166,85.3,163.2z"/>
<circle class="st1" cx="255.6" cy="274.9" r="213"/>
<path class="st2" d="M523.2,165.2c0.2,0.2,0.3,0.4,0.5,0.5c-0.2,0.1-0.4,0.3-0.7,0.3c0,0-0.3-0.2-0.2-0.3
	C522.8,165.6,523,165.4,523.2,165.2z"/>
<path class="st2" d="M510.5,195.1c0.2,0.2,0.3,0.4,0.5,0.5c-0.2,0.1-0.4,0.3-0.7,0.3c0,0-0.3-0.2-0.2-0.3
	C510.2,195.5,510.4,195.3,510.5,195.1z"/>
<path class="st3" d="M65.3,84.6c-0.8,12.1-10.4,19.6-24,18.8c-16.3-1-25.7-10.7-24.5-25.1C17.9,65.1,27.9,57.7,43,58.8
	C57.1,59.9,66.2,70.5,65.3,84.6z"/>
<circle class="st4" cx="255.6" cy="274.9" r="117.3"/>
<circle class="st5" cx="255.6" cy="274.9" r="117.3"/>
<circle class="st6" cx="255.6" cy="274.9" r="132.5"/>
<path class="st7" d="M386.1,130.7c79.5,73,84.8,196.7,11.8,276.2s-196.7,84.8-276.2,11.8"/>
<path class="st8" d="M454.4,242.6c9.2,68.7-18.7,137.8-75.4,181c-17.4,12.1-33.8,22.4-53.6,29c-16.2,4.9-32.5,9-49.5,10.3
	c-68.2,5.3-136.3-27-174.7-82"/>
<circle class="st9" cx="255.6" cy="274.9" r="41.2"/>
<path class="st10" d="M238.2,257.4c9.6-9.6,25.3-9.6,34.9,0"/>
<circle class="st6" cx="255.6" cy="274.9" r="41.2"/>
<ellipse transform="matrix(0.1602 -0.9871 0.9871 0.1602 -56.645 483.1417)" class="st11" cx="255.6" cy="274.9" rx="9.9" ry="9.8"/>
<path class="st12" d="M264.5,280.1c-2.8,2.4-1.6-4.5-5.1-8.6c-3.6-4.1-10.6-3.8-7.9-6.2s7.9-1.1,11.5,3
	C266.6,272.4,267.3,277.7,264.5,280.1z"/>
<ellipse transform="matrix(0.1602 -0.9871 0.9871 0.1602 -56.645 483.1417)" class="st13" cx="255.6" cy="274.9" rx="9.9" ry="9.8"/>
<path class="st14" d="M81.7,269.9c0-94.4,76.6-171,171-171"/>
<path class="st14" d="M92.2,240.4C112.6,148.2,203.8,90,296,110.3"/>
<g>
	<path class="st15" d="M479.9,261.9c-3.1-55.1-26.1-106.6-65.4-145.9c-42.4-42.4-98.9-65.8-158.9-65.8S139.2,73.6,96.8,116
		C54.3,158.4,31,214.8,31,274.9s23.4,116.4,65.8,158.9c42,42,97.7,65.3,157,65.8c0.6,0,1.3,0,1.9,0c60,0,116.4-23.4,158.9-65.8
		c42.4-42.4,65.8-98.9,65.8-158.9C480.3,270.5,480.2,266.2,479.9,261.9z M291.6,481.8c-11.7,2-23.7,3.1-36,3.1
		c-115.8,0-210.1-94.2-210.1-210.1S139.8,64.8,255.6,64.8S465.7,159,465.7,274.9v0.2C465.6,378.5,390.3,464.7,291.6,481.8z"/>
</g>
<g>
	<path class="st16" d="M475.5,262.2c-3-54.1-25.5-104.4-64.1-143c-41.6-41.6-96.9-64.5-155.7-64.5S141.5,77.6,99.9,119.2
		C58.3,160.8,35.4,216,35.4,274.9S58.3,389,99.9,430.6c41.2,41.1,95.7,64,153.8,64.5c0.6,0,1.2,0,1.9,0
		c58.8,0,114.1-22.9,155.7-64.5c41.6-41.6,64.5-96.9,64.5-155.7C475.8,270.6,475.7,266.4,475.5,262.2z M290.9,477.7
		c-11.5,2-23.2,3-35.2,3c-113.5,0-205.9-92.4-205.9-205.9S142.1,69,255.6,69s205.9,92.4,205.9,205.9v0.1
		C461.4,376.4,387.6,461,290.9,477.7z"/>
</g>
<path class="st12" d="M47.3,73.6c2.8,1.7,3.1,5.3,3.1,6c0.3,3.7-1.9,6.3-2.6,7.1c-2.4,2.9-6.1,5-9.8,3.1c-3.9-2-5.6-5.6-5.7-6.1
	c-0.3-0.8-1.1-3.5,0.2-5.9c1.3-2.5,3.9-3.2,6.8-4C42.5,73,45,72.2,47.3,73.6z"/>
<path class="st17" d="M369.6,400.2c3.7,0,6.8,3.1,6.8,6.8c0,3.7-3.3,6.8-7.3,6.8c-4.1,0-7-3-6.9-7
	C362.2,403,365.4,400.2,369.6,400.2z"/>
<path class="st17" d="M124,65.1"/>
<path class="st18" d="M126.3,107.4c0.4-4.6,0.1-8.5-0.4-11.2c-0.4-2.3-1-5.9-3.1-10.3c-1.7-3.5-3.6-6.1-5.1-7.9
	c-2.9,1.2-11.1,4.2-20.1,1.1C83,74.1,79.4,57.5,78.9,54.8c-2.1-9.9,0.7-18.1,2.1-22.2c1.4-4,3.7-10.4,9.8-16.3
	c1.3-1.2,7.2-6.6,16.6-8.9c3.3-0.8,17.2-3.7,29.8,4.9c12,8.2,14.3,21.2,15.9,30c1.6,8.9-0.1,13.2-0.7,14.8c-1.6,3.8-4.6,7.3-10.2,11
	c-2.5,1.7-7.2,5.3-14.2,7.7c0.3,1.5,0.9,3.7,1.9,6.3c1.7,4.5,2.9,7.7,5.8,10.1c1.1,1,4,3,9.1,3.3"/>
<circle class="st3" cx="115.3" cy="43.8" r="22.7"/>
<path class="st12" d="M118.2,26.4c2.3,2.4,1.7,5.9,1.6,6.7c-0.6,3.7-3.5,5.8-4.3,6.4c-3.1,2.3-7.2,3.4-10.4,0.6
	c-2-1.8-4.6-4.4-4.2-7.4c0.3-1.7,1.3-2.8,2.5-4.1c0.9-0.9,3.2-3.4,7-4C111.7,24.3,115.7,23.7,118.2,26.4z"/>
<path class="st19" d="M133.3,70.5"/>
</svg>
