<?xml version="1.0" encoding="utf-8"?>
<!-- Generator: Adobe Illustrator 27.9.0, SVG Export Plug-In . SVG Version: 6.00 Build 0)  -->
<svg version="1.1" id="Layer_1" xmlns="http://www.w3.org/2000/svg" xmlns:xlink="http://www.w3.org/1999/xlink" x="0px" y="0px"
	 viewBox="0 0 24 24" style="enable-background:new 0 0 24 24;" xml:space="preserve">
<style type="text/css">
	.st0{fill:url(#Rectangle-24_00000163794768593563010360000014515232895206674323_);stroke:#C9C9C9;stroke-width:1.52;}
	.st1{fill:#87D0CC;}
	.st2{fill:#F8E81C;}
	.st3{fill-rule:evenodd;clip-rule:evenodd;fill:#75BE14;stroke:#F4F4F4;}
</style>
<radialGradient id="Rectangle-24_00000001641182480255360030000015482348295234285442_" cx="-2321.198" cy="-1832.4667" r="10.62" gradientTransform="matrix(1.64 1.000000e-02 1.000000e-02 -1.57 3829.0312 -2847.2932)" gradientUnits="userSpaceOnUse">
	<stop  offset="0" style="stop-color:#5C9AE6"/>
	<stop  offset="1" style="stop-color:#2171CE"/>
</radialGradient>
<path id="Rectangle-24" style="fill:url(#Rectangle-24_00000001641182480255360030000015482348295234285442_);stroke:#C9C9C9;stroke-width:1.52;" d="
	M3.9,2.1h16.2c1,0,1.8,0.8,1.8,1.8v16.2c0,1-0.8,1.8-1.8,1.8H3.9c-1,0-1.8-0.8-1.8-1.8V3.9C2.1,2.9,2.9,2.1,3.9,2.1z"/>
<polygon id="Path" class="st1" points="15.8,6.2 21,12.3 21,18.9 2.9,18.9 2.9,16 7.1,11.3 9.2,13.7 "/>
<path id="path3129" class="st2" d="M10,7.7c0,1.5-1.2,2.8-2.8,2.8l0,0l0,0c-1.5,0-2.8-1.2-2.9-2.7c0,0,0,0,0-0.1l0,0
	c0-1.5,1.2-2.8,2.7-2.9l0,0l0,0C8.7,4.8,10,6,10,7.7C10,7.6,10,7.6,10,7.7L10,7.7z"/>
<path id="Shape" class="st3" d="M23,17.2C23,17.3,23,17.3,23,17.2c-0.4,1.9-1.3,3.4-2.7,4.4c-1.4,1.2-3,1.7-4.8,1.7
	c-1,0-1.9-0.1-2.8-0.5c-0.9-0.4-1.7-0.9-2.4-1.5L9,22.5c-0.1,0.1-0.3,0.1-0.5,0.1c-0.3,0-0.4,0-0.5-0.1c-0.1-0.1-0.1-0.3-0.1-0.5
	v-4.5c0-0.1,0-0.4,0.1-0.5s0.3-0.1,0.5-0.1H13c0.1,0,0.4,0,0.5,0.1c0.1,0.1,0.1,0.3,0.1,0.5c0,0.1,0,0.4-0.1,0.5l-1.4,1.4
	c0.5,0.4,1,0.8,1.7,1c0.6,0.3,1.3,0.4,1.9,0.4c0.9,0,1.7-0.3,2.6-0.6s1.4-1,1.9-1.8c0.1-0.1,0.3-0.5,0.5-1.2c0-0.1,0.1-0.3,0.3-0.3
	h1.9C23,16.9,23,17.2,23,17.2L23,17.2z M23.3,9.2v4.5c0,0.1,0,0.4-0.1,0.5c-0.1,0.1-0.3,0.1-0.5,0.1h-4.5c-0.1,0-0.4,0-0.5-0.1
	c-0.1-0.1-0.1-0.3-0.1-0.5s0-0.4,0.1-0.5l1.4-1.4c-1-0.9-2.2-1.4-3.5-1.4c-0.9,0-1.7,0.3-2.6,0.6c-0.9,0.4-1.4,1-1.9,1.8
	c-0.1,0.1-0.3,0.5-0.5,1.2c0,0.1-0.1,0.3-0.3,0.3H8.2c-0.1,0-0.1,0-0.3-0.1c0,0-0.1-0.1-0.1-0.3V14c0.4-1.8,1.3-3.2,2.7-4.4
	s3-1.7,4.9-1.7c1,0,1.9,0.1,2.8,0.5c0.9,0.4,1.8,0.9,2.4,1.5L22,8.7c0.1-0.1,0.3-0.1,0.5-0.1c0.1,0,0.4,0,0.5,0.1
	C23.1,8.8,23.3,9.1,23.3,9.2L23.3,9.2z"/>
</svg>
