<?xml version="1.0" encoding="utf-8"?>
<!-- Generator: Adobe Illustrator 27.9.0, SVG Export Plug-In . SVG Version: 6.00 Build 0)  -->
<svg version="1.1" id="Layer_1" xmlns="http://www.w3.org/2000/svg" xmlns:xlink="http://www.w3.org/1999/xlink" x="0px" y="0px"
	 viewBox="0 0 24 24" style="enable-background:new 0 0 24 24;" xml:space="preserve">
<style type="text/css">
	.st0{fill:url(#Rectangle-24_00000149349894969938546320000000138980629615280006_);stroke:#C9C9C9;stroke-width:1.52;}
	.st1{fill:#87D0CC;}
	.st2{fill:#F8E81C;}
	.st3{fill-rule:evenodd;clip-rule:evenodd;fill:#BABDB6;stroke:#2E3436;stroke-width:0.5006;stroke-linecap:round;}
	
		.st4{fill:none;stroke:url(#path14575_00000181054685347458524140000004676615775782565279_);stroke-width:0.5006;stroke-linecap:round;}
	
		.st5{fill-rule:evenodd;clip-rule:evenodd;fill:url(#path7968_00000018922933795689834240000011824421165375913650_);stroke:#9F8200;stroke-width:0.6517;}
	
		.st6{fill:none;stroke:url(#path7972_00000163753528298821865060000012520666863410236058_);stroke-width:0.4911;stroke-linecap:round;}
	.st7{opacity:0.46;fill:none;stroke:#FFFFFF;stroke-width:0.4911;enable-background:new    ;}
	
		.st8{fill:none;stroke:url(#path7974_00000124883196958166159880000006379879337671555256_);stroke-width:0.4911;stroke-linecap:round;}
	
		.st9{fill:none;stroke:url(#path7976_00000040540516878226564390000015288631663670582443_);stroke-width:0.4911;stroke-linecap:round;}
	
		.st10{fill:none;stroke:url(#path7978_00000161615758406793491070000016921678470705321634_);stroke-width:0.4911;stroke-linecap:round;}
	
		.st11{fill:none;stroke:url(#path7980_00000104665605069923516260000014512586366529509006_);stroke-width:0.4911;stroke-linecap:round;}
	
		.st12{fill-rule:evenodd;clip-rule:evenodd;fill:url(#path7982_00000176029516955821826130000016633722549284406426_);stroke:#9F8200;stroke-width:0.6517;stroke-linecap:round;stroke-linejoin:round;}
	.st13{opacity:0.25;fill:none;stroke:#FFFFFF;stroke-width:0.4911;enable-background:new    ;}
	
		.st14{fill-rule:evenodd;clip-rule:evenodd;fill:url(#rect7984_00000048472360997812708970000008685342804378161800_);stroke:#2E3436;stroke-width:0.6517;stroke-linecap:round;}
	
		.st15{fill-rule:evenodd;clip-rule:evenodd;fill:#FFFFFF;stroke:#2E3436;stroke-width:0.6517;stroke-linecap:round;stroke-linejoin:round;}
	.st16{opacity:0.32;fill-rule:evenodd;clip-rule:evenodd;fill:#FFFFFF;enable-background:new    ;}
</style>
<radialGradient id="Rectangle-24_00000096020342632506323020000006839956164573046407_" cx="-1953.6613" cy="2053.4888" r="10.62" gradientTransform="matrix(1.64 1.000000e-02 -1.000000e-02 1.57 3228.4812 -3197.9731)" gradientUnits="userSpaceOnUse">
	<stop  offset="0" style="stop-color:#5C9AE6"/>
	<stop  offset="1" style="stop-color:#2171CE"/>
</radialGradient>
<path id="Rectangle-24" style="fill:url(#Rectangle-24_00000096020342632506323020000006839956164573046407_);stroke:#C9C9C9;stroke-width:1.52;" d="
	M3.9,2.1h16.2c1,0,1.8,0.8,1.8,1.8v16.2c0,1-0.8,1.8-1.8,1.8H3.9c-1,0-1.8-0.8-1.8-1.8V3.9C2.1,2.9,2.9,2.1,3.9,2.1z"/>
<polygon id="Path" class="st1" points="15.8,6.2 21,12.3 21,18.9 2.9,18.9 2.9,16 7.1,11.3 9.2,13.7 "/>
<path id="path3129" class="st2" d="M10,7.7c0,1.5-1.2,2.8-2.8,2.8l0,0l0,0c-1.5,0-2.8-1.2-2.9-2.7c0,0,0,0,0-0.1l0,0
	c0-1.5,1.2-2.8,2.7-2.9l0,0l0,0C8.7,4.8,10,6,10,7.7C10,7.6,10,7.6,10,7.7L10,7.7z"/>
<g id="layer1">
	<path id="path7966" class="st3" d="M23,6.2l-3.2,4.4c-0.4,0.8-1.3,1.1-2.1,0.8C17.1,11,17,9.9,17.4,9.3l2.3-5.1
		c0.6-0.9,1.7-1.3,2.7-0.8C23.3,3.8,23.5,5.3,23,6.2z"/>
	
		<linearGradient id="path14575_00000180366289494809557370000004637902196167942588_" gradientUnits="userSpaceOnUse" x1="4104.2539" y1="-3298.8206" x2="4114.3032" y2="-3314.5171" gradientTransform="matrix(-0.41 0 0 -0.41 1707.6294 -1352.8101)">
		<stop  offset="0" style="stop-color:#FFFFFF"/>
		<stop  offset="1" style="stop-color:#FFFFFF;stop-opacity:0"/>
	</linearGradient>
	
		<path id="path14575" style="fill:none;stroke:url(#path14575_00000180366289494809557370000004637902196167942588_);stroke-width:0.5006;stroke-linecap:round;" d="
		M22.4,6.1L19,10.8L17.8,10l2.4-5.5c0-0.1,0.1-0.1,0.1-0.2c0.4-0.7,1.2-0.9,1.9-0.6C22.9,4.3,22.9,5.2,22.4,6.1z"/>
	
		<radialGradient id="path7968_00000033355215503823201940000009731187610153686434_" cx="7215.2935" cy="-5014.6636" r="19.295" gradientTransform="matrix(-0.17 -8.000000e-02 0.21 -0.43 2282.4993 -1568.4199)" gradientUnits="userSpaceOnUse">
		<stop  offset="0" style="stop-color:#FEF088"/>
		<stop  offset="0.5" style="stop-color:#FDE63A"/>
		<stop  offset="1" style="stop-color:#DAC203"/>
	</radialGradient>
	
		<path id="path7968" style="fill-rule:evenodd;clip-rule:evenodd;fill:url(#path7968_00000033355215503823201940000009731187610153686434_);stroke:#9F8200;stroke-width:0.6517;" d="
		M15.3,12c-2.4-1.1-5.4,4.2-9.8,6.4c3.1,3.3,7.7,5,9.8,4.9c2.3-2.5,3.4-6,3-9.4L15.3,12z"/>
	
		<linearGradient id="path7972_00000157989455112259179170000009033677521384952748_" gradientUnits="userSpaceOnUse" x1="1775.0907" y1="-4239.877" x2="1776.4507" y2="-4228.5532" gradientTransform="matrix(-0.32 -0.18 0.29 -0.51 1810.9594 -1818.3)">
		<stop  offset="0" style="stop-color:#C4A000"/>
		<stop  offset="1" style="stop-color:#C4A000;stop-opacity:0"/>
	</linearGradient>
	
		<path id="path7972" style="fill:none;stroke:url(#path7972_00000157989455112259179170000009033677521384952748_);stroke-width:0.4911;stroke-linecap:round;" d="
		M14,23.2c2.3-2.5,2.4-5.6,3.5-8.6"/>
	<path id="path7970" class="st7" d="M15.2,12.6c-1.7-1-4.3,3.2-8.9,6c1.3,1.2,5.2,4.2,8.8,4.2c2.7-2.5,3.1-8.4,2.6-8.6L15.2,12.6z"
		/>
	
		<linearGradient id="path7974_00000067228704928743358290000010935654770697440418_" gradientUnits="userSpaceOnUse" x1="1793.4609" y1="-4236.29" x2="1791.9877" y2="-4224.1167" gradientTransform="matrix(-0.32 -0.18 0.29 -0.51 1810.8794 -1818.16)">
		<stop  offset="0" style="stop-color:#C4A000"/>
		<stop  offset="1" style="stop-color:#C4A000;stop-opacity:0"/>
	</linearGradient>
	
		<path id="path7974" style="fill:none;stroke:url(#path7974_00000067228704928743358290000010935654770697440418_);stroke-width:0.4911;stroke-linecap:round;" d="
		M6.8,19.7c4.4-3,6.8-6.3,7.2-5.9"/>
	
		<linearGradient id="path7976_00000052793061628380811270000002416043534895420855_" gradientUnits="userSpaceOnUse" x1="1755.9149" y1="-3965.8408" x2="1754.5454" y2="-3955.4519" gradientTransform="matrix(-0.32 -0.18 0.31 -0.54 1803.0894 -1802.79)">
		<stop  offset="0" style="stop-color:#C4A000"/>
		<stop  offset="1" style="stop-color:#C4A000;stop-opacity:0"/>
	</linearGradient>
	
		<path id="path7976" style="fill:none;stroke:url(#path7976_00000052793061628380811270000002416043534895420855_);stroke-width:0.4911;stroke-linecap:round;" d="
		M12.5,22.7c2.8-2.7,2.5-6.1,4.2-8.7"/>
	
		<linearGradient id="path7978_00000164510316640335829430000012889446614878555276_" gradientUnits="userSpaceOnUse" x1="1785.11" y1="-4229.6206" x2="1785.11" y2="-4218.4385" gradientTransform="matrix(-0.32 -0.18 0.29 -0.51 1809.1294 -1817.67)">
		<stop  offset="0" style="stop-color:#C4A000"/>
		<stop  offset="1" style="stop-color:#C4A000;stop-opacity:0"/>
	</linearGradient>
	
		<path id="path7978" style="fill:none;stroke:url(#path7978_00000164510316640335829430000012889446614878555276_);stroke-width:0.4911;stroke-linecap:round;" d="
		M8.9,21.2c1.5-1,5.4-7.3,5.4-7.3"/>
	
		<linearGradient id="path7980_00000152948292115798250070000016146786828362759591_" gradientUnits="userSpaceOnUse" x1="1720.6562" y1="-3869.1387" x2="1716.8973" y2="-3862.6125" gradientTransform="matrix(-0.32 -0.18 0.32 -0.55 1798.7394 -1797.4601)">
		<stop  offset="0" style="stop-color:#C4A000"/>
		<stop  offset="1" style="stop-color:#C4A000;stop-opacity:0"/>
	</linearGradient>
	
		<path id="path7980" style="fill:none;stroke:url(#path7980_00000152948292115798250070000016146786828362759591_);stroke-width:0.4911;stroke-linecap:round;" d="
		M10.7,22c1.2-1.6,3.7-7,5.4-8.4"/>
	
		<linearGradient id="path7982_00000146457553824103787680000000102589176798409875_" gradientUnits="userSpaceOnUse" x1="4858.1455" y1="-3759.5767" x2="4865.6821" y2="-3755.2039" gradientTransform="matrix(-0.37 0 0 -0.37 1821.0593 -1376.14)">
		<stop  offset="0" style="stop-color:#DAC203"/>
		<stop  offset="0.5" style="stop-color:#FDEC69"/>
		<stop  offset="1" style="stop-color:#FDEF7E"/>
	</linearGradient>
	
		<path id="path7982" style="fill-rule:evenodd;clip-rule:evenodd;fill:url(#path7982_00000146457553824103787680000000102589176798409875_);stroke:#9F8200;stroke-width:0.6517;stroke-linecap:round;stroke-linejoin:round;" d="
		M18.8,14.1L15,11.9c1-1.9,0.6-2.3,0.8-3.4l5.5,3.1C20.5,12.5,19.4,12.5,18.8,14.1z"/>
	<path id="path11655" class="st13" d="M15.9,11.4c0.2-0.8,0.3-1.4,0.4-2.2l4.2,2.4c-0.6,0.5-1.4,0.8-1.8,1.5L15.9,11.4z"/>
	
		<linearGradient id="rect7984_00000024696980897257151020000004943819926683468718_" gradientUnits="userSpaceOnUse" x1="-1338.9978" y1="-2053.7991" x2="-1331.9144" y2="-2053.7991" gradientTransform="matrix(-0.95 -0.55 0.55 -0.94 -121.3606 -2651.96)">
		<stop  offset="0" style="stop-color:#EEEEEC"/>
		<stop  offset="1" style="stop-color:#96968A"/>
	</linearGradient>
	
		<path id="rect7984" style="fill-rule:evenodd;clip-rule:evenodd;fill:url(#rect7984_00000024696980897257151020000004943819926683468718_);stroke:#2E3436;stroke-width:0.6517;stroke-linecap:round;" d="
		M20.2,14.1l-0.4,0.7l0,0c-0.2,0.3-0.5,0.4-0.8,0.2L13.9,12l0,0c-0.3-0.2-0.4-0.5-0.2-0.8l0.4-0.7l0,0c0.2-0.3,0.5-0.4,0.8-0.2
		l5.1,2.9C20.3,13.5,20.4,13.9,20.2,14.1z"/>
	<path id="path10193" class="st15" d="M20.9,4.8c0.4-0.1,0.8,0.1,0.8,0.5l0,0c0.1,0.4-0.1,0.8-0.5,0.8s-0.8-0.1-0.8-0.5
		C20.4,5.3,20.6,4.9,20.9,4.8z"/>
	<path id="path3558" class="st16" d="M13.7,17.8c-1,1.4-2.1,3.3-2.6,4.2c0.3,0.2,0.7,0.4,1,0.5C12.9,21,13.4,19.4,13.7,17.8z"/>
	<path id="path3560" class="st16" d="M13.1,16.4c-1.1,1.7-2.3,3.4-3.6,4.9l0.9,0.5L13.1,16.4z"/>
	<path id="path3562" class="st16" d="M12.7,14.8c0,0-4.1,4.1-5.6,4.7l1.1,0.8L12.7,14.8z"/>
	<path id="path3565" class="st16" d="M11.8,13.9c0,0-4.4,4-6,4.7l0.8,0.7C8.8,18.2,11.8,13.9,11.8,13.9z"/>
	<path id="path2265" class="st16" d="M15.2,18.6c-0.5,1.6-1.3,3-2.5,4.2l0.9,0.2C13.7,23,14.9,21.9,15.2,18.6z"/>
	<path id="path2267" class="st16" d="M16.7,18.6c-0.6,2-0.9,3.3-2.1,4.5h0.6C16,21.8,16.6,20.2,16.7,18.6z"/>
</g>
</svg>
