<?xml version="1.0" encoding="utf-8"?>
<!-- Generator: Adobe Illustrator 27.9.0, SVG Export Plug-In . SVG Version: 6.00 Build 0)  -->
<svg version="1.1" id="Layer_1" xmlns="http://www.w3.org/2000/svg" xmlns:xlink="http://www.w3.org/1999/xlink" x="0px" y="0px"
	 viewBox="0 0 24 24" style="enable-background:new 0 0 24 24;" xml:space="preserve">
<style type="text/css">
	.st0{fill:#E6E6E6;stroke:#E5E5E5;stroke-width:0.4;stroke-miterlimit:10;}
	.st1{fill:#CCCCCC;}
</style>
<circle class="st0" cx="12" cy="18.6" r="1.4"/>
<g>
	<path class="st0" d="M11.8,16c-0.5,0-0.9-0.3-0.9-0.8c-0.2-1.1,0-2.1,0.4-2.9c0.6-1.2,1.5-1.6,2.2-2c0.5-0.2,0.8-0.4,0.9-0.6
		c0.1-0.4,0-1.2-0.5-1.9c-0.3-0.4-1-1.3-2.1-1.4C10.7,6.3,9.6,7.1,9,8.3C8.8,8.8,8.3,9,7.8,8.8S7.1,8,7.3,7.5c0.8-1.9,2.7-3.1,4.6-3
		c1.4,0.1,2.7,0.9,3.6,2.2c0.4,0.6,0.6,1.2,0.8,1.8c0.1,0.7,0.1,1.3-0.1,1.8c-0.3,0.9-1.1,1.3-1.8,1.6c-0.6,0.3-1.1,0.5-1.4,1.1
		c-0.2,0.5-0.3,1.1-0.2,1.7c0.1,0.5-0.3,1-0.8,1.1C11.9,15.9,11.9,16,11.8,16z"/>
</g>
<path class="st1" d="M12,0.7c9.3,0,11.3,2,11.3,11.3s-2,11.3-11.3,11.3S0.7,21.2,0.7,12S2.7,0.7,12,0.7z M12,2.6
	C9.7,2.6,8,2.7,6.7,3c-1.3,0.3-2,0.7-2.5,1.2C3.7,4.7,3.3,5.4,3,6.7C2.7,8,2.6,9.7,2.6,12s0.1,4,0.4,5.3c0.3,1.3,0.7,2,1.2,2.5
	c0.5,0.5,1.2,0.9,2.5,1.2c1.3,0.3,3,0.4,5.3,0.4s4-0.1,5.3-0.4c1.3-0.3,2-0.7,2.5-1.2c0.5-0.5,0.9-1.2,1.2-2.5
	c0.3-1.3,0.4-3,0.4-5.3S21.3,8,21,6.7c-0.3-1.3-0.7-2-1.2-2.5c-0.5-0.5-1.2-0.9-2.5-1.2C16,2.7,14.3,2.6,12,2.6L12,2.6z"/>
</svg>
