<?xml version="1.0" encoding="utf-8"?>
<!-- Generator: Adobe Illustrator 27.9.0, SVG Export Plug-In . SVG Version: 6.00 Build 0)  -->
<svg version="1.1"
	 id="svg3913" xmlns:inkscape="http://www.inkscape.org/namespaces/inkscape" xmlns:ns="http://ns.adobe.com/AdobeIllustrator/10.0/" xmlns:svg="http://www.w3.org/2000/svg" xmlns:dc="http://purl.org/dc/elements/1.1/" xmlns:sodipodi="http://sodipodi.sourceforge.net/DTD/sodipodi-0.dtd" xmlns:cc="http://creativecommons.org/ns#" xmlns:rdf="http://www.w3.org/1999/02/22-rdf-syntax-ns#" inkscape:version="1.3-dev (fdc7329b, 2022-05-31)"
	 xmlns="http://www.w3.org/2000/svg" xmlns:xlink="http://www.w3.org/1999/xlink" x="0px" y="0px" viewBox="0 0 16 16"
	 style="enable-background:new 0 0 16 16;" xml:space="preserve">
<style type="text/css">
	
		.st0{fill-rule:evenodd;clip-rule:evenodd;fill:#FFFFFF;stroke:url(#rect2393_00000170959788547352104010000004024337737309946547_);stroke-width:0.9506;stroke-linecap:round;}
	.st1{fill-rule:evenodd;clip-rule:evenodd;fill:#D3D7CF;}
	.st2{fill:#FFC7AB;}
	.st3{fill:#FF3F3F;}
</style>
<g id="layer1_00000150076373866844962900000009301615140588908729_" inkscape:groupmode="layer" inkscape:label="Layer 1">
	
		<linearGradient id="rect2393_00000067215494565324920460000010739756399937451918_" gradientUnits="userSpaceOnUse" x1="1.7599" y1="15.3487" x2="14.2401" y2="4.6513" gradientTransform="matrix(1 0 0 -1 0 18)">
		<stop  offset="0" style="stop-color:#757575"/>
		<stop  offset="1" style="stop-color:#000000"/>
	</linearGradient>
	
		<path id="rect2393" style="fill-rule:evenodd;clip-rule:evenodd;fill:#FFFFFF;stroke:url(#rect2393_00000067215494565324920460000010739756399937451918_);stroke-width:0.9506;stroke-linecap:round;" d="
		M2.9,0.9h10.3c0.6,0,1,0.5,1,1v12.2c0,0.6-0.5,1-1,1H2.9c-0.6,0-1-0.5-1-1V1.9C1.8,1.3,2.3,0.9,2.9,0.9z"/>
	<rect id="rect3167" x="2.3" y="1.3" class="st1" width="11.4" height="1.9"/>
	<rect id="rect3169" x="2.3" y="5.1" class="st1" width="11.4" height="1.9"/>
	<rect id="rect3171" x="2.3" y="9" class="st1" width="11.4" height="1.9"/>
	<rect id="rect3173" x="2.3" y="12.8" class="st1" width="11.4" height="1.9"/>
</g>
<defs>
	
		<inkscape:perspective  id="perspective4016" inkscape:persp3d-origin="8 : 5.3333333 : 1" inkscape:vp_x="0 : 8 : 1" inkscape:vp_y="0 : 1000 : 0" inkscape:vp_z="16 : 8 : 1" sodipodi:type="inkscape:persp3d">
		</inkscape:perspective>
	
		<inkscape:perspective  id="perspective4552" inkscape:persp3d-origin="372.04724 : 350.78739 : 1" inkscape:vp_x="0 : 526.18109 : 1" inkscape:vp_y="0 : 1000 : 0" inkscape:vp_z="744.09448 : 526.18109 : 1" sodipodi:type="inkscape:persp3d">
		</inkscape:perspective>
</defs>
<sodipodi:namedview  bordercolor="#666666" borderlayer="top" borderopacity="1.0" fill="#eeeeec" height="16px" id="base" inkscape:current-layer="svg3913" inkscape:cx="8.9845684" inkscape:cy="8.5413834" inkscape:deskcolor="#d1d1d1" inkscape:grid-bbox="true" inkscape:grid-points="false" inkscape:pagecheckerboard="0" inkscape:pageopacity="0.0" inkscape:pageshadow="2" inkscape:showpageshadow="false" inkscape:window-height="1377" inkscape:window-maximized="1" inkscape:window-width="2560" inkscape:window-x="-8" inkscape:window-y="-8" inkscape:zoom="37.230503" pagecolor="#ffffff" showgrid="true" showguides="false" stroke="#2e3436" width="16px">
	
		<inkscape:grid  color="#3f3fff" empcolor="#3f3fff" empopacity="0.38" empspacing="5" id="GridFromPre046Settings" opacity="0.15" originx="0" originy="0" spacingx="1.2760625" spacingy="1.408875" type="xygrid">
		</inkscape:grid>
</sodipodi:namedview>
<g id="layer1_00000013884440699003342010000000805703877163162270_" inkscape:groupmode="layer" inkscape:label="Layer 1">
	<path id="rect16026" class="st2" d="M14.1,6c-0.4-0.4-1-0.4-1.4,0l-2,2l-2-2c-0.4-0.4-1-0.4-1.3,0L6,7.4c-0.4,0.4-0.4,1,0,1.3l2,2
		l-2,2c-0.4,0.4-0.4,1,0,1.4l1.4,1.4c0.4,0.4,1,0.4,1.4,0l2-2l2,2c0.4,0.4,1,0.4,1.3,0l1.4-1.4c0.4-0.4,0.4-1,0-1.3l-2-2l2-2
		c0.4-0.4,0.4-1,0-1.4L14.1,6z"/>
	
		<rect id="rect15900" x="6" y="9.8" transform="matrix(0.7071 -0.7071 0.7071 0.7071 -4.442 10.7243)" class="st3" width="9.5" height="1.9"/>
	
		<rect id="rect16004" x="9.8" y="6" transform="matrix(0.7071 -0.7071 0.7071 0.7071 -4.442 10.7243)" class="st3" width="1.9" height="9.5"/>
</g>
</svg>
