<?xml version="1.0" encoding="utf-8"?>
<!-- Generator: Adobe Illustrator 27.9.0, SVG Export Plug-In . SVG Version: 6.00 Build 0)  -->
<svg version="1.1" id="Layer_1" xmlns="http://www.w3.org/2000/svg" xmlns:xlink="http://www.w3.org/1999/xlink" x="0px" y="0px"
	 viewBox="0 0 16 16" style="enable-background:new 0 0 16 16;" xml:space="preserve">
<style type="text/css">
	.st0{fill:#FFD82A;stroke:#FFB300;stroke-miterlimit:10;}
	.st1{fill:#454545;}
	.st2{fill:#FFFFFF;stroke:#454545;stroke-width:0.68;stroke-miterlimit:10;}
</style>
<g id="Page-1">
	<g id="Artboard">
		<circle id="Oval" class="st0" cx="8" cy="8" r="6.5"/>
	</g>
</g>
<path class="st1" d="M8.6,4.7v3l2.1,2.1c0.1,0.1,0.1,0.2,0.1,0.2s0,0.2-0.1,0.2l-0.4,0.4c-0.1,0.1-0.2,0.1-0.2,0.1s-0.2,0-0.2-0.1
	L7.5,8.3C7.4,8.3,7.4,8.2,7.4,8.1V4.7c0-0.1,0-0.2,0.1-0.2s0.2-0.1,0.2-0.1h0.6c0.1,0,0.2,0,0.2,0.1C8.6,4.5,8.6,4.6,8.6,4.7
	L8.6,4.7L8.6,4.7z M14.5,6.2V2.6c0-0.1,0-0.2-0.1-0.2c-0.1-0.1-0.2-0.1-0.2-0.1h-0.2c-0.1,0-0.2,0-0.3,0.1l-1.1,1.1
	C10.4,1.2,7,0.9,4.5,2.6c-2.6,1.7-3.6,4.9-2.5,7.8C3,13.2,6,14.9,9,14.4c3-0.5,5.3-3,5.5-6.1c0-0.1,0-0.2-0.1-0.3
	C14.3,8,14.2,8,14.1,8h-0.7c-0.2,0-0.4,0.2-0.4,0.3c-0.2,2.7-2.5,4.8-5.3,4.7s-4.9-2.4-4.8-5.2s2.3-5,5-5c1.3,0,2.6,0.5,3.6,1.5
	l-1.3,1.3c-0.1,0.1-0.1,0.2-0.1,0.3v0.2c0,0.1,0,0.2,0.1,0.2s0.2,0.1,0.2,0.1h3.6c0.1,0,0.2,0,0.2-0.1C14.4,6.3,14.5,6.3,14.5,6.2"
	/>
<circle class="st2" cx="8" cy="8" r="1"/>
</svg>
