<?xml version="1.0" encoding="utf-8"?>
<!-- Generator: Adobe Illustrator 27.9.0, SVG Export Plug-In . SVG Version: 6.00 Build 0)  -->
<svg version="1.1" id="Layer_1" xmlns="http://www.w3.org/2000/svg" xmlns:xlink="http://www.w3.org/1999/xlink" x="0px" y="0px"
	 viewBox="0 0 24 24" style="enable-background:new 0 0 24 24;" xml:space="preserve">
<style type="text/css">
	.st0{fill-rule:evenodd;clip-rule:evenodd;fill:url(#rect5876_00000068656840903104151340000017398154153318352827_);}
	.st1{fill-rule:evenodd;clip-rule:evenodd;fill:#BABDB6;}
	.st2{fill-rule:evenodd;clip-rule:evenodd;fill:url(#path5944_00000024715259886492766100000015546781646531935618_);}
	.st3{fill-rule:evenodd;clip-rule:evenodd;fill:url(#path5973_00000168819170230209188670000004623137734521994903_);}
	
		.st4{fill-rule:evenodd;clip-rule:evenodd;fill:url(#path6027_00000006699502285801587820000016307568617035387291_);stroke:#323232;stroke-width:0.5236;}
	.st5{fill-rule:evenodd;clip-rule:evenodd;fill:#EEEEEC;}
	.st6{fill-rule:evenodd;clip-rule:evenodd;fill-opacity:0.1111;}
	.st7{fill-rule:evenodd;clip-rule:evenodd;fill-opacity:0.1543;}
	.st8{fill-rule:evenodd;clip-rule:evenodd;fill:#D3D3D3;stroke:#2E3436;stroke-width:0.5236;}
	.st9{fill-rule:evenodd;clip-rule:evenodd;fill-opacity:0.216;}
	
		.st10{fill:none;stroke:url(#rect5886_00000132079875196316473160000000457853636666359997_);stroke-width:0.7854;stroke-linecap:round;}
	.st11{fill:none;stroke:#204A87;stroke-width:0.7854;stroke-linecap:round;}
	.st12{fill-rule:evenodd;clip-rule:evenodd;fill:#EEEEEC;fill-opacity:0.75;}
	.st13{fill-rule:evenodd;clip-rule:evenodd;fill:#FFFFFF;fill-opacity:0.5432;}
	
		.st14{fill:url(#circle7520_00000158013826070145806180000014188434674008421527_);stroke:#470907;stroke-width:0.488;stroke-miterlimit:4.7072;}
	.st15{fill:url(#path7529_00000079466529250404493280000002790671430939737262_);}
	.st16{fill:url(#path7565_00000010298628496614135320000005282724541958729147_);}
	.st17{fill:url(#path7572_00000142857932540449389640000017621327461058720387_);}
	.st18{fill:url(#path7581_00000114045066667105355070000010907176177764926092_);}
	.st19{fill:url(#path7600_00000164491704060568052440000013449393173287706278_);}
	.st20{fill:none;stroke:#003745;stroke-width:0.421;}
	.st21{fill:url(#path7627_00000088825169722453702630000017498638299085865133_);}
	.st22{fill:url(#path7641_00000181808268376514535220000006141721538980440712_);enable-background:new    ;}
	.st23{fill:none;stroke:#554400;stroke-width:0.488;stroke-miterlimit:4.1408;}
	.st24{fill:url(#path7662_00000064321018168679138550000011010609331356857754_);}
</style>
<g id="layer1_1_">
	
		<linearGradient id="rect5876_00000080901667597851984190000011115155464400020155_" gradientUnits="userSpaceOnUse" x1="-57.4613" y1="741.3668" x2="-57.446" y2="724.0938" gradientTransform="matrix(1.1415 0 0 1.1415 77.583 -823.9415)">
		<stop  offset="0" style="stop-color:#729FCF"/>
		<stop  offset="1" style="stop-color:#376DA5"/>
	</linearGradient>
	
		<path id="rect5876" style="fill-rule:evenodd;clip-rule:evenodd;fill:url(#rect5876_00000080901667597851984190000011115155464400020155_);" d="
		M3.2,1.3h17.6c1,0,1.9,0.8,1.9,1.9v17.7c0,1-0.8,1.9-1.9,1.9H3.2c-1,0-1.9-0.8-1.9-1.9V3.2C1.4,2.1,2.2,1.3,3.2,1.3z"/>
	<path id="path5933" class="st1" d="M11.8,6.6c-0.1,0.4-0.4,0.7-0.9,0.7c-0.2,0-0.3-0.1-0.5-0.1c-0.3,0.4-0.8,0.7-1.3,0.7
		s-1-0.2-1.3-0.6c-0.1,0-0.3,0-0.4,0s-0.2,0-0.3,0C6.8,8,6.1,8.4,5.3,8.4C4.6,8.4,4,8,3.6,7.5c-0.1,0-0.2,0.1-0.4,0.1
		c-0.4,0-0.8-0.3-0.9-0.7V7c0,0.5,0.4,0.9,0.9,0.9c0.2,0,0.3,0,0.4-0.1c0.4,0.6,1,0.9,1.7,0.9c0.8,0,1.5-0.5,1.8-1.1
		c0.1,0,0.2,0,0.3,0c0.1,0,0.3,0,0.4,0C8.2,8,8.6,8.2,9.1,8.2s1-0.3,1.3-0.7c0.1,0.1,0.3,0.1,0.5,0.1C11.4,7.6,11.8,7.2,11.8,6.6
		C11.8,6.7,11.8,6.7,11.8,6.6z"/>
	
		<radialGradient id="path5944_00000088830923773274126840000007532748686445577395_" cx="-146.8566" cy="1013.9882" r="4.745" gradientTransform="matrix(1.346 -2.037844e-02 1.240667e-02 0.8195 192.1536 -828.8625)" gradientUnits="userSpaceOnUse">
		<stop  offset="0" style="stop-color:#FFFFFF"/>
		<stop  offset="0.5" style="stop-color:#FFFFFF"/>
		<stop  offset="1" style="stop-color:#B6F9FF"/>
	</radialGradient>
	
		<path id="path5944" style="fill-rule:evenodd;clip-rule:evenodd;fill:url(#path5944_00000088830923773274126840000007532748686445577395_);" d="
		M7.5,3.2C6.7,3.2,6,3.6,5.6,4.3c-0.1,0-0.2,0-0.3,0c-1,0-1.8,0.7-2,1.6H3.2c-0.5,0-0.9,0.4-0.9,0.9s0.4,0.9,0.9,0.9
		c0.2,0,0.3,0,0.4-0.1c0.4,0.6,1,0.9,1.7,0.9c0.8,0,1.5-0.5,1.8-1.1c0.1,0,0.2,0,0.3,0c0.1,0,0.3,0,0.4,0C8.2,7.7,8.6,8,9.1,8
		s1-0.3,1.3-0.7c0.1,0.1,0.3,0.1,0.5,0.1c0.5,0,0.9-0.4,0.9-0.9s-0.4-0.9-0.9-0.9c-0.1,0-0.2,0-0.3,0.1C10.4,5.2,10,4.9,9.5,4.8
		C9.3,3.9,8.5,3.2,7.5,3.2z"/>
	<g id="g6156" transform="translate(-0.777778,-4.722222)">
		<path id="path5971" class="st1" d="M14.6,15.7v0.1c0,0.5,0.4,0.9,0.9,0.9c0.2,0,0.3,0,0.4-0.1c0.4,0.6,1,0.9,1.7,0.9
			c0.8,0,1.5-0.5,1.8-1.1c0.1,0,0.2,0,0.3,0c0.1,0,0.3,0,0.4,0c0.3,0.4,0.8,0.6,1.3,0.6s1-0.3,1.3-0.7c0.1,0.1,0.2,0.1,0.3,0.1v-0.3
			c-0.1,0-0.2-0.1-0.3-0.1c-0.3,0.4-0.8,0.7-1.3,0.7s-1-0.2-1.3-0.6c-0.1,0-0.3,0-0.4,0s-0.2,0-0.3,0c-0.3,0.7-1,1.1-1.8,1.1
			c-0.7,0-1.3-0.4-1.7-0.9c-0.1,0.1-0.3,0.1-0.4,0.1C15.1,16.4,14.7,16.1,14.6,15.7z"/>
		
			<radialGradient id="path5973_00000146463674824989038670000013360261434101594763_" cx="-173.5696" cy="1119.3573" r="4.745" gradientTransform="matrix(1.4541 3.531329e-03 -1.775414e-03 0.731 273.5043 -803.5866)" gradientUnits="userSpaceOnUse">
			<stop  offset="0" style="stop-color:#FFFFFF"/>
			<stop  offset="0.5" style="stop-color:#FFFFFF"/>
			<stop  offset="1" style="stop-color:#B6F9FF"/>
		</radialGradient>
		
			<path id="path5973" style="fill-rule:evenodd;clip-rule:evenodd;fill:url(#path5973_00000146463674824989038670000013360261434101594763_);" d="
			M19.7,12c-0.8,0-1.5,0.5-1.8,1.1c-0.1,0-0.2,0-0.3,0c-1,0-1.8,0.7-2,1.6h-0.1c-0.5,0-0.9,0.4-0.9,0.9s0.4,0.9,0.9,0.9
			c0.2,0,0.3,0,0.4-0.1c0.4,0.6,1,0.9,1.7,0.9c0.8,0,1.5-0.5,1.8-1.1c0.1,0,0.2,0,0.3,0c0.1,0,0.3,0,0.4,0c0.3,0.4,0.8,0.6,1.3,0.6
			s1-0.3,1.3-0.7c0.1,0.1,0.2,0.1,0.4,0.1v-1.8c-0.1,0-0.1,0-0.2,0c-0.2-0.4-0.6-0.8-1.1-0.9C21.6,12.7,20.7,12,19.7,12z"/>
	</g>
	
		<linearGradient id="path6027_00000072975410591344591250000006223553701436593074_" gradientUnits="userSpaceOnUse" x1="3.6897" y1="830.5653" x2="14.7832" y2="841.2116" gradientTransform="matrix(1 0 0 1 0 -818.0001)">
		<stop  offset="0" style="stop-color:#D3D3D3"/>
		<stop  offset="1" style="stop-color:#A8BEBB"/>
	</linearGradient>
	
		<path id="path6027" style="fill-rule:evenodd;clip-rule:evenodd;fill:url(#path6027_00000072975410591344591250000006223553701436593074_);stroke:#323232;stroke-width:0.5236;" d="
		M8.2,7.9l-3.4,3.3l-1.7,3.3l-1.8,1.3v4.8C1.3,21.4,2,22,2.7,22l16.2,0.1l0.1-2.7l-1.1-1.6l-2.5-2l-1.6-2.4l-1-3l-1.6,0.7L8.2,7.9z"
		/>
	<path id="path6029" class="st5" d="M8.2,8.3l-3.2,3l-1.7,3.4l-2,1.5v4.1l0.5-0.1v-2.3l1.1-1.4v2.4l2.5-3L5,13.4l1.1-2.2L8.2,8.3z"
		/>
	<path id="path6031" class="st5" d="M7.5,10.7L6,13.6l0.3,2.1l1.3,1.1L7.5,10.7z"/>
	<path id="path6033" class="st5" d="M1.6,21.7l3-1.6l1.6-2.8l-0.7,3.5l-1.4,1L1.6,21.7z"/>
	<path id="path6035" class="st6" d="M8.3,8.2l0.9,2.3l1.1,2.7l-0.9,1.9l1.4,1.8l-1.4,2.4l-1.8,1l1,0.9L9,21.8h9.6l0.1-2.3l-1.5-2.3
		l-2-1.3l-1.6-2.3l-0.9-2.8L11,11.4L8.3,8.2z"/>
	<path id="path6037" class="st7" d="M10.7,21.7l1-1.5l1.5-0.3L12,17.5l2.2,0.9l-1.5-3.2l0.8-1.7l1.7,2.5l1,0.8l2.5,5.1L10.7,21.7z"
		/>
	<path id="path6049" class="st8" d="M19.4,14L18,15.6L16.3,17l-2.4,0.7l-1.5,1.8l-2.5,1.2l-2,2h12.8c1.1,0,2-0.9,2-2v-3.1l-0.1-0.1
		l-1-2.5L19.4,14z"/>
	<path id="path6051" class="st5" d="M19.4,14.3L18,15.7l-1,2.2L14.3,20v1.8l1.8-0.3V20l0.7-0.9v1.6l1.6-1.9l-0.3-1.6l0.7-1.4
		L19.4,14.3z"/>
	<path id="path6053" class="st5" d="M19.7,15.4l-1,1.9l0.2,1.4l0.9,0.7L19.7,15.4z"/>
	<path id="path6055" class="st5" d="M15.8,22.5l2-1l1-1.8L18.3,22l-0.9,0.7L15.8,22.5z"/>
	<path id="path6057" class="st9" d="M19.9,14.5l0.8,1.2l-0.3,1.2l0.5,1.3l0.9,1.2L21,21l-1.2,0.6l0.7,0.6l0.2,0.4H21
		c0.9,0,1.6-0.7,1.6-1.6v-3l-0.3-0.3l-1-2.5L19.9,14.5z"/>
	
		<linearGradient id="rect5886_00000157288348892237872610000017868170091833064324_" gradientUnits="userSpaceOnUse" x1="-64.8515" y1="712.3061" x2="-64.4981" y2="732.6965" gradientTransform="matrix(1.1585 0 0 1.1595 86.9495 -824.2721)">
		<stop  offset="0" style="stop-color:#EEEEEC"/>
		<stop  offset="1" style="stop-color:#EEEEEC;stop-opacity:0"/>
	</linearGradient>
	
		<path id="rect5886" style="fill:none;stroke:url(#rect5886_00000157288348892237872610000017868170091833064324_);stroke-width:0.7854;stroke-linecap:round;" d="
		M3.1,2.1h17.8c0.5,0,1,0.4,1,1v18c0,0.5-0.4,1-1,1H3.1c-0.5,0-1-0.4-1-1V3C2.1,2.5,2.6,2.1,3.1,2.1z"/>
	<path id="rect6146" class="st11" d="M3.2,1.3h17.6c1,0,1.9,0.8,1.9,1.9v17.6c0,1-0.8,1.9-1.9,1.9H3.2c-1,0-1.9-0.8-1.9-1.9V3.1
		C1.3,2.1,2.2,1.3,3.2,1.3z"/>
	<path id="path6170" class="st12" d="M11.1,11.4l1.5-0.6l-0.8,2.3L11.1,11.4z"/>
	<path id="path6172" class="st13" d="M4.3,12.7L5,11.3l3.2-3l2.9,3.3l1.5-0.7l0.7,2c0,0-0.1,0.9-1.4,0.9s-2-0.9-3.1-0.9
		s-1.5,1-2.8,0.8S4.3,12.8,4.3,12.7z"/>
</g>
<g id="layer1">
	<g id="g22880" transform="matrix(1.035194,0,0,1.035194,-2.593957,-0.944975)">
		
			<radialGradient id="circle7520_00000110456002523432072890000000304455324489952908_" cx="-557.5234" cy="-125.6377" r="5.7421" gradientTransform="matrix(-1.1768 0 0 -1.1768 -636.4968 -131.8951)" gradientUnits="userSpaceOnUse">
			<stop  offset="0" style="stop-color:#FF8E6B"/>
			<stop  offset="0.8258" style="stop-color:#A40E0A"/>
			<stop  offset="1" style="stop-color:#660D0B"/>
		</radialGradient>
		
			<circle id="circle7520" style="fill:url(#circle7520_00000110456002523432072890000000304455324489952908_);stroke:#470907;stroke-width:0.488;stroke-miterlimit:4.7072;" cx="20.9" cy="17.7" r="4.4">
		</circle>
		<g id="g7522" transform="matrix(1.1368,0,0,1.1368,-103.0794,-229.9835)">
			
				<radialGradient id="path7529_00000076582002427805479650000008473117970775056795_" cx="-398.7689" cy="92.894" r="6.9851" gradientTransform="matrix(-1.1768 0 0 -1.1768 -362.5199 324.3622)" gradientUnits="userSpaceOnUse">
				<stop  offset="0" style="stop-color:#FFFFFF"/>
				<stop  offset="1" style="stop-color:#A42522"/>
			</radialGradient>
			<path id="path7529" style="fill:url(#path7529_00000076582002427805479650000008473117970775056795_);" d="M109,214.2
				c-2.1,0-3.7,1.7-3.7,3.7s1.7,3.7,3.7,3.7c2.1,0,3.7-1.7,3.7-3.7S111.1,214.2,109,214.2z M109,221.4c-1.9,0-3.5-1.6-3.5-3.5
				c0-1.9,1.6-3.5,3.5-3.5c1.9,0,3.5,1.6,3.5,3.5C112.5,219.8,110.9,221.4,109,221.4z"/>
		</g>
	</g>
	
		<linearGradient id="path7565_00000060737363278986008770000007846575747908624539_" gradientUnits="userSpaceOnUse" x1="-135.992" y1="-130.7246" x2="-129.331" y2="-130.7246" gradientTransform="matrix(1.1768 0 0 -1.1768 170.0732 -138.849)">
		<stop  offset="2.810000e-02" style="stop-color:#84A8C9"/>
		<stop  offset="0.1081" style="stop-color:#88ABCB"/>
		<stop  offset="0.1909" style="stop-color:#95B5CE"/>
		<stop  offset="0.2528" style="stop-color:#A3C0D3"/>
		<stop  offset="0.2942" style="stop-color:#9CBBD0"/>
		<stop  offset="0.3548" style="stop-color:#88ACCA"/>
		<stop  offset="0.4271" style="stop-color:#6A94BE"/>
		<stop  offset="0.5079" style="stop-color:#4177AF"/>
		<stop  offset="0.5112" style="stop-color:#3F76AF"/>
		<stop  offset="0.736" style="stop-color:#224987"/>
		<stop  offset="0.8287" style="stop-color:#244D8A"/>
		<stop  offset="0.9236" style="stop-color:#2A5794"/>
		<stop  offset="1" style="stop-color:#3065A0"/>
	</linearGradient>
	<path id="path7565" style="fill:url(#path7565_00000060737363278986008770000007846575747908624539_);" d="M17.9,9.5v8.3l0,0
		c0,0.7-0.4,1.4-1.1,1.9c-1.5,1.1-4,1.1-5.5,0c-0.8-0.5-1.1-1.1-1.1-1.8V9.5"/>
	
		<radialGradient id="path7572_00000003816234717139094770000014211838145343861673_" cx="-570.6387" cy="-192.5596" r="7.9083" gradientTransform="matrix(-1.1768 0 0 -0.997 -660.7975 -183.128)" gradientUnits="userSpaceOnUse">
		<stop  offset="0" style="stop-color:#FFFFFF"/>
		<stop  offset="1" style="stop-color:#224987"/>
	</radialGradient>
	<path id="path7572" style="fill:url(#path7572_00000003816234717139094770000014211838145343861673_);" d="M11.2,8.5
		c-1.5,0.7-1.5,2,0,2.7c1.5,0.7,4,0.7,5.5,0c1.5-0.7,1.5-2,0-2.7C15.2,7.7,12.7,7.7,11.2,8.5z"/>
	<g id="g7574" transform="matrix(1.176809,0,0,1.176809,-105.9003,-239.2776)">
		
			<radialGradient id="path7581_00000088098637419198714820000010859449422320139687_" cx="-395.2507" cy="95.1826" r="8.175" gradientTransform="matrix(-1.1768 0 0 -1.1768 -365.6267 324.6174)" gradientUnits="userSpaceOnUse">
			<stop  offset="0" style="stop-color:#FFFFFF"/>
			<stop  offset="1" style="stop-color:#3065A0"/>
		</radialGradient>
		<path id="path7581" style="fill:url(#path7581_00000088098637419198714820000010859449422320139687_);" d="M105,211.9v6.5
			c0,0.6-0.3,1.1-0.9,1.5c-1.2,0.9-3.2,0.9-4.5,0c-0.6-0.4-0.9-0.8-0.9-1.4v-6.6l0.4,0.2v6.4c0,0.5,0.2,0.7,0.7,1.1
			c1.1,0.8,3,0.8,4.2,0c0.5-0.3,0.7-0.7,0.7-1.2v-6.3L105,211.9z"/>
	</g>
	<g id="g7583" transform="matrix(1.176809,0,0,1.176809,-105.9003,-238.7848)">
		
			<radialGradient id="path7600_00000055689579579620069330000011156912619343107515_" cx="138.9039" cy="38.3359" r="12.4452" gradientTransform="matrix(1.1768 0 0 -0.997 -63.0806 250.0121)" gradientUnits="userSpaceOnUse">
			<stop  offset="0" style="stop-color:#FFFFFF"/>
			<stop  offset="6.610000e-02" style="stop-color:#F4F7FA"/>
			<stop  offset="0.1822" style="stop-color:#D7E1EC"/>
			<stop  offset="0.3348" style="stop-color:#A7BDD7"/>
			<stop  offset="0.5157" style="stop-color:#668DB9"/>
			<stop  offset="0.6517" style="stop-color:#3065A0"/>
			<stop  offset="0.9157" style="stop-color:#1A3A6B"/>
		</radialGradient>
		<path id="path7600" style="fill:url(#path7600_00000055689579579620069330000011156912619343107515_);" d="M99.5,210.2
			c-0.6,0.3-1,0.7-1,1.2l0,0c0,0.5,0.4,0.9,1,1.2c1.3,0.6,3.4,0.6,4.6,0c0.6-0.3,1-0.7,1-1.2c0-0.5-0.4-0.9-1-1.2
			C102.9,209.6,100.8,209.6,99.5,210.2z M99.8,212.4c-0.5-0.3-0.8-0.6-0.8-1c0-0.4,0.3-0.7,0.8-1l0,0c1.1-0.6,3-0.6,4.1,0
			c0.5,0.3,0.8,0.6,0.8,1s-0.3,0.7-0.8,1C102.8,212.9,100.9,212.9,99.8,212.4z M99.5,210.2L99.5,210.2L99.5,210.2z"/>
	</g>
	<path id="path7602" class="st20" d="M17.9,9.8l0,8c0,0.7-0.4,1.4-1.1,1.9c-1.5,1.1-4,1.1-5.5,0c-0.8-0.5-1.1-1.1-1.1-1.8l0,0l0-8.1
		c0-0.5,0.4-1,1.1-1.4c1.5-0.7,4-0.7,5.5,0C17.5,8.8,17.9,9.3,17.9,9.8z"/>
	<g id="g22865" transform="matrix(1.035194,0,0,1.035194,-0.893527,-1.965233)">
		
			<linearGradient id="path7627_00000137814189475926913280000017462471824384480929_" gradientUnits="userSpaceOnUse" x1="54.4701" y1="-127.6317" x2="60.1963" y2="-127.4803" gradientTransform="matrix(1.1768 0 0 -1.1768 -55.4179 -130.7353)">
			<stop  offset="0" style="stop-color:#FFFFFF"/>
			<stop  offset="7.810000e-02" style="stop-color:#FEFDEC"/>
			<stop  offset="0.2364" style="stop-color:#FCF7BB"/>
			<stop  offset="0.4586" style="stop-color:#F8ED6D"/>
			<stop  offset="0.5393" style="stop-color:#F6E94F"/>
			<stop  offset="0.641" style="stop-color:#F5E84A"/>
			<stop  offset="0.7553" style="stop-color:#F3E43E"/>
			<stop  offset="0.8757" style="stop-color:#F0DD29"/>
			<stop  offset="0.9996" style="stop-color:#EBD30F"/>
			<stop  offset="1" style="stop-color:#EBD30F"/>
		</linearGradient>
		<path id="path7627" style="fill:url(#path7627_00000137814189475926913280000017462471824384480929_);" d="M16.7,22.3
			c0,1.3-1.6,2.3-4.7,2.3c-2.7,0-4.5-1-4.5-2.3c0-0.1,0-0.1,0-0.1l4.5-7.9c0.1-0.1,0.1-0.1,0.2,0l4.5,7.9
			C16.6,22.2,16.7,22.2,16.7,22.3z"/>
		
			<linearGradient id="path7641_00000049932451613166324260000013560944393090102192_" gradientUnits="userSpaceOnUse" x1="55.9552" y1="-127.2927" x2="55.0742" y2="-126.8331" gradientTransform="matrix(1.1768 0 0 -1.1768 -55.4179 -130.7353)">
			<stop  offset="0" style="stop-color:#EFEEEC"/>
			<stop  offset="1" style="stop-color:#F6E94F"/>
		</linearGradient>
		
			<path id="path7641" style="fill:url(#path7641_00000049932451613166324260000013560944393090102192_);enable-background:new    ;" d="
			M12.1,14.2L9,24.1c-1.3-0.4-1.7-1.5-1.6-1.9L12.1,14.2L12.1,14.2z"/>
		<path id="path7643" class="st23" d="M16.5,21.9c0.1,0.2,0.1,0.4,0.1,0.5c0,1.2-2.1,2.1-4.6,2.1c-2.5,0-4.6-0.9-4.6-2.1
			c0-0.2,0.1-0.4,0.2-0.6l4.4-7.7L16.5,21.9z"/>
		<g id="g7645" transform="matrix(1.1368,0,0,1.1368,-103.0794,-229.9835)">
			
				<linearGradient id="path7662_00000152976762681849454490000002514993379539582087_" gradientUnits="userSpaceOnUse" x1="139.1363" y1="91.1226" x2="143.2714" y2="85.2826" gradientTransform="matrix(1.1768 0 0 -1.1768 -64.7811 325.3825)">
				<stop  offset="0" style="stop-color:#FAFAFA"/>
				<stop  offset="0.5787" style="stop-color:#F6E94F"/>
				<stop  offset="0.693" style="stop-color:#F3E54B"/>
				<stop  offset="0.7933" style="stop-color:#EAD740"/>
				<stop  offset="0.8883" style="stop-color:#DBC32F"/>
				<stop  offset="0.9796" style="stop-color:#C8A61A"/>
				<stop  offset="1" style="stop-color:#C3A016"/>
			</linearGradient>
			<path id="path7662" style="fill:url(#path7662_00000152976762681849454490000002514993379539582087_);" d="M101.2,215.1l-3.7,6.5
				c-0.1,0.2-0.2,0.3-0.2,0.5c0,1,1.8,1.7,3.9,1.7s3.9-0.8,3.9-1.7c0-0.1,0-0.3-0.1-0.4c0,0-3.8-6.7-3.8-6.7L101.2,215.1z
				 M97.6,222.1c0-0.1,0-0.3,0.1-0.4l0,0c0,0,3.4-6,3.6-6.3c0.2,0.3,3.6,6.4,3.6,6.4c0.1,0.1,0.1,0.2,0.1,0.3c0,0.8-1.7,1.5-3.7,1.5
				C99.3,223.6,97.6,222.9,97.6,222.1z"/>
		</g>
	</g>
</g>
</svg>
