<?xml version="1.0" encoding="utf-8"?>
<!-- Generator: Adobe Illustrator 27.9.0, SVG Export Plug-In . SVG Version: 6.00 Build 0)  -->
<svg version="1.1" id="SVGRoot" xmlns="http://www.w3.org/2000/svg" xmlns:xlink="http://www.w3.org/1999/xlink" x="0px" y="0px"
	 viewBox="0 0 48 48" style="enable-background:new 0 0 48 48;" xml:space="preserve">
<style type="text/css">
	.st0{fill-rule:evenodd;clip-rule:evenodd;fill:#EC1C24;}
	.st1{fill-rule:evenodd;clip-rule:evenodd;fill:#C83E40;}
	.st2{fill-rule:evenodd;clip-rule:evenodd;fill:#D34844;}
	.st3{fill-rule:evenodd;clip-rule:evenodd;fill:#F6A399;}
	.st4{fill-rule:evenodd;clip-rule:evenodd;fill:#E58A8D;}
	.st5{fill-rule:evenodd;clip-rule:evenodd;fill:#E75C59;}
	.st6{fill-rule:evenodd;clip-rule:evenodd;fill:#EB605A;}
	.st7{fill-rule:evenodd;clip-rule:evenodd;fill:#D62027;}
	.st8{fill-rule:evenodd;clip-rule:evenodd;fill:#DC2326;}
	.st9{fill-rule:evenodd;clip-rule:evenodd;fill:#EA6059;}
	.st10{fill-rule:evenodd;clip-rule:evenodd;fill:#EF4643;}
	.st11{fill-rule:evenodd;clip-rule:evenodd;fill:#E6323B;}
</style>
<g id="Capa_1">
	<path class="st0" d="M24,22.9c-0.6-0.2-6.2-3.7-7.2-4.3c-0.8-0.5-1.6-1-2.4-1.4c-0.8,0.3-1.8,0.9-2.6,1.3c-1.2,0.6-7.8,3.9-8,4.1
		c0.4,0.3,8.8,5.4,9.9,6.2h0.1c0.4-0.2,0.9-0.4,1.3-0.7l1.2-0.7l6.4-3.7C23.1,23.5,23.5,23.2,24,22.9c1.5,0.7,9.6,5.8,10.3,5.9
		c0.4-0.2,6.7-4.1,7.5-4.6l2.5-1.6l0,0l-10.7-5.5h-0.2c0,0.1,0,0-0.1,0.1l-0.2,0.1L32.3,18C30.3,19.2,25.7,22.1,24,22.9z"/>
	<path class="st1" d="M24,35.2v12.2c0.1,0.1,0.2-0.1,0.5-0.3l3.2-2c1.7-1,4.8-3,6.4-4c0.4-0.3,0.8-0.5,1.3-0.8
		c0.2-0.2,0.4-0.2,0.6-0.4l3.2-2c0.4-0.3,0.8-0.5,1.3-0.8s0.8-0.5,1.3-0.8c0.2-0.1,2.3-1.4,2.6-1.6c-0.4-0.2-0.9-0.5-1.3-0.8
		l-1.2-0.7c-0.7-0.4-7.1-4.2-7.5-4.3c-0.5,0.2-0.9,0.5-1.3,0.8c-0.5,0.3-0.8,0.5-1.3,0.8C31.1,30.9,24.4,35.1,24,35.2L24,35.2z"/>
	<path class="st2" d="M3.7,34.7c0,0,0.1,0.1,0.1,0.1L4,34.9l7.3,4.6c2.4,1.5,5.3,3.2,7.6,4.8c0.4,0.3,0.9,0.5,1.3,0.8
		c0.2,0.1,0.4,0.2,0.6,0.4l2.6,1.6c0.2,0.2,0.4,0.3,0.7,0.4V35.2c-0.5-0.2-6.9-4.3-7.7-4.8c-0.5-0.3-2.2-1.3-2.5-1.6h-0.1
		c-0.3,0.3-4.2,2.5-5,3S7,32.8,6.2,33.3S4.4,34.4,3.7,34.7L3.7,34.7z"/>
	<path class="st3" d="M24,12.3l9.5,4.9h0.2l10.7-6.5c-0.2-0.2-14.2-7-15.2-7.6c-0.7-0.4-4.7-2.4-5.1-2.5V12.3z"/>
	<path class="st4" d="M3.7,10.7C4,10.9,8.6,13.7,9.1,14c0.7,0.4,5,3,5.3,3.2c0.5-0.1,4.1-2,4.8-2.4s1.5-0.8,2.3-1.2s1.7-0.9,2.4-1.2
		l0.1-0.1V0.6c-0.4,0.1-4.6,2.3-5.1,2.5l-10.2,5C7.9,8.6,7,9.1,6.2,9.4C5.4,9.8,4.5,10.2,3.7,10.7L3.7,10.7z"/>
	<path class="st5" d="M3.7,34.7c0.8-0.3,1.8-1,2.5-1.4s1.7-1,2.5-1.5s4.7-2.6,5-3c-1.2-0.7-9.5-5.8-9.9-6.1c0.2-0.2,6.8-3.5,8-4.1
		c0.8-0.4,1.8-1,2.6-1.3v-0.1c-0.3-0.3-4.6-2.8-5.3-3.2c-0.5-0.3-5-3.1-5.4-3.2L3.7,34.7L3.7,34.7z"/>
	<polygon class="st6" points="33.6,17.2 44.3,22.6 44.3,10.7 	"/>
	<path class="st7" d="M24,35.2c0.4-0.1,7.1-4.3,7.7-4.7c0.4-0.3,0.8-0.5,1.3-0.8c0.4-0.3,0.9-0.6,1.3-0.8v-0.1
		c-0.6-0.1-8.8-5.2-10.3-5.9L24,35.2L24,35.2z"/>
	<path class="st8" d="M13.8,28.9c0.4,0.3,2,1.3,2.5,1.6c0.8,0.5,7.2,4.5,7.7,4.7V23c-0.5,0.2-0.9,0.5-1.3,0.8l-6.4,3.7
		c-0.4,0.2-0.8,0.5-1.2,0.7C14.7,28.4,14.2,28.7,13.8,28.9z"/>
	<path class="st9" d="M34.3,28.9L34.3,28.9c0.4,0.2,6.8,4,7.5,4.4L43,34c0.4,0.3,0.8,0.5,1.3,0.7v-12l-2.5,1.6
		C40.9,24.8,34.7,28.7,34.3,28.9L34.3,28.9z"/>
	<path class="st10" d="M24,22.9c1.6-0.9,6.2-3.8,8.2-5l0.9-0.5l0.2-0.1c0.1,0,0.1-0.1,0.1-0.1L24,12.3l-0.1,0.1
		C24.2,12.8,23.8,21.5,24,22.9z"/>
	<path class="st11" d="M14.4,17.2L14.4,17.2c0.9,0.4,1.7,0.9,2.4,1.4c1,0.6,6.7,4.1,7.2,4.3c-0.2-1.5,0.1-10.1-0.1-10.5
		c-0.7,0.3-1.7,0.8-2.4,1.2s-1.5,0.8-2.3,1.2S14.8,17.1,14.4,17.2z"/>
</g>
</svg>
