<?xml version="1.0" encoding="utf-8"?>
<!-- Generator: Adobe Illustrator 27.9.0, SVG Export Plug-In . SVG Version: 6.00 Build 0)  -->
<svg version="1.1"
	 id="svg1872" xmlns:inkscape="http://www.inkscape.org/namespaces/inkscape" xmlns:dc="http://purl.org/dc/elements/1.1/" xmlns:svg="http://www.w3.org/2000/svg" xmlns:sodipodi="http://sodipodi.sourceforge.net/DTD/sodipodi-0.dtd" xmlns:cc="http://creativecommons.org/ns#" xmlns:rdf="http://www.w3.org/1999/02/22-rdf-syntax-ns#"
	 xmlns="http://www.w3.org/2000/svg" xmlns:xlink="http://www.w3.org/1999/xlink" x="0px" y="0px" viewBox="0 0 64 64"
	 style="enable-background:new 0 0 64 64;" xml:space="preserve">
<style type="text/css">
	.st0{opacity:0.6;}
	.st1{fill:#EEEEEC;stroke:url(#path20_00000135671911019453339550000006625032771839302785_);stroke-width:4.7983;}
	.st2{fill:#BFBFBF;}
	.st3{fill:#666666;}
	.st4{fill:none;stroke:#FFFFFF;stroke-width:5;stroke-miterlimit:10;}
	.st5{fill:#424242;}
	.st6{fill:#EEEEEC;stroke:url(#path20_00000034791047518867666210000010968087331215628678_);stroke-width:3.2635;}
	.st7{fill:#35B2FF;}
	.st8{fill:#6AFFBE;}
	.st9{fill:none;stroke:#FFFFFF;stroke-width:3.4007;stroke-miterlimit:10;}
</style>
<sodipodi:namedview  bordercolor="#666666" borderopacity="1.0" id="base" inkscape:current-layer="layer1" inkscape:cx="7.0545137" inkscape:cy="7.1899914" inkscape:deskcolor="#d1d1d1" inkscape:document-units="px" inkscape:grid-bbox="true" inkscape:pagecheckerboard="0" inkscape:pageopacity="0.0" inkscape:pageshadow="2" inkscape:showpageshadow="2" inkscape:window-height="1378" inkscape:window-maximized="1" inkscape:window-width="2560" inkscape:window-x="-6" inkscape:window-y="-6" inkscape:zoom="51.669047" pagecolor="#ffffff" showgrid="true">
	<inkscape:grid  id="grid1" type="xygrid"></inkscape:grid>
</sodipodi:namedview>
<g id="layer1_00000081621703012131075870000015550391110058867626_" inkscape:groupmode="layer" inkscape:label="Layer 1" class="st0">
	
		<linearGradient id="path20_00000127722951363843360390000003577721856217121199_" gradientUnits="userSpaceOnUse" x1="5813.9512" y1="-5730.3438" x2="5813.9512" y2="-5730.3438" gradientTransform="matrix(0.2077 0 0 -0.211 -1150.266 -1161.4026)">
		<stop  offset="0" style="stop-color:#595959"/>
		<stop  offset="1" style="stop-color:#161719"/>
	</linearGradient>
	
		<path id="path20_00000021100653247134963590000007272634856841326978_" inkscape:connector-curvature="0" style="fill:#EEEEEC;stroke:url(#path20_00000127722951363843360390000003577721856217121199_);stroke-width:4.7983;" d="
		M57.3,47.7"/>
	<path inkscape:connector-curvature="0" class="st2" d="M56.4,55.2H8.6c-1.4,0-2.4-1.2-2.4-2.6V11c0-1.4,1.1-2.6,2.4-2.6h47.8
		c1.4,0,2.4,1.2,2.4,2.6v41.6c0,0.3-0.1,1.2-0.7,1.9C57.5,55.3,56.6,55.2,56.4,55.2z"/>
	<path class="st3" d="M56.4,41.9c-7.5-8.2-15.1-16.5-22.6-24.7c-5.3,7.7-10.7,15.3-16,23c-4.7-3.9-9.4-7.9-14-11.8
		c0.2,8.4,0.4,16.9,0.7,25.3l51.1,1.6l2.9-8.5L56.4,41.9z"/>
	<path inkscape:connector-curvature="0" class="st4" d="M56.4,55.2H8.6c-1.4,0-2.4-1.2-2.4-2.6V11c0-1.4,1.1-2.6,2.4-2.6h47.8
		c1.4,0,2.4,1.2,2.4,2.6v41.6c0,0.3-0.1,1.2-0.7,1.9C57.5,55.3,56.6,55.2,56.4,55.2z"/>
	<rect x="8.7" y="44.2" class="st5" width="47.6" height="8.6"/>
</g>
<g id="layer1" inkscape:groupmode="layer" inkscape:label="Layer 1">
	
		<linearGradient id="path20_00000128453990468877901170000000754997230385548969_" gradientUnits="userSpaceOnUse" x1="5730.0073" y1="-5741.6938" x2="5730.0073" y2="-5741.6938" gradientTransform="matrix(0.2077 0 0 -0.211 -1150.266 -1161.4026)">
		<stop  offset="0" style="stop-color:#595959"/>
		<stop  offset="1" style="stop-color:#161719"/>
	</linearGradient>
	
		<path id="path20_00000163763660450119608110000006952686756412433566_" inkscape:connector-curvature="0" style="fill:#EEEEEC;stroke:url(#path20_00000128453990468877901170000000754997230385548969_);stroke-width:3.2635;" d="
		M39.9,50.1"/>
	<path inkscape:connector-curvature="0" class="st7" d="M39.3,55.2H6.7c-0.9,0-1.7-0.8-1.7-1.8V25.1c0-1,0.7-1.8,1.7-1.8h32.5
		c0.9,0,1.7,0.8,1.7,1.8v28.3c0,0.2-0.1,0.8-0.5,1.3C40,55.3,39.4,55.2,39.3,55.2z"/>
	<path class="st8" d="M39.3,46.1C34.1,40.5,29,34.9,23.9,29.3c-3.6,5.2-7.3,10.4-10.9,15.6c-3.2-2.7-6.4-5.4-9.5-8.1
		c0.1,5.7,0.3,11.5,0.5,17.2l34.8,1.1l2-5.8L39.3,46.1z"/>
	<path inkscape:connector-curvature="0" class="st9" d="M39.3,55.2H6.7c-0.9,0-1.7-0.8-1.7-1.8V25.1c0-1,0.7-1.8,1.7-1.8h32.5
		c0.9,0,1.7,0.8,1.7,1.8v28.3c0,0.2-0.1,0.8-0.5,1.3C40,55.3,39.4,55.2,39.3,55.2z"/>
	<rect x="6.8" y="47.7" class="st5" width="32.4" height="5.9"/>
</g>
</svg>
