<?xml version="1.0" encoding="utf-8"?>
<!-- Generator: Adobe Illustrator 27.9.0, SVG Export Plug-In . SVG Version: 6.00 Build 0)  -->
<svg version="1.1" id="Layer_1" xmlns="http://www.w3.org/2000/svg" xmlns:xlink="http://www.w3.org/1999/xlink" x="0px" y="0px"
	 viewBox="0 0 1024 1024" style="enable-background:new 0 0 1024 1024;" xml:space="preserve">
<style type="text/css">
	.st0{fill:#CCCCCC;}
	.st1{fill:#FFFFFF;}
</style>
<path class="st0" d="M185.2,838.9c-20.9-21-38.2-52.5-50-105.8C123,679,117.9,607.6,117.9,512c0-2.8,0-5.6,0-8.3
	c-10.2-3.2-20.3-6.6-30.4-9.9c-16-5.2-31.9-9.2-48.3-12.2c-0.1,9.9-0.2,20.1-0.2,30.5c0,348.9,67,452.2,360.7,470
	c0-26.3,1.2-52.6,4-78.8c-44.3-2.7-81.5-7.4-112.8-14.3C237.7,877.1,206.1,859.7,185.2,838.9z"/>
<path class="st0" d="M838.8,185.1c20.9,21,38.2,52.5,50,105.8C901,345,906.1,416.4,906.1,512c0,8.5,0,16.8-0.1,25
	c20.5-2.2,40.9-4.7,61.2-8.1c5.8-1,11.8-2,17.8-3c0-4.6,0-9.2,0-13.9c0-386.3-82.1-471.6-463.2-473c-4.6,26.1-7.6,52.4-9.5,78.9
	c95.2,0,166.8,5.3,220.8,17.2C786.3,146.9,817.9,164.3,838.8,185.1z"/>
<g>
	<path class="st1" d="M905.7,966l-56-157.5h-242L550.9,966h-94.2l212.8-563.6h121.8L1002.4,966H905.7z M636.1,729.6h186l-87.7-244.4
		h-9.7L636.1,729.6z"/>
</g>
<path class="st1" d="M274.2,640.7V459.5H62.5V165.7h211.7v-117l77.7,3.2v113.7h209.8v293.8H351.9v181.2H274.2z M484.6,385.6V240.8
	H351.9v144.7H484.6z M274.2,385.6V240.8H140.2v144.7H274.2z"/>
</svg>
