<?xml version="1.0" encoding="utf-8"?>
<!-- Generator: Adobe Illustrator 27.9.0, SVG Export Plug-In . SVG Version: 6.00 Build 0)  -->
<svg version="1.1"
	 id="SVGRoot" xmlns:inkscape="http://www.inkscape.org/namespaces/inkscape" xmlns:sodipodi="http://sodipodi.sourceforge.net/DTD/sodipodi-0.dtd" xmlns:svg="http://www.w3.org/2000/svg"
	 xmlns="http://www.w3.org/2000/svg" xmlns:xlink="http://www.w3.org/1999/xlink" x="0px" y="0px" viewBox="0 0 16 16"
	 style="enable-background:new 0 0 16 16;" xml:space="preserve">
<style type="text/css">
	.st0{fill:#60C900;stroke:#B5B5B5;stroke-linecap:round;stroke-miterlimit:10;}
	.st1{fill:#FFFFFF;stroke:#B5B5B5;stroke-linecap:round;stroke-linejoin:round;stroke-miterlimit:10;}
	.st2{fill:none;stroke:#FFFFFF;stroke-linecap:round;stroke-miterlimit:10;}
</style>
<sodipodi:namedview  bordercolor="#666666" borderopacity="1.0" id="namedview15790" inkscape:current-layer="layer1" inkscape:cx="6.7446268" inkscape:cy="8.918719" inkscape:document-units="px" inkscape:lockguides="false" inkscape:pagecheckerboard="0" inkscape:pageopacity="0.0" inkscape:pageshadow="2" inkscape:snap-global="false" inkscape:window-height="1557" inkscape:window-maximized="1" inkscape:window-width="2880" inkscape:window-x="-8" inkscape:window-y="-8" inkscape:zoom="60.714997" pagecolor="#ffffff" showgrid="true">
	<inkscape:grid  id="grid15853" type="xygrid"></inkscape:grid>
</sodipodi:namedview>
<path class="st0" d="M10.2,3.9h-8c-0.8,0-1.5,0.7-1.5,1.6v5c0,0.9,0.7,1.6,1.5,1.6h8c0.8,0,1.5-0.7,1.5-1.6v-5
	C11.7,4.6,11,3.9,10.2,3.9z"/>
<path class="st1" d="M12,6.9l2.4-1.3c0.4-0.2,0.9,0.1,0.9,0.5v3.8c0,0.5-0.5,0.7-0.9,0.5L12,9.1c-0.2-0.1-0.3-0.3-0.3-0.5V7.4
	C11.7,7.2,11.8,7,12,6.9z"/>
<line class="st2" x1="2.8" y1="6.3" x2="4.4" y2="6.3"/>
</svg>
