<?xml version="1.0" encoding="utf-8"?>
<!-- Generator: Adobe Illustrator 27.9.0, SVG Export Plug-In . SVG Version: 6.00 Build 0)  -->
<svg version="1.1" id="Layer_1" xmlns="http://www.w3.org/2000/svg" xmlns:xlink="http://www.w3.org/1999/xlink" x="0px" y="0px"
	 viewBox="0 0 24 24" style="enable-background:new 0 0 24 24;" xml:space="preserve">
<style type="text/css">
	.st0{fill:#E6E6E6;}
	.st1{fill:#CCCCCC;}
</style>
<path class="st0" d="M4.4,21.4c-2.2,0-4.1-1.8-4.1-4.1V7.5c0-2.1,1.7-3.8,3.8-3.8h15.6c1,0,2,0.4,2.7,1.1c0.7,0.7,1.1,1.7,1.1,2.7
	v9.8c0,2.2-1.8,4.1-4.1,4.1H4.4z M4.3,5.6c-1,0-1.9,0.8-1.9,1.9v10c0,1.1,0.9,2.1,2.1,2.1h15c1.1,0,2.1-0.9,2.1-2.1l0-10
	c0-1-0.8-1.9-1.9-1.9H4.3z"/>
<g>
	<path class="st1" d="M10.1,5.4c-0.3,0-0.5-0.1-0.7-0.3l-3-3C6.2,1.9,6.1,1.7,6.1,1.4s0.1-0.5,0.3-0.7l0.1-0.1
		c0.2-0.2,0.4-0.3,0.7-0.3c0.3,0,0.5,0.1,0.7,0.3l3,3c0.2,0.2,0.3,0.4,0.3,0.7c0,0.3-0.1,0.5-0.3,0.7l-0.1,0.1
		C10.6,5.3,10.3,5.4,10.1,5.4z"/>
	<path class="st1" d="M13.9,5.4c-0.3,0-0.5-0.1-0.7-0.3L13.2,5c-0.4-0.4-0.4-1,0-1.4l3-3c0.2-0.2,0.4-0.3,0.7-0.3
		c0.3,0,0.5,0.1,0.7,0.3l0.1,0.1c0.4,0.4,0.4,1,0,1.4l-3,3C14.4,5.3,14.2,5.4,13.9,5.4z"/>
</g>
<g>
	<path class="st0" d="M5.2,12.3c-0.2,0-0.5-0.2-0.5-0.4l-0.2-1.2c0-0.1,0-0.3,0.1-0.4c0.1-0.1,0.2-0.2,0.3-0.2L9,9.3c0,0,0,0,0,0
		c0.3,0,0.5,0.2,0.6,0.4l0.2,1.2c0,0.1,0,0.3-0.1,0.4c-0.1,0.1-0.2,0.2-0.3,0.2L5.2,12.3L5.2,12.3z"/>
	<path class="st0" d="M18.8,12.3l-4.2-0.7c-0.1,0-0.3-0.1-0.3-0.2c-0.1-0.1-0.1-0.2-0.1-0.4l0.2-1.2c0-0.2,0.3-0.4,0.5-0.4l4.3,0.7
		c0.1,0,0.3,0.1,0.3,0.2c0.1,0.1,0.1,0.2,0.1,0.4l-0.2,1.2C19.3,12.1,19.1,12.3,18.8,12.3L18.8,12.3z"/>
</g>
<path class="st1" d="M13.3,16.7c-0.1,0-0.3,0-0.4,0c-0.4-0.1-0.7-0.3-0.9-0.5c-0.2,0.3-0.5,0.4-0.9,0.5c-0.1,0-0.3,0-0.4,0
	c-0.7,0-1.4-0.4-1.9-1.2c-0.1-0.1,0-0.3,0.1-0.4l0.6-0.4l0.1,0c0.1,0,0.2,0.1,0.3,0.1c0.1,0.1,0.3,0.5,0.7,0.5h0
	c0.3,0,0.5-0.2,0.7-0.4c0.2-0.2,0.4-0.4,0.4-0.6c0.1-0.1,0.2-0.2,0.3-0.2c0.1,0,0.2,0.1,0.3,0.2c0.1,0.2,0.2,0.4,0.4,0.6
	c0.2,0.2,0.4,0.4,0.7,0.4c0.4,0,0.6-0.4,0.7-0.5c0.1-0.1,0.2-0.1,0.3-0.1h0.1l0.1,0l0.6,0.4c0.1,0.1,0.2,0.3,0.1,0.4
	C14.7,16.2,14,16.7,13.3,16.7z M11.9,16C11.9,16,11.9,16,11.9,16L11.9,16z"/>
</svg>
