<?xml version="1.0" encoding="utf-8"?>
<!-- Generator: Adobe Illustrator 25.0.1, SVG Export Plug-In . SVG Version: 6.00 Build 0)  -->
<svg version="1.1" id="Layer_1" xmlns="http://www.w3.org/2000/svg" xmlns:xlink="http://www.w3.org/1999/xlink" x="0px" y="0px"
	 viewBox="0 0 24 24" style="enable-background:new 0 0 24 24;" xml:space="preserve">
<style type="text/css">
	.st0{fill:url(#Rectangle-24_1_);stroke:#C9C9C9;stroke-width:1.52;}
	.st1{fill:#87D0CC;}
	.st2{fill:#F8E81C;}
	.st3{fill:#EEEEEC;stroke:url(#SVGID_1_);stroke-width:2.0657;stroke-linecap:round;stroke-miterlimit:4.5174;}
	.st4{opacity:0.8;}
	
		.st5{opacity:0.8;fill-rule:evenodd;clip-rule:evenodd;fill:#EEEEEC;stroke:url(#path27984_2_);stroke-width:1.1082;stroke-linecap:round;stroke-miterlimit:4.5174;}
	
		.st6{fill-rule:evenodd;clip-rule:evenodd;fill:none;stroke:url(#path27984_3_);stroke-width:1.1082;stroke-linecap:round;stroke-miterlimit:4.5174;}
	.st7{opacity:0.7;fill:none;stroke:#2E3436;stroke-width:1.291;}
</style>
<radialGradient id="Rectangle-24_1_" cx="-1586.1245" cy="-1168.5107" r="10.62" gradientTransform="matrix(1.64 1.000000e-02 1.000000e-02 -1.57 2616.8711 -1812.233)" gradientUnits="userSpaceOnUse">
	<stop  offset="0" style="stop-color:#5C9AE6"/>
	<stop  offset="1" style="stop-color:#2171CE"/>
</radialGradient>
<path id="Rectangle-24" class="st0" d="M3.9,2.1h16.2c1,0,1.8,0.8,1.8,1.8v16.2c0,1-0.8,1.8-1.8,1.8H3.9c-1,0-1.8-0.8-1.8-1.8V3.9
	C2.1,2.9,2.9,2.1,3.9,2.1z"/>
<polygon id="Path" class="st1" points="15.8,6.2 21,12.3 21,18.9 2.9,18.9 2.9,16 7.1,11.3 9.2,13.7 "/>
<path id="path3129" class="st2" d="M10,7.7c0,1.5-1.2,2.8-2.8,2.8l0,0l0,0c-1.5,0-2.8-1.2-2.9-2.7c0,0,0,0,0-0.1l0,0
	c0-1.5,1.2-2.8,2.7-2.9l0,0l0,0C8.7,4.8,10,6,10,7.7C10,7.6,10,7.6,10,7.7L10,7.7z"/>
<linearGradient id="SVGID_1_" gradientUnits="userSpaceOnUse" x1="17.1703" y1="20.0516" x2="22.9328" y2="20.0516">
	<stop  offset="0" style="stop-color:#8B8E89"/>
	<stop  offset="1" style="stop-color:#3C3E3B"/>
</linearGradient>
<line class="st3" x1="18.2" y1="18.2" x2="21.9" y2="21.9"/>
<g id="layer1" class="st4">
	
		<linearGradient id="path27984_2_" gradientUnits="userSpaceOnUse" x1="-19.1647" y1="56.6423" x2="-19.1128" y2="52.2865" gradientTransform="matrix(1.1294 0 0 -1.1294 35.7017 78.6791)">
		<stop  offset="0" style="stop-color:#8B8E89"/>
		<stop  offset="1" style="stop-color:#3C3E3B"/>
	</linearGradient>
	<path id="path27984" class="st5" d="M19.2,14.1c0,2.8-2.3,5.1-5.1,5.1s-5.1-2.3-5.1-5.1s2.3-5.1,5.1-5.1S19.2,11.2,19.2,14.1z"/>
</g>
<g id="layer1_1_">
	
		<linearGradient id="path27984_3_" gradientUnits="userSpaceOnUse" x1="-19.1647" y1="56.6423" x2="-19.1128" y2="52.2865" gradientTransform="matrix(1.1294 0 0 -1.1294 35.7017 78.6791)">
		<stop  offset="0" style="stop-color:#8B8E89"/>
		<stop  offset="1" style="stop-color:#3C3E3B"/>
	</linearGradient>
	<path id="path27984_1_" class="st6" d="M19.2,14.1c0,2.8-2.3,5.1-5.1,5.1s-5.1-2.3-5.1-5.1s2.3-5.1,5.1-5.1S19.2,11.2,19.2,14.1z"
		/>
</g>
<path id="path3204" class="st7" d="M10.8,14h6.5"/>
<path id="path3206" class="st7" d="M14.1,10.8v6.5"/>
</svg>
