<?xml version="1.0" encoding="utf-8"?>
<!-- Generator: Adobe Illustrator 27.9.0, SVG Export Plug-In . SVG Version: 6.00 Build 0)  -->
<svg version="1.1" id="Layer_1" xmlns="http://www.w3.org/2000/svg" xmlns:xlink="http://www.w3.org/1999/xlink" x="0px" y="0px"
	 viewBox="0 0 24 24" style="enable-background:new 0 0 24 24;" xml:space="preserve">
<style type="text/css">
	.st0{fill:none;stroke:#7A7A7A;stroke-width:2.2;stroke-miterlimit:10;}
	.st1{fill:none;stroke:#FFA320;stroke-width:2.2;stroke-miterlimit:10;}
</style>
<g>
	<path class="st0" d="M21.9,3.2v17.5c0,0.6-0.5,1.1-1.1,1.1h-7.4c-0.6,0-1.1-0.5-1.1-1.1V3.2c0-0.6,0.5-1.1,1.1-1.1h7.4
		C21.4,2.1,21.9,2.6,21.9,3.2z"/>
	<path class="st1" d="M3.3,12.2h17.5c0.6,0,1.1,0.5,1.1,1.1v7.4c0,0.6-0.5,1.1-1.1,1.1H3.3c-0.6,0-1.2-0.5-1.2-1.1v-7.4
		C2.1,12.8,2.6,12.2,3.3,12.2z"/>
</g>
</svg>
