<?xml version="1.0" encoding="UTF-8"?>
<!DOCTYPE svg PUBLIC "-//W3C//DTD SVG 1.1//EN" "http://www.w3.org/Graphics/SVG/1.1/DTD/svg11.dtd">
<!-- Creator: CorelDRAW X5 -->
<svg xmlns="http://www.w3.org/2000/svg" xml:space="preserve" width="350mm" height="350mm" style="shape-rendering:geometricPrecision; text-rendering:geometricPrecision; image-rendering:optimizeQuality; fill-rule:evenodd; clip-rule:evenodd"
viewBox="0 0 35000 35000"
 xmlns:xlink="http://www.w3.org/1999/xlink">
 <defs>
  <style type="text/css">
   <![CDATA[
    .fil0 {fill:black}
    .fil1 {fill:#E6E6E6}
   ]]>
  </style>
 </defs>
 <g id="Capa_x0020_1">
  <metadata id="CorelCorpID_0Corel-Layer"/>
  <g id="_243481568">
   <path class="fil0" d="M16417 1667c-1009,1154 -1288,1482 -1870,2205 -2649,3284 -3845,5595 -4329,8354 -46,272 -106,681 -131,907l-42 413 -198 -127c-1446,-914 -2748,-2568 -3672,-4678 -85,-187 -166,-342 -183,-342 -39,0 -3034,1164 -3062,1189 -21,21 459,1439 871,2586 1023,2833 1986,4822 3073,6350 811,1136 1866,2215 3016,3069l413 310 -222 123c-843,473 -2046,790 -3443,910 -586,49 -1760,21 -2402,-53 -222,-28 -409,-46 -413,-46 -11,14 -504,3281 -497,3288 21,18 2596,512 3115,596 4995,833 7814,660 10869,-670 198,-85 370,-155 385,-155 39,0 -14,670 -88,1115 -261,1528 -1136,3369 -2335,4904 -21,28 381,370 1256,1069 706,564 1298,1027 1316,1027 39,0 1506,-1679 2113,-2417 2699,-3270 3969,-5535 4561,-8149 113,-494 233,-1245 272,-1683 14,-152 32,-275 39,-275 11,0 131,74 268,162 1429,924 2709,2586 3648,4734 102,236 116,254 194,222 314,-120 3009,-1175 3016,-1182 11,-11 -780,-2297 -995,-2879 -1143,-3083 -2148,-5052 -3376,-6611 -762,-967 -1669,-1845 -2667,-2575 -180,-131 -325,-250 -325,-265 0,-35 628,-342 988,-480 744,-289 1799,-487 2893,-547 748,-39 1214,-28 2021,56 289,32 533,49 543,39 21,-25 519,-3270 501,-3288 -46,-42 -3115,-607 -4124,-755 -4272,-639 -7034,-402 -9871,840 -180,81 -335,145 -346,145 -28,0 -14,-399 21,-706 198,-1616 949,-3355 2173,-5013 123,-169 226,-318 222,-335 0,-35 -2477,-2018 -2551,-2046 -32,-11 -275,243 -646,663l0 0zm2071 11610c1443,374 2600,1443 3069,2840 318,945 307,1916 -21,2840 -219,603 -561,1136 -1037,1616 -818,822 -1887,1266 -3037,1266 -727,0 -1277,-127 -1919,-437 -1221,-596 -2078,-1707 -2367,-3062 -88,-409 -88,-1277 -4,-1679 194,-889 575,-1591 1203,-2215 667,-663 1404,-1055 2325,-1231 409,-81 1365,-46 1789,64l0 0z"/>
  </g>
  <g id="_243481448">
   <path class="fil1" d="M4156 23277c-9,64 -19,128 -28,191 -55,358 -110,715 -164,1073 -54,358 -108,716 -161,1074 -10,66 -20,132 -31,199 67,13 134,25 199,38 343,67 686,133 1030,199 500,95 1004,195 1505,278 2843,469 5839,804 8664,52 678,-180 1337,-417 1981,-695 130,-56 406,-188 543,-188 272,0 405,218 413,453 2,68 -1,138 -4,206 -10,182 -27,365 -49,547 -15,126 -32,252 -53,376 -279,1656 -1197,3418 -2202,4798 46,38 90,74 127,105 280,234 565,463 851,691 284,227 569,453 855,677 53,42 109,87 165,132 67,-74 133,-148 200,-223 254,-286 505,-574 756,-864 301,-348 603,-698 895,-1054 1788,-2170 3501,-4502 4289,-7239 71,-246 135,-495 192,-745 118,-518 215,-1101 263,-1630 23,-257 37,-639 437,-639 165,0 349,139 485,226 1700,1095 2946,2986 3755,4812 752,-295 1816,-705 2393,-933 -21,-60 -42,-120 -62,-178 -110,-323 -222,-646 -334,-969 -157,-454 -314,-910 -481,-1361 -831,-2246 -1822,-4607 -3315,-6502 -742,-942 -1619,-1793 -2588,-2500 -84,-61 -167,-124 -247,-190 -128,-105 -242,-207 -242,-398 0,-264 209,-369 401,-469 141,-73 285,-142 430,-208 136,-62 274,-122 413,-176 918,-354 2037,-521 3015,-573 308,-16 615,-27 924,-22 389,6 775,38 1162,80 53,6 111,13 171,19 12,-79 23,-157 35,-231 56,-351 110,-702 164,-1054 54,-350 106,-701 157,-1052 11,-72 23,-148 35,-225 -143,-29 -287,-57 -431,-85 -471,-90 -942,-177 -1414,-261 -630,-113 -1265,-229 -1898,-322 -2605,-386 -5273,-571 -7838,151 -620,175 -1223,397 -1811,658 -126,56 -374,179 -508,179 -247,0 -392,-191 -411,-412 -4,-52 -5,-106 -4,-158 1,-131 9,-264 20,-394 5,-63 11,-126 19,-188 223,-1878 1141,-3694 2248,-5202 6,-9 13,-18 20,-27 -63,-51 -126,-100 -183,-147 -267,-218 -536,-435 -805,-651 -270,-216 -540,-432 -812,-645 -63,-50 -130,-105 -199,-159 -127,135 -250,273 -372,412 -636,724 -1254,1442 -1859,2192 -1680,2085 -3264,4324 -3975,6941 -110,405 -200,816 -271,1230 -50,289 -97,589 -127,880l-109 1061 -745 -479c-1724,-1108 -3000,-3008 -3822,-4852 -2,-4 -4,-8 -5,-12 -72,28 -144,57 -214,84 -330,126 -659,254 -989,381 -329,128 -658,256 -987,386 -66,26 -134,52 -202,78 41,128 84,256 126,383 143,427 291,854 441,1279 65,185 131,371 198,556 768,2130 1701,4401 3022,6254 801,1123 1828,2152 2931,2982l905 681 -761 423c-1057,587 -2410,857 -3603,959 -423,36 -871,32 -1295,21 -393,-10 -799,-28 -1189,-75 -11,-1 -21,-3 -32,-4zm14432 -10387c1565,405 2833,1566 3348,3100 343,1022 340,2087 -24,3102 -242,673 -626,1255 -1130,1763 -889,895 -2060,1384 -3321,1384 -777,0 -1395,-138 -2094,-478 -1346,-654 -2270,-1879 -2583,-3338 -103,-478 -106,-1369 -4,-1847 204,-953 621,-1728 1312,-2415 721,-717 1533,-1146 2530,-1340 487,-95 1484,-56 1965,69z"/>
  </g>
 </g>
</svg>
