<?xml version="1.0" encoding="utf-8"?>
<!-- Generator: Adobe Illustrator 27.9.0, SVG Export Plug-In . SVG Version: 6.00 Build 0)  -->
<svg version="1.1" id="Layer_1" xmlns="http://www.w3.org/2000/svg" xmlns:xlink="http://www.w3.org/1999/xlink" x="0px" y="0px"
	 viewBox="0 0 24 24" style="enable-background:new 0 0 24 24;" xml:space="preserve">
<style type="text/css">
	.st0{fill:#707070;}
	.st1{fill:#616161;}
	.st2{fill:#BABABA;}
	.st3{fill:#FFFFFF;}
</style>
<g id="path2020">
	<path class="st0" d="M18,22.5c-0.7,0-1.7-0.6-3.9-2.2c-0.8-0.5-1.8-1.2-2.2-1.4c-0.4,0.2-1.5,0.9-2.2,1.4c-2.2,1.4-3.3,2.1-3.9,2.1
		l0,0c-0.2,0-0.4-0.1-0.6-0.2c-0.7-0.5-0.5-1.4,0.5-4.9c0.3-0.9,0.6-2.1,0.7-2.5c-0.6-0.6-1.3-1.2-2-1.7c-2.8-2.3-3.4-2.9-3.2-3.7
		s1.2-0.9,4.8-1c0.9,0,1.8-0.1,2.6-0.2c0.2-0.4,0.7-1.6,1-2.4c1.3-3.3,1.7-4.2,2.5-4.2s1.2,0.9,2.5,4.2c0.3,0.8,0.6,1.6,1,2.4
		c0.9,0.1,1.7,0.2,2.6,0.2c3.6,0.2,4.5,0.3,4.8,1.1s-0.5,1.4-3.3,3.6c-0.7,0.6-1.7,1.3-2,1.7c0,0.4,0.4,1.7,0.6,2.6
		c0.9,3.5,1.1,4.4,0.4,4.9C18.4,22.4,18.2,22.5,18,22.5z"/>
	<path class="st1" d="M12.1,2.3L12.1,2.3c0.7,0,2.4,6.1,2.9,6.6s6.9,0.2,7.1,0.9s-5.1,4.1-5.3,4.8s1.9,6.7,1.3,7.1c0,0-0.1,0-0.1,0
		c-1,0-5.4-3.6-6.1-3.6l0,0c-0.7,0-5.2,3.5-6.2,3.5c0,0-0.1,0-0.1,0c-0.6-0.4,1.7-6.4,1.5-7s-5.5-4.3-5.2-5S8.4,9.2,9,8.8
		S11.4,2.3,12.1,2.3 M12.1,0.8c-1.4,0-2,1.5-3.2,4.7c-0.2,0.6-0.6,1.5-0.8,2c-0.6,0-1.5,0.1-2.2,0.1c-3.5,0.1-5,0.2-5.5,1.5
		s0.8,2.4,3.4,4.5c0.5,0.4,1.2,1,1.6,1.4c-0.1,0.5-0.4,1.4-0.6,2.1c-1,3.3-1.4,4.8-0.2,5.7c0.3,0.2,0.6,0.3,1,0.3
		c0.9,0,1.9-0.6,4.3-2.2c0.6-0.4,1.4-0.9,1.8-1.1c0.5,0.3,1.2,0.8,1.8,1.2c2.4,1.7,3.5,2.3,4.3,2.3c0.4,0,0.7-0.1,1-0.3
		c1.2-0.8,0.8-2.4-0.1-5.7c-0.2-0.6-0.4-1.6-0.5-2.1c0.4-0.4,1.1-0.9,1.7-1.3c2.7-2.1,4-3.1,3.5-4.5s-2-1.5-5.4-1.6
		c-0.7,0-1.6-0.1-2.1-0.2c-0.2-0.5-0.5-1.4-0.8-2C14.1,2.3,13.6,0.8,12.1,0.8L12.1,0.8L12.1,0.8z"/>
</g>
<g id="path2048">
	<path class="st2" d="M15.2,18.7L15,18.6l-0.3-0.2l-0.4-0.3l-1.2-0.8c-0.2-0.1-0.4-0.3-0.6-0.4l-0.2-0.1c-0.1,0-0.1-0.1-0.3-0.1l0,0
		c-0.2,0-0.3,0-0.3,0.1l-0.2,0.1c-0.2,0.1-0.4,0.2-0.6,0.4c-0.4,0.2-0.8,0.5-1.1,0.7l-0.5,0.3c-0.1,0.1-0.4,0.3-0.4,0.3l-1.8,1.1
		l0.6-2.1l0.1-0.5l0.1-0.5c0.2-0.5,0.3-1,0.4-1.4c0.1-0.3,0.1-0.5,0.2-0.7c0-0.1,0-0.1,0-0.2c0-0.1,0-0.1,0-0.3s-0.1-0.2-0.2-0.3
		l-0.2-0.1c-0.2-0.2-0.3-0.3-0.6-0.5l-1.1-0.9l-0.5-0.4l-0.4-0.3l-1.6-1.4L6.1,10h0.3H7h1.4l0.8-0.1h0.2c0.1,0,0.1,0,0.3-0.1
		s0.2-0.2,0.2-0.2C10,9.5,10,9.4,10,9.3c0.1-0.2,0.2-0.4,0.3-0.7s0.3-0.8,0.5-1.3l0.2-0.6l0.2-0.5l0.8-2l0.8,2L13,6.8l0.2,0.6
		c0.2,0.5,0.3,0.9,0.5,1.3s0.2,0.5,0.3,0.7l0.1,0.2c0,0.1,0,0.1,0.2,0.2s0.2,0.1,0.3,0.1h0.2l0.7,0.1l1.5,0.1h0.5h0.5l2.1,0.1
		L18.1,12l-0.4,0.3c-0.4,0.3-0.8,0.6-1.2,0.9c-0.2,0.2-0.4,0.3-0.6,0.5l-0.2,0.1c-0.1,0.1-0.1,0.1-0.2,0.3s-0.1,0.3-0.1,0.4
		c0,0.1,0,0.1,0.1,0.2c0,0.2,0.1,0.5,0.1,0.7c0.1,0.4,0.2,0.9,0.4,1.4l0.1,0.5l0.1,0.5l0.6,2.1L15.2,18.7z"/>
	<path class="st3" d="M12,6.5c0.1,0.2,0.1,0.3,0.2,0.5c0.2,0.7,0.5,1.3,0.7,1.9c0.1,0.3,0.2,0.5,0.3,0.8c0.1,0.3,0.3,0.6,0.6,0.8
		c0.3,0.2,0.6,0.3,0.9,0.3c0.2,0,0.5,0.1,0.8,0.1l2,0.1L18,11l-0.4,0.3c-0.5,0.4-1.1,0.9-1.6,1.2c-0.2,0.2-0.4,0.4-0.6,0.5
		c-0.3,0.2-0.5,0.5-0.6,0.8c-0.1,0.3-0.1,0.6,0,0.9c0,0.3,0.1,0.5,0.2,0.8c0.1,0.6,0.3,1.3,0.5,1.9c0.1,0.2,0.1,0.3,0.1,0.5
		l-0.4-0.3c-0.6-0.4-1.2-0.8-1.7-1.1c-0.2-0.2-0.5-0.3-0.7-0.4C12.6,16,12.3,15.9,12,16l0,0c-0.3,0-0.6,0.1-0.9,0.3
		c-0.2,0.1-0.5,0.2-0.7,0.4c-0.5,0.3-1.1,0.7-1.7,1.1L8.3,18c0.1-0.2,0.1-0.3,0.1-0.5c0.2-0.7,0.4-1.3,0.5-1.9
		C9,15.3,9.1,15,9.1,14.8c0.1-0.3,0.1-0.7,0-1C9,13.4,8.8,13.2,8.5,13c-0.2-0.2-0.4-0.4-0.6-0.6c-0.4-0.4-1-0.8-1.5-1.3
		C6.2,11.1,6.1,11,6,10.8c0.2,0,0.3,0,0.5,0l2-0.1l0.8-0.1c0.3,0,0.6-0.1,0.9-0.3c0.3-0.2,0.5-0.4,0.6-0.8c0.1-0.2,0.2-0.5,0.3-0.7
		c0.2-0.6,0.5-1.2,0.7-1.9C11.9,6.9,12,6.7,12,6.5 M12.1,2l-1.6,4c0,0.1-0.1,0.1-0.1,0.2l-0.1,0.3L10.1,7C9.9,7.4,9.7,7.9,9.6,8.3
		C9.4,8.7,9.4,8.7,9.3,8.9L9.2,9H9.1L8.4,9.1L7,9.1H6.4H6.1H5.9L1.6,9.3l3.3,2.8L5,12.2l0.3,0.2l0.5,0.4l1,0.9
		C7,13.9,7.2,14,7.3,14.1l0.1,0.1v0.2c0,0.2-0.1,0.4-0.2,0.7C7.2,15.5,7,16,6.9,16.5L6.7,17c0,0.1-0.1,0.2-0.1,0.3v0.2l-1.2,4.1
		l3.6-2.3l0.2-0.1c0.1-0.1,0.2-0.1,0.3-0.2l0.5-0.3c0.4-0.3,0.8-0.5,1.1-0.7s0.4-0.3,0.6-0.3l0.1-0.1l0.1,0.1
		c0.1,0.1,0.3,0.2,0.6,0.4s0.8,0.5,1.2,0.8l0.5,0.3c0.1,0.1,0.2,0.1,0.3,0.2l0.2,0.1l3.6,2.4l-1-4.2l0-0.2c0-0.1,0-0.2-0.1-0.3
		L17,16.6c-0.1-0.5-0.2-0.9-0.4-1.4s-0.1-0.5-0.1-0.7v-0.2l0.1-0.1c0.1-0.1,0.3-0.3,0.5-0.4c0.3-0.3,0.8-0.6,1.2-0.9l0.4-0.3
		l0.3-0.2l0.1-0.1l3.4-2.7l-4.3-0.3H18h-0.3h-0.5l-1.5-0.1c-0.2,0-0.5,0-0.7-0.1L14.8,9c0,0-0.1-0.1-0.1-0.1
		c-0.1-0.2-0.2-0.4-0.3-0.6S14.1,7.4,14,7l-0.2-0.6c0-0.1-0.1-0.2-0.1-0.3c0-0.1-0.1-0.1-0.1-0.2L12.1,2L12.1,2z"/>
</g>
</svg>
