<?xml version="1.0" encoding="utf-8"?>
<!-- Generator: Adobe Illustrator 27.9.0, SVG Export Plug-In . SVG Version: 6.00 Build 0)  -->
<svg version="1.1"
	 id="svg3913" xmlns:inkscape="http://www.inkscape.org/namespaces/inkscape" xmlns:ns="http://ns.adobe.com/AdobeIllustrator/10.0/" xmlns:svg="http://www.w3.org/2000/svg" xmlns:dc="http://purl.org/dc/elements/1.1/" xmlns:sodipodi="http://sodipodi.sourceforge.net/DTD/sodipodi-0.dtd" xmlns:cc="http://creativecommons.org/ns#" xmlns:rdf="http://www.w3.org/1999/02/22-rdf-syntax-ns#" inkscape:version="1.3-dev (fdc7329b, 2022-05-31)"
	 xmlns="http://www.w3.org/2000/svg" xmlns:xlink="http://www.w3.org/1999/xlink" x="0px" y="0px" viewBox="0 0 16 16"
	 style="enable-background:new 0 0 16 16;" xml:space="preserve">
<style type="text/css">
	
		.st0{fill-rule:evenodd;clip-rule:evenodd;fill:#FFFFFF;stroke:url(#rect2393_00000008858075785495615690000003347877658491506313_);stroke-width:0.9506;stroke-linecap:round;}
	.st1{fill-rule:evenodd;clip-rule:evenodd;fill:#D3D7CF;}
	
		.st2{fill-rule:evenodd;clip-rule:evenodd;fill:url(#path4018_00000054988918826560968620000011547571063862135717_);stroke:url(#path4018_00000018221974694420140090000002658970022521864854_);stroke-width:1.0001;stroke-miterlimit:3.1001;}
	.st3{fill:none;stroke:#FFFFFF;stroke-width:0.7501;stroke-linejoin:round;stroke-miterlimit:2.396;}
</style>
<g id="layer1_00000150076373866844962900000009301615140588908729_" inkscape:groupmode="layer" inkscape:label="Layer 1">
	
		<linearGradient id="rect2393_00000178165650689319507910000003643751869694316210_" gradientUnits="userSpaceOnUse" x1="1.7599" y1="15.3487" x2="14.2401" y2="4.6513" gradientTransform="matrix(1 0 0 -1 0 18)">
		<stop  offset="0" style="stop-color:#757575"/>
		<stop  offset="1" style="stop-color:#000000"/>
	</linearGradient>
	
		<path id="rect2393" style="fill-rule:evenodd;clip-rule:evenodd;fill:#FFFFFF;stroke:url(#rect2393_00000178165650689319507910000003643751869694316210_);stroke-width:0.9506;stroke-linecap:round;" d="
		M2.9,0.9h10.3c0.6,0,1,0.5,1,1v12.2c0,0.6-0.5,1-1,1H2.9c-0.6,0-1-0.5-1-1V1.9C1.8,1.3,2.3,0.9,2.9,0.9z"/>
	<rect id="rect3167" x="2.3" y="1.3" class="st1" width="11.4" height="1.9"/>
	<rect id="rect3169" x="2.3" y="5.1" class="st1" width="11.4" height="1.9"/>
	<rect id="rect3171" x="2.3" y="9" class="st1" width="11.4" height="1.9"/>
	<rect id="rect3173" x="2.3" y="12.8" class="st1" width="11.4" height="1.9"/>
</g>
<defs>
	
		<inkscape:perspective  id="perspective4016" inkscape:persp3d-origin="8 : 5.3333333 : 1" inkscape:vp_x="0 : 8 : 1" inkscape:vp_y="0 : 1000 : 0" inkscape:vp_z="16 : 8 : 1" sodipodi:type="inkscape:persp3d">
		</inkscape:perspective>
	
		<inkscape:perspective  id="perspective4552" inkscape:persp3d-origin="372.04724 : 350.78739 : 1" inkscape:vp_x="0 : 526.18109 : 1" inkscape:vp_y="0 : 1000 : 0" inkscape:vp_z="744.09448 : 526.18109 : 1" sodipodi:type="inkscape:persp3d">
		</inkscape:perspective>
</defs>
<sodipodi:namedview  bordercolor="#666666" borderlayer="top" borderopacity="1.0" fill="#eeeeec" height="16px" id="base" inkscape:current-layer="svg3913" inkscape:cx="8.9845684" inkscape:cy="8.5413834" inkscape:deskcolor="#d1d1d1" inkscape:grid-bbox="true" inkscape:grid-points="false" inkscape:pagecheckerboard="0" inkscape:pageopacity="0.0" inkscape:pageshadow="2" inkscape:showpageshadow="false" inkscape:window-height="1377" inkscape:window-maximized="1" inkscape:window-width="2560" inkscape:window-x="-8" inkscape:window-y="-8" inkscape:zoom="37.230503" pagecolor="#ffffff" showgrid="true" showguides="false" stroke="#2e3436" width="16px">
	
		<inkscape:grid  color="#3f3fff" empcolor="#3f3fff" empopacity="0.38" empspacing="5" id="GridFromPre046Settings" opacity="0.15" originx="0" originy="0" spacingx="1.2760625" spacingy="1.408875" type="xygrid">
		</inkscape:grid>
</sodipodi:namedview>
<g id="layer1" transform="matrix(0.93254357,0,0,0.93234687,6.2296054,7.3508615)" inkscape:label="Layer 1">
	
		<radialGradient id="path4018_00000002371566497633390150000017904396510015606189_" cx="398.1524" cy="729.448" r="6.5933" gradientTransform="matrix(0.6695 0.473 0.4522 -0.6401 -591.9288 282.0438)" gradientUnits="userSpaceOnUse">
		<stop  offset="0" style="stop-color:#FFF6A8"/>
		<stop  offset="1" style="stop-color:#FCE317"/>
	</radialGradient>
	
		<linearGradient id="path4018_00000145023661593926938650000006802854702814406045_" gradientUnits="userSpaceOnUse" x1="338.4092" y1="-78.6666" x2="345.4939" y2="-85.1623" gradientTransform="matrix(0.7735 4.788252e-02 4.786935e-02 -0.7733 -254.6217 -74.8139)">
		<stop  offset="0" style="stop-color:#977A00"/>
		<stop  offset="1" style="stop-color:#493C00"/>
	</linearGradient>
	
		<path id="path4018" inkscape:flatsided="false" inkscape:randomized="0" inkscape:rounded="0.2" sodipodi:arg1="-0.51094958" sodipodi:arg2="0.11736895" sodipodi:cx="7.5683169" sodipodi:cy="8.4316835" sodipodi:r1="6.8172274" sodipodi:r2="3.6813028" sodipodi:sides="5" sodipodi:type="star" style="fill-rule:evenodd;clip-rule:evenodd;fill:url(#path4018_00000002371566497633390150000017904396510015606189_);stroke:url(#path4018_00000145023661593926938650000006802854702814406045_);stroke-width:1.0001;stroke-miterlimit:3.1001;" d="
		M9.9,1.2c0.3,0.7-2,2.3-2.1,3C7.7,5,9.3,7.3,8.7,7.8C8.2,8.3,5.9,6.6,5.2,6.7C4.5,6.8,2.8,9,2.1,8.7C1.5,8.3,2.4,5.7,2,5
		C1.7,4.4-0.9,3.4-0.8,2.7S2.2,2,2.7,1.5S3.3-1.8,4-1.9S5.6,0.6,6.3,1C6.9,1.3,9.6,0.6,9.9,1.2z"/>
	<path id="path4558" sodipodi:nodetypes="ccccccccccc" class="st3" d="M9.2,1.6L7.1,4.1l1.2,3.3L5.1,6L2.5,8.1l0.2-3.4l-2.7-1.8
		L3.2,2l0.9-3.2l1.8,3L9.2,1.6z"/>
</g>
</svg>
