<?xml version="1.0" encoding="utf-8"?>
<!-- Generator: Adobe Illustrator 27.9.0, SVG Export Plug-In . SVG Version: 6.00 Build 0)  -->
<svg version="1.1" id="Layer_1" xmlns="http://www.w3.org/2000/svg" xmlns:xlink="http://www.w3.org/1999/xlink" x="0px" y="0px"
	 viewBox="0 0 24 24" style="enable-background:new 0 0 24 24;" xml:space="preserve">
<style type="text/css">
	.st0{fill:url(#Rectangle-24_00000183936294106067285920000016224861622062790550_);stroke:#C9C9C9;stroke-width:1.52;}
	.st1{fill:#87D0CC;}
	.st2{fill:#F8E81C;}
	.st3{fill:url(#polygon11038_00000139295395896842184860000000587759283972328879_);}
	.st4{fill:url(#polygon11045_00000169551189251377218980000001965969746953836425_);}
	.st5{fill:url(#polygon11058_00000176735174071643440030000006684347165721128331_);}
	.st6{fill:none;stroke:#192333;stroke-width:0.33;stroke-miterlimit:4.38;}
	.st7{fill:none;}
	.st8{fill-rule:evenodd;clip-rule:evenodd;}
</style>
<radialGradient id="Rectangle-24_00000098203982087990248500000004188930010801336506_" cx="-1098.6367" cy="-457.118" r="10.62" gradientTransform="matrix(1.64 1.000000e-02 1.000000e-02 -1.57 1810.2799 -700.21)" gradientUnits="userSpaceOnUse">
	<stop  offset="0" style="stop-color:#5C9AE6"/>
	<stop  offset="1" style="stop-color:#2171CE"/>
</radialGradient>
<path id="Rectangle-24" style="fill:url(#Rectangle-24_00000098203982087990248500000004188930010801336506_);stroke:#C9C9C9;stroke-width:1.52;" d="
	M3.9,2.1h16.2c1,0,1.8,0.8,1.8,1.8v16.2c0,1-0.8,1.8-1.8,1.8H3.9c-1,0-1.8-0.8-1.8-1.8V3.9C2.1,2.9,2.9,2.1,3.9,2.1z"/>
<polygon id="Path" class="st1" points="13.8,6.2 18.6,12.3 18.6,18.9 2.1,18.9 2.1,16 5.9,11.3 7.8,13.7 "/>
<path id="path3129" class="st2" d="M10,7.7c0,1.5-1.2,2.8-2.8,2.8c0,0,0,0-0.1,0c-1.5,0-2.8-1.2-2.8-2.8c0,0,0,0,0,0
	c0-1.5,1.2-2.8,2.8-2.8c0,0,0,0,0.1,0C8.7,4.8,10,6.1,10,7.7C10,7.6,10,7.7,10,7.7z"/>
<g id="layer1">
	
		<linearGradient id="polygon11038_00000034774383959496983880000013505915738869875347_" gradientUnits="userSpaceOnUse" x1="582.0708" y1="-1313.7703" x2="577.6208" y2="-1302.0402" gradientTransform="matrix(1.1 0 0 -1.1 -624.44 -1417.4099)">
		<stop  offset="0" style="stop-color:#FFA91D"/>
		<stop  offset="1" style="stop-color:#F57900"/>
	</linearGradient>
	<polygon id="polygon11038" style="fill:url(#polygon11038_00000034774383959496983880000013505915738869875347_);" points="
		13.8,23.5 9.4,18.2 8.7,9.8 13.5,14 	"/>
	
		<linearGradient id="polygon11045_00000160151504391070585010000010641711064532319659_" gradientUnits="userSpaceOnUse" x1="581.8287" y1="-1298.5336" x2="594.4288" y2="-1299.9836" gradientTransform="matrix(1.1 0 0 -1.1 -624.44 -1417.4099)">
		<stop  offset="0" style="stop-color:#FCCB3E"/>
		<stop  offset="1" style="stop-color:#FF7307"/>
	</linearGradient>
	<polygon id="polygon11045" style="fill:url(#polygon11045_00000160151504391070585010000010641711064532319659_);" points="
		23.2,11.3 13.5,14 8.7,9.8 17.3,7.9 	"/>
	
		<linearGradient id="polygon11058_00000015345517104659140270000009244476997000369290_" gradientUnits="userSpaceOnUse" x1="593.2189" y1="-1310.2211" x2="585.4489" y2="-1305.0011" gradientTransform="matrix(1.1 0 0 -1.1 -624.44 -1417.4099)">
		<stop  offset="0" style="stop-color:#FF7100"/>
		<stop  offset="1" style="stop-color:#CA5000"/>
	</linearGradient>
	<polygon id="polygon11058" style="fill:url(#polygon11058_00000015345517104659140270000009244476997000369290_);" points="
		22.4,20.1 13.8,23.5 13.5,14 23.2,11.3 	"/>
	<polygon id="polygon11130" class="st6" points="8.7,9.8 17.3,7.9 23.2,11.3 22.4,20.1 13.8,23.5 9.4,18.2 	"/>
	<path id="path27580" class="st7" d="M9,10l4.5,4.1"/>
	<path id="path27582" class="st7" d="M13.6,14.1l9.3-2.6"/>
	<path id="path27584" class="st7" d="M13.6,14l0.3,9.1"/>
	<path id="path42486" class="st8" d="M9.8,10.7c-0.3,1.7,0.3,3,0.3,4.4c0,0.9-0.1,1.8-0.2,2.7c0.6-0.6,1-1.4,1.1-2.2
		c-0.1-1-0.3-1.9-0.5-2.8c0.1-0.3,0.2-0.7,0.3-1L9.8,10.7L9.8,10.7z"/>
	<path id="path42488" class="st8" d="M13.1,22.7c-0.1-4.6-0.6-2.9-0.2-7.3c-0.7,3.1-1.1,3.5-0.8,6.1L13.1,22.7z"/>
	<path id="path42492" class="st8" d="M10,19c0.6-1.2,1.3-2.3,2.2-3.3c-0.3,1.4-1.2,2.3-1,4.6"/>
	<path id="path42494" class="st8" d="M12,12.9c-0.7,0.5,0.9,2.2-0.6,3c0.1-1.6-0.6-2.4-0.1-3.8"/>
	<path id="path42496" class="st8" d="M11,9.2c2.1,1.1,2,2.5,4,4.3c-3-1.5-2-2.6-5.2-3.9C10.2,9.5,10.6,9.4,11,9.2z"/>
	<path id="path42498" class="st8" d="M16,13.3c-2.1-1.1-2.1-2.6-4-4.3c3,1.5,2,2.7,5.2,4C17,13.1,16.2,13.3,16,13.3L16,13.3z"/>
	<path id="path42500" class="st8" d="M17.5,12.8c-2-1.7-1.2-2-3.2-3.8c3.2,2.3,1.9,2.6,4.4,3.4C18.4,12.6,18,12.7,17.5,12.8
		L17.5,12.8z"/>
	<path id="path42502" class="st8" d="M19.6,12.2c-0.6-1.7-3-2.2-3.6-4.2c1.3,1.6,3.2,2.5,4.8,3.9C20.5,12,19.9,12,19.6,12.2z"/>
	<path id="path42504" class="st8" d="M15.7,8.3c1.5,2,0.6,1.5,2.7,3.4c-3.2-2.3-1.6-1.8-3.9-3.1C14.9,8.5,15.3,8.4,15.7,8.3z"/>
	<path id="path42506" class="st8" d="M13.5,8.7c0.7,0.7,1.3,1.5,1.7,2.4c-0.7-1-1.7-1.7-2.9-2.1C12.7,8.8,13.1,8.7,13.5,8.7
		L13.5,8.7z"/>
	<path id="path42508" class="st8" d="M9.5,10.4C9.2,10.2,8.9,10,8.7,9.8c0,0.9,0.2,3.5,0.2,4.2C9.7,13.2,8.7,11.4,9.5,10.4z"/>
	<path id="path42510" class="st8" d="M13.4,14c-0.5,0.5-0.3,0.9-1,2c0.3-1.1-0.1-1.5,0.2-2.8"/>
	<path id="path42512" class="st8" d="M16,13.3c1.5,1.8-0.5,6.1,0.2,9.1c0.5-0.1,1.1-0.3,1.5-0.7c-2.4-3.8,0.5-5.9-0.5-8.7
		C16.8,13.2,16.4,13.2,16,13.3z"/>
	<path id="path42514" class="st8" d="M15.4,22.8c-0.8-3.1,1-5.5,0.2-9c0.1,4.9-2.3,5.6-1.3,9.5C14.6,23.1,15,22.9,15.4,22.8z"/>
	<path id="path42516" class="st8" d="M14.4,14c0.2,1.6-0.8,0.8-0.7,4.6c0.6-2.8,0.9-1.4,1.5-4.9"/>
	<path id="path42518" class="st8" d="M16.5,8.1c2.5,2,4.7,2.1,5,3.6c0.5,0,1-0.1,1.5-0.3L17.4,8L16.5,8.1L16.5,8.1z"/>
	<path id="path42520" class="st8" d="M17.5,12.7c1.8,2.8,0,5.6,0.5,9c0.2-0.1,0.7-0.2,1.2-0.4c-2.4-0.8,0.6-5.2-0.4-8.9
		C18.3,12.5,17.9,12.6,17.5,12.7L17.5,12.7z"/>
	<path id="path42522" class="st8" d="M19.5,12.2c0.4,1.6,0.3,6.3,0.1,9.2c0.5-0.2,0.7-0.4,1.2-0.6c-2-1.2,0.1-7.8-0.1-8.8
		C20.4,12,20,12.1,19.5,12.2z"/>
	<path id="path42524" class="st8" d="M21.6,11.7c1.8,1,0.1,4.6,0.5,8.4c0.5-0.2,0.2-0.1,0.3-0.1c0.1-1,0.7-8.3,0.7-8.7
		C22.7,11.4,22,11.6,21.6,11.7L21.6,11.7z"/>
	<path id="path42526" class="st8" d="M21.7,20.4c0.6-2.3-0.7-4.2-0.4-7.4c-1.4,3.9,0.6,5.4-0.8,7.9C21,20.6,21.3,20.5,21.7,20.4z"/>
</g>
</svg>
