<?xml version="1.0" encoding="utf-8"?>
<!-- Generator: Adobe Illustrator 25.0.1, SVG Export Plug-In . SVG Version: 6.00 Build 0)  -->
<svg version="1.1" id="Layer_1" xmlns="http://www.w3.org/2000/svg" xmlns:xlink="http://www.w3.org/1999/xlink" x="0px" y="0px"
	 viewBox="0 0 1024 1024" style="enable-background:new 0 0 1024 1024;" xml:space="preserve">
<style type="text/css">
	.st0{fill:#CCCCCC;}
</style>
<path class="st0" d="M801.6,193.7H222.4c-74.1,0-134.8,60.6-134.8,134.8v363.6c0,78.7,64.4,143,143,143h562.6
	c78.7,0,143-64.4,143-143V328.4C936.3,254.3,875.7,193.7,801.6,193.7z M873.6,695.8c0,45.9-37.6,83.5-83.5,83.5H233.8
	c-45.9,0-83.5-37.6-83.5-83.5V326.9c0-42.1,34.4-76.5,76.5-76.5h570.2c42.1,0,76.5,34.4,76.5,76.5V695.8z"/>
<g>
	<path class="st0" d="M420.7,233.5L310.2,122.9c-11.1-11.1-11.1-29.2,0-40.3l2.8-2.8c11.1-11.1,29.2-11.1,40.3,0l110.6,110.6
		c11.1,11.1,11.1,29.2,0,40.3l-2.8,2.8C450,244.6,431.8,244.6,420.7,233.5z"/>
	<path class="st0" d="M603.3,233.5l110.6-110.6c11.1-11.1,11.1-29.2,0-40.3l-2.8-2.8c-11.1-11.1-29.2-11.1-40.3,0L560.1,190.4
		c-11.1,11.1-11.1,29.2,0,40.3l2.8,2.8C574,244.6,592.2,244.6,603.3,233.5z"/>
</g>
<g>
	<path class="st0" d="M416.5,468.6L261.6,498c-6.2,1.2-12.3-3-13.5-9.2l-8.3-43.7c-1.2-6.2,3-12.3,9.2-13.5l154.8-29.4
		c6.2-1.2,12.3,3,13.5,9.2l8.3,43.7C426.9,461.3,422.7,467.4,416.5,468.6z"/>
	<path class="st0" d="M763.4,496.7L608,470.1c-6.3-1.1-10.5-7.1-9.4-13.3L606,413c1.1-6.3,7.1-10.5,13.3-9.4l155.3,26.5
		c6.3,1.1,10.5,7.1,9.4,13.3l-7.5,43.8C775.6,493.5,769.6,497.7,763.4,496.7z"/>
</g>
<path class="st0" d="M508.5,583.5c1.4-2.9,5.6-2.9,7,0c3.5,7.2,9.1,15.9,17.7,24c8,7.4,17.3,16,29.8,15.8
	c16.4-0.2,27.5-15.2,31.9-22.3c1.2-1.9,3.7-2.4,5.6-1.2c7.3,5.1,14.5,10.2,21.8,15.2c1.7,1.2,2.2,3.5,1.1,5.3
	c-19.2,29.9-50.8,44.8-77.7,38c-14.6-3.7-24.8-13-30.7-19.9c-1.6-1.8-4.4-1.8-5.9,0c-5.9,6.9-16,16.2-30.7,19.9
	c-26.9,6.8-58.5-8.1-77.7-38c-1.1-1.8-0.7-4.1,1.1-5.3c7.3-5.1,14.5-10.2,21.8-15.2c1.8-1.3,4.4-0.8,5.6,1.2
	c4.4,7.1,15.5,22,31.9,22.3c12.6,0.2,21.8-8.4,29.8-15.8C499.4,599.5,505,590.7,508.5,583.5z"/>
</svg>
