<?xml version="1.0" encoding="utf-8"?>
<!-- Generator: Adobe Illustrator 27.9.0, SVG Export Plug-In . SVG Version: 6.00 Build 0)  -->
<svg version="1.1" id="Layer_1" xmlns="http://www.w3.org/2000/svg" xmlns:xlink="http://www.w3.org/1999/xlink" x="0px" y="0px"
	 viewBox="0 0 24 24" style="enable-background:new 0 0 24 24;" xml:space="preserve">
<style type="text/css">
	.st0{fill:#E6E6E6;}
	.st1{fill:#CCCCCC;}
</style>
<path class="st0" d="M4.4,20.9c-2.2,0-4.1-1.8-4.1-4.1V7c0-2.1,1.7-3.8,3.8-3.8h15.6c1,0,2,0.4,2.7,1.1C23.3,5,23.7,6,23.7,7v9.8
	c0,2.2-1.8,4.1-4.1,4.1H4.4z M4.3,5.1c-1,0-1.9,0.8-1.9,1.9v10C2.4,18,3.4,19,4.5,19h15c1.1,0,2.1-0.9,2.1-2.1l0-10
	c0-1-0.8-1.9-1.9-1.9H4.3z"/>
<path class="st1" d="M16.2,11.2l-6.1-3.5C9.4,7.3,8.6,7.7,8.6,8.5v7c0,0.7,0.8,1.2,1.5,0.8l6.1-3.5C16.8,12.5,16.8,11.5,16.2,11.2z"
	/>
</svg>
