<?xml version="1.0" encoding="utf-8"?>
<!-- Generator: Adobe Illustrator 27.9.0, SVG Export Plug-In . SVG Version: 6.00 Build 0)  -->
<svg version="1.1" id="Layer_1" xmlns="http://www.w3.org/2000/svg" xmlns:xlink="http://www.w3.org/1999/xlink" x="0px" y="0px"
	 viewBox="0 0 1024 1024" style="enable-background:new 0 0 1024 1024;" xml:space="preserve">
<style type="text/css">
	.st0{fill:#CCCCCC;}
	.st1{fill:#E6E6E6;}
</style>
<path class="st0" d="M333.4,172.9c37-198.7,321.1-198.7,358.1,0c2.1,11.8,14.3,18.6,25.3,14.7c190.7-67.4,332,179.5,179.1,310.6
	c-9.1,7.8-9.1,21.8,0,29.5c152.8,131.2,11.5,377.9-179.1,310.6c-11.1-3.9-23.2,2.9-25.3,14.7c-37,198.7-321.1,198.7-358.1,0
	c-2.1-11.8-14.3-18.6-25.3-14.7C117.4,905.6-24,658.9,128.9,527.7c9.1-7.8,9.1-21.8,0-29.5c-152.8-131.2-11.5-377.9,179.1-310.6
	C319.1,191.6,331.2,184.7,333.4,172.9L333.4,172.9z M611.4,187.9c-20.5-109.8-177.5-109.8-198,0c-11.3,60.9-74.2,97.2-132.6,76.7
	c-105.2-37.1-183.7,99.1-99,171.8c47,40.3,47,113,0,153.3c-84.7,72.7-6.1,208.9,99,171.8c58.3-20.6,121.1,15.8,132.6,76.6
	c20.5,109.8,177.5,109.8,198,0c11.4-60.9,74.2-97.2,132.6-76.6c105.2,37.1,183.7-99.1,99-171.8c-47-40.3-47-113,0-153.3
	c84.7-72.7,6.1-208.9-99-171.8C685.6,285.2,622.8,248.8,611.4,187.9L611.4,187.9z"/>
<path class="st1" d="M512.4,314.4c109.6,0,198.5,88.9,198.5,198.6S622,711.6,512.4,711.6S313.9,622.7,313.9,513
	S402.8,314.4,512.4,314.4L512.4,314.4z M512.4,413.6c-54.7,0-99.2,44.5-99.2,99.4s44.5,99.4,99.2,99.4s99.2-44.5,99.2-99.4
	S567.3,413.6,512.4,413.6L512.4,413.6z"/>
</svg>
