<?xml version="1.0" encoding="utf-8"?>
<!-- Generator: Adobe Illustrator 27.9.0, SVG Export Plug-In . SVG Version: 6.00 Build 0)  -->
<svg version="1.1"
	 id="svg2168" xmlns:inkscape="http://www.inkscape.org/namespaces/inkscape" xmlns:cc="http://creativecommons.org/ns#" xmlns:rdf="http://www.w3.org/1999/02/22-rdf-syntax-ns#" xmlns:svg="http://www.w3.org/2000/svg" xmlns:dc="http://purl.org/dc/elements/1.1/" xmlns:sodipodi="http://sodipodi.sourceforge.net/DTD/sodipodi-0.dtd" inkscape:output_extension="org.inkscape.output.svg.inkscape" inkscape:version="0.48.4 r9939" sodipodi:version="0.32"
	 xmlns="http://www.w3.org/2000/svg" xmlns:xlink="http://www.w3.org/1999/xlink" x="0px" y="0px" viewBox="0 0 16 16"
	 style="enable-background:new 0 0 16 16;" xml:space="preserve">
<style type="text/css">
	.st0{opacity:0.5;}
	.st1{clip-path:url(#SVGID_00000013160588306828907390000017598088559600874882_);}
	.st2{opacity:0.502;}
	
		.st3{fill:url(#SVGID_00000157290010718977969050000004984896171616979894_);stroke:#FFFFFF;stroke-width:0.9563;stroke-linecap:square;}
</style>
<g class="st0">
	<g>
		<g>
			<defs>
				<polygon id="SVGID_1_" points="10.6,4.9 9.7,15.8 6.1,15.8 7,4.9 3.5,4.9 3.8,1.7 14.4,1.7 14.1,4.9 				"/>
			</defs>
			<clipPath id="SVGID_00000114791090630044623800000012290107269093115027_">
				<use xlink:href="#SVGID_1_"  style="overflow:visible;"/>
			</clipPath>
		</g>
	</g>
	<g>
		<g>
			<defs>
				<polygon id="SVGID_00000150082847325326772010000017744790882358436743_" points="10.6,4.9 9.7,15.8 6.1,15.8 7,4.9 3.5,4.9 
					3.8,1.7 14.4,1.7 14.1,4.9 				"/>
			</defs>
			<use xlink:href="#SVGID_00000150082847325326772010000017744790882358436743_"  style="overflow:visible;"/>
			<clipPath id="SVGID_00000077314332476100654900000017628427633698710441_">
				<use xlink:href="#SVGID_00000150082847325326772010000017744790882358436743_"  style="overflow:visible;"/>
			</clipPath>
			
				<rect x="3.5" y="1.7" style="clip-path:url(#SVGID_00000077314332476100654900000017628427633698710441_);" width="10.9" height="0.6"/>
			
				<rect x="3.5" y="2.4" style="clip-path:url(#SVGID_00000077314332476100654900000017628427633698710441_);" width="10.9" height="0.1"/>
			
				<rect x="3.5" y="2.5" style="clip-path:url(#SVGID_00000077314332476100654900000017628427633698710441_);" width="10.9" height="0.1"/>
			
				<rect x="3.5" y="2.6" style="clip-path:url(#SVGID_00000077314332476100654900000017628427633698710441_);" width="10.9" height="0.1"/>
			
				<rect x="3.5" y="2.7" style="clip-path:url(#SVGID_00000077314332476100654900000017628427633698710441_);" width="10.9" height="0.1"/>
			
				<rect x="3.5" y="2.8" style="clip-path:url(#SVGID_00000077314332476100654900000017628427633698710441_);" width="10.9" height="0.1"/>
			
				<rect x="3.5" y="3" style="clip-path:url(#SVGID_00000077314332476100654900000017628427633698710441_);" width="10.9" height="0.1"/>
			
				<rect x="3.5" y="3.1" style="clip-path:url(#SVGID_00000077314332476100654900000017628427633698710441_);" width="10.9" height="0.1"/>
			
				<rect x="3.5" y="3.2" style="clip-path:url(#SVGID_00000077314332476100654900000017628427633698710441_);" width="10.9" height="0.1"/>
			
				<rect x="3.5" y="3.3" style="clip-path:url(#SVGID_00000077314332476100654900000017628427633698710441_);" width="10.9" height="0.1"/>
			
				<rect x="3.5" y="3.4" style="clip-path:url(#SVGID_00000077314332476100654900000017628427633698710441_);" width="10.9" height="0.1"/>
			
				<rect x="3.5" y="3.5" style="clip-path:url(#SVGID_00000077314332476100654900000017628427633698710441_);" width="10.9" height="0.1"/>
			
				<rect x="3.5" y="3.6" style="clip-path:url(#SVGID_00000077314332476100654900000017628427633698710441_);" width="10.9" height="0.1"/>
			
				<rect x="3.5" y="3.7" style="clip-path:url(#SVGID_00000077314332476100654900000017628427633698710441_);" width="10.9" height="0.1"/>
			
				<rect x="3.5" y="3.9" style="clip-path:url(#SVGID_00000077314332476100654900000017628427633698710441_);" width="10.9" height="0.1"/>
			
				<rect x="3.5" y="4" style="clip-path:url(#SVGID_00000077314332476100654900000017628427633698710441_);" width="10.9" height="0.1"/>
			
				<rect x="3.5" y="4.1" style="clip-path:url(#SVGID_00000077314332476100654900000017628427633698710441_);" width="10.9" height="0.1"/>
			
				<rect x="3.5" y="4.2" style="clip-path:url(#SVGID_00000077314332476100654900000017628427633698710441_);" width="10.9" height="0.1"/>
			
				<rect x="3.5" y="4.3" style="clip-path:url(#SVGID_00000077314332476100654900000017628427633698710441_);" width="10.9" height="0.1"/>
			
				<rect x="3.5" y="4.4" style="clip-path:url(#SVGID_00000077314332476100654900000017628427633698710441_);" width="10.9" height="0.1"/>
			
				<rect x="3.5" y="4.5" style="clip-path:url(#SVGID_00000077314332476100654900000017628427633698710441_);" width="10.9" height="0.1"/>
			
				<rect x="3.5" y="4.6" style="clip-path:url(#SVGID_00000077314332476100654900000017628427633698710441_);" width="10.9" height="0.1"/>
			
				<rect x="3.5" y="4.8" style="clip-path:url(#SVGID_00000077314332476100654900000017628427633698710441_);" width="10.9" height="0.1"/>
			
				<rect x="3.5" y="4.9" style="clip-path:url(#SVGID_00000077314332476100654900000017628427633698710441_);" width="10.9" height="0.1"/>
			
				<rect x="3.5" y="5" style="clip-path:url(#SVGID_00000077314332476100654900000017628427633698710441_);" width="10.9" height="0.1"/>
			
				<rect x="3.5" y="5.1" style="clip-path:url(#SVGID_00000077314332476100654900000017628427633698710441_);" width="10.9" height="0.1"/>
			
				<rect x="3.5" y="5.2" style="clip-path:url(#SVGID_00000077314332476100654900000017628427633698710441_);" width="10.9" height="0.1"/>
			
				<rect x="3.5" y="5.3" style="clip-path:url(#SVGID_00000077314332476100654900000017628427633698710441_);" width="10.9" height="0.1"/>
			
				<rect x="3.5" y="5.4" style="clip-path:url(#SVGID_00000077314332476100654900000017628427633698710441_);" width="10.9" height="0.1"/>
			
				<rect x="3.5" y="5.5" style="clip-path:url(#SVGID_00000077314332476100654900000017628427633698710441_);" width="10.9" height="0.1"/>
			
				<rect x="3.5" y="5.6" style="clip-path:url(#SVGID_00000077314332476100654900000017628427633698710441_);" width="10.9" height="0.1"/>
			
				<rect x="3.5" y="5.8" style="clip-path:url(#SVGID_00000077314332476100654900000017628427633698710441_);" width="10.9" height="0.1"/>
			
				<rect x="3.5" y="5.9" style="clip-path:url(#SVGID_00000077314332476100654900000017628427633698710441_);" width="10.9" height="0.1"/>
			
				<rect x="3.5" y="6" style="clip-path:url(#SVGID_00000077314332476100654900000017628427633698710441_);" width="10.9" height="0.1"/>
			
				<rect x="3.5" y="6.1" style="clip-path:url(#SVGID_00000077314332476100654900000017628427633698710441_);" width="10.9" height="0.1"/>
			
				<rect x="3.5" y="6.2" style="clip-path:url(#SVGID_00000077314332476100654900000017628427633698710441_);" width="10.9" height="0.1"/>
			
				<rect x="3.5" y="6.3" style="clip-path:url(#SVGID_00000077314332476100654900000017628427633698710441_);" width="10.9" height="0.1"/>
			
				<rect x="3.5" y="6.4" style="clip-path:url(#SVGID_00000077314332476100654900000017628427633698710441_);" width="10.9" height="0.1"/>
			
				<rect x="3.5" y="6.5" style="clip-path:url(#SVGID_00000077314332476100654900000017628427633698710441_);" width="10.9" height="0.1"/>
			
				<rect x="3.5" y="6.7" style="clip-path:url(#SVGID_00000077314332476100654900000017628427633698710441_);" width="10.9" height="0.1"/>
			
				<rect x="3.5" y="6.8" style="clip-path:url(#SVGID_00000077314332476100654900000017628427633698710441_);" width="10.9" height="0.1"/>
			
				<rect x="3.5" y="6.9" style="clip-path:url(#SVGID_00000077314332476100654900000017628427633698710441_);" width="10.9" height="0.1"/>
			
				<rect x="3.5" y="7" style="clip-path:url(#SVGID_00000077314332476100654900000017628427633698710441_);" width="10.9" height="0.1"/>
			
				<rect x="3.5" y="7.1" style="clip-path:url(#SVGID_00000077314332476100654900000017628427633698710441_);" width="10.9" height="0.1"/>
			
				<rect x="3.5" y="7.2" style="clip-path:url(#SVGID_00000077314332476100654900000017628427633698710441_);" width="10.9" height="0.1"/>
			
				<rect x="3.5" y="7.3" style="clip-path:url(#SVGID_00000077314332476100654900000017628427633698710441_);" width="10.9" height="0.1"/>
			
				<rect x="3.5" y="7.4" style="clip-path:url(#SVGID_00000077314332476100654900000017628427633698710441_);" width="10.9" height="0.1"/>
			
				<rect x="3.5" y="7.6" style="clip-path:url(#SVGID_00000077314332476100654900000017628427633698710441_);" width="10.9" height="0.1"/>
			
				<rect x="3.5" y="7.7" style="clip-path:url(#SVGID_00000077314332476100654900000017628427633698710441_);" width="10.9" height="0.1"/>
			
				<rect x="3.5" y="7.8" style="clip-path:url(#SVGID_00000077314332476100654900000017628427633698710441_);" width="10.9" height="0.1"/>
			
				<rect x="3.5" y="7.9" style="clip-path:url(#SVGID_00000077314332476100654900000017628427633698710441_);" width="10.9" height="0.1"/>
			
				<rect x="3.5" y="8" style="clip-path:url(#SVGID_00000077314332476100654900000017628427633698710441_);" width="10.9" height="0.1"/>
			
				<rect x="3.5" y="8.1" style="clip-path:url(#SVGID_00000077314332476100654900000017628427633698710441_);" width="10.9" height="0.1"/>
			
				<rect x="3.5" y="8.2" style="clip-path:url(#SVGID_00000077314332476100654900000017628427633698710441_);" width="10.9" height="0.1"/>
			
				<rect x="3.5" y="8.3" style="clip-path:url(#SVGID_00000077314332476100654900000017628427633698710441_);" width="10.9" height="0.1"/>
			
				<rect x="3.5" y="8.5" style="clip-path:url(#SVGID_00000077314332476100654900000017628427633698710441_);" width="10.9" height="0.1"/>
			
				<rect x="3.5" y="8.6" style="clip-path:url(#SVGID_00000077314332476100654900000017628427633698710441_);" width="10.9" height="0.1"/>
			
				<rect x="3.5" y="8.7" style="clip-path:url(#SVGID_00000077314332476100654900000017628427633698710441_);" width="10.9" height="0.1"/>
			
				<rect x="3.5" y="8.8" style="clip-path:url(#SVGID_00000077314332476100654900000017628427633698710441_);" width="10.9" height="0.1"/>
			
				<rect x="3.5" y="8.9" style="clip-path:url(#SVGID_00000077314332476100654900000017628427633698710441_);" width="10.9" height="0.1"/>
			
				<rect x="3.5" y="9" style="clip-path:url(#SVGID_00000077314332476100654900000017628427633698710441_);" width="10.9" height="0.1"/>
			
				<rect x="3.5" y="9.1" style="clip-path:url(#SVGID_00000077314332476100654900000017628427633698710441_);" width="10.9" height="0.1"/>
			
				<rect x="3.5" y="9.2" style="clip-path:url(#SVGID_00000077314332476100654900000017628427633698710441_);" width="10.9" height="0.1"/>
			
				<rect x="3.5" y="9.4" style="clip-path:url(#SVGID_00000077314332476100654900000017628427633698710441_);" width="10.9" height="0.1"/>
			
				<rect x="3.5" y="9.5" style="clip-path:url(#SVGID_00000077314332476100654900000017628427633698710441_);" width="10.9" height="0.1"/>
			
				<rect x="3.5" y="9.6" style="clip-path:url(#SVGID_00000077314332476100654900000017628427633698710441_);" width="10.9" height="0.1"/>
			
				<rect x="3.5" y="9.7" style="clip-path:url(#SVGID_00000077314332476100654900000017628427633698710441_);" width="10.9" height="0.1"/>
			
				<rect x="3.5" y="9.8" style="clip-path:url(#SVGID_00000077314332476100654900000017628427633698710441_);" width="10.9" height="0.1"/>
			
				<rect x="3.5" y="9.9" style="clip-path:url(#SVGID_00000077314332476100654900000017628427633698710441_);" width="10.9" height="0.1"/>
			
				<rect x="3.5" y="10" style="clip-path:url(#SVGID_00000077314332476100654900000017628427633698710441_);" width="10.9" height="0.1"/>
			
				<rect x="3.5" y="10.1" style="clip-path:url(#SVGID_00000077314332476100654900000017628427633698710441_);" width="10.9" height="0.1"/>
			
				<rect x="3.5" y="10.3" style="clip-path:url(#SVGID_00000077314332476100654900000017628427633698710441_);" width="10.9" height="0.1"/>
			
				<rect x="3.5" y="10.4" style="clip-path:url(#SVGID_00000077314332476100654900000017628427633698710441_);" width="10.9" height="0.1"/>
			
				<rect x="3.5" y="10.5" style="clip-path:url(#SVGID_00000077314332476100654900000017628427633698710441_);" width="10.9" height="0.1"/>
			
				<rect x="3.5" y="10.6" style="clip-path:url(#SVGID_00000077314332476100654900000017628427633698710441_);" width="10.9" height="0.1"/>
			
				<rect x="3.5" y="10.7" style="clip-path:url(#SVGID_00000077314332476100654900000017628427633698710441_);" width="10.9" height="0.1"/>
			
				<rect x="3.5" y="10.8" style="clip-path:url(#SVGID_00000077314332476100654900000017628427633698710441_);" width="10.9" height="0.1"/>
			
				<rect x="3.5" y="10.9" style="clip-path:url(#SVGID_00000077314332476100654900000017628427633698710441_);" width="10.9" height="0.1"/>
			
				<rect x="3.5" y="11" style="clip-path:url(#SVGID_00000077314332476100654900000017628427633698710441_);" width="10.9" height="0.1"/>
			
				<rect x="3.5" y="11.2" style="clip-path:url(#SVGID_00000077314332476100654900000017628427633698710441_);" width="10.9" height="0.1"/>
			
				<rect x="3.5" y="11.3" style="clip-path:url(#SVGID_00000077314332476100654900000017628427633698710441_);" width="10.9" height="0.1"/>
			
				<rect x="3.5" y="11.4" style="clip-path:url(#SVGID_00000077314332476100654900000017628427633698710441_);" width="10.9" height="0.1"/>
			
				<rect x="3.5" y="11.5" style="clip-path:url(#SVGID_00000077314332476100654900000017628427633698710441_);" width="10.9" height="0.1"/>
			
				<rect x="3.5" y="11.6" style="clip-path:url(#SVGID_00000077314332476100654900000017628427633698710441_);" width="10.9" height="0.1"/>
			
				<rect x="3.5" y="11.7" style="clip-path:url(#SVGID_00000077314332476100654900000017628427633698710441_);" width="10.9" height="0.1"/>
			
				<rect x="3.5" y="11.8" style="clip-path:url(#SVGID_00000077314332476100654900000017628427633698710441_);" width="10.9" height="0.1"/>
			
				<rect x="3.5" y="11.9" style="clip-path:url(#SVGID_00000077314332476100654900000017628427633698710441_);" width="10.9" height="0.1"/>
			
				<rect x="3.5" y="12.1" style="clip-path:url(#SVGID_00000077314332476100654900000017628427633698710441_);" width="10.9" height="0.1"/>
			
				<rect x="3.5" y="12.2" style="clip-path:url(#SVGID_00000077314332476100654900000017628427633698710441_);" width="10.9" height="0.1"/>
			
				<rect x="3.5" y="12.3" style="clip-path:url(#SVGID_00000077314332476100654900000017628427633698710441_);" width="10.9" height="0.1"/>
			
				<rect x="3.5" y="12.4" style="clip-path:url(#SVGID_00000077314332476100654900000017628427633698710441_);" width="10.9" height="0.1"/>
			
				<rect x="3.5" y="12.5" style="clip-path:url(#SVGID_00000077314332476100654900000017628427633698710441_);" width="10.9" height="0.1"/>
			
				<rect x="3.5" y="12.6" style="clip-path:url(#SVGID_00000077314332476100654900000017628427633698710441_);" width="10.9" height="0.1"/>
			
				<rect x="3.5" y="12.7" style="clip-path:url(#SVGID_00000077314332476100654900000017628427633698710441_);" width="10.9" height="0.1"/>
			
				<rect x="3.5" y="12.8" style="clip-path:url(#SVGID_00000077314332476100654900000017628427633698710441_);" width="10.9" height="0.1"/>
			
				<rect x="3.5" y="13" style="clip-path:url(#SVGID_00000077314332476100654900000017628427633698710441_);" width="10.9" height="2.9"/>
		</g>
	</g>
	<g class="st2">
		<g>
			<defs>
				<polygon id="SVGID_00000106854628167037716630000006007921136963819154_" points="10.6,4.9 9.7,15.8 6.1,15.8 7,4.9 3.5,4.9 
					3.8,1.7 14.4,1.7 14.1,4.9 				"/>
			</defs>
			<clipPath id="SVGID_00000055678698343757477420000004258127793879674290_">
				<use xlink:href="#SVGID_00000106854628167037716630000006007921136963819154_"  style="overflow:visible;"/>
			</clipPath>
		</g>
	</g>
</g>
<sodipodi:namedview  bordercolor="#666666" borderopacity="1.0" height="24px" id="base" inkscape:current-layer="layer1" inkscape:cx="3.238504" inkscape:cy="3.2032251" inkscape:document-units="px" inkscape:grid-bbox="true" inkscape:pageopacity="0.0" inkscape:pageshadow="2" inkscape:window-height="1496" inkscape:window-maximized="1" inkscape:window-width="2560" inkscape:window-x="-8" inkscape:window-y="-8" inkscape:zoom="32" pagecolor="#ffffff" showgrid="true" width="24px">
	<inkscape:grid  empspacing="5" enabled="true" id="grid3013" snapvisiblegridlinesonly="true" type="xygrid" visible="true">
		</inkscape:grid>
</sodipodi:namedview>
<linearGradient id="SVGID_00000091009254067053015830000012203625397380081595_" gradientUnits="userSpaceOnUse" x1="6.6742" y1="1.3157" x2="6.6742" y2="11.877" gradientTransform="matrix(1 0 -8.633374e-02 1 1.2712 0)">
	<stop  offset="0" style="stop-color:#000000"/>
	<stop  offset="1" style="stop-color:#012E5E"/>
</linearGradient>
<polygon style="fill:url(#SVGID_00000091009254067053015830000012203625397380081595_);stroke:#FFFFFF;stroke-width:0.9563;stroke-linecap:square;" points="
	9.4,3.8 8.5,14.8 4.9,14.8 5.8,3.8 2.3,3.8 2.6,0.7 13.2,0.7 12.9,3.8 "/>
</svg>
