<?xml version="1.0" encoding="utf-8"?>
<!-- Generator: Adobe Illustrator 25.0.1, SVG Export Plug-In . SVG Version: 6.00 Build 0)  -->
<svg version="1.1" id="Layer_1" xmlns="http://www.w3.org/2000/svg" xmlns:xlink="http://www.w3.org/1999/xlink" x="0px" y="0px"
	 viewBox="0 0 1024 1024" style="enable-background:new 0 0 1024 1024;" xml:space="preserve">
<style type="text/css">
	.st0{fill:#CCCCCC;}
</style>
<path class="st0" d="M360.5,224.4c31.4-168.6,272.5-168.6,303.9,0c1.8,10,12.1,15.8,21.5,12.5c161.8-57.2,281.7,152.3,152,263.6
	c-7.7,6.6-7.7,18.5,0,25c129.7,111.3,9.8,320.7-152,263.6c-9.4-3.3-19.7,2.5-21.5,12.5c-31.4,168.6-272.5,168.6-303.9,0
	c-1.8-10-12.1-15.8-21.5-12.5C177.2,846.2,57.2,636.8,187,525.5c7.7-6.6,7.7-18.5,0-25c-129.7-111.3-9.8-320.7,152-263.6
	C348.4,240.3,358.6,234.4,360.5,224.4L360.5,224.4z M596.4,237.1c-17.4-93.2-150.6-93.2-168,0c-9.6,51.7-63,82.5-112.5,65.1
	c-89.3-31.5-155.9,84.1-84,145.8c39.9,34.2,39.9,95.9,0,130.1c-71.9,61.7-5.2,177.3,84,145.8c49.5-17.5,102.8,13.4,112.5,65
	c17.4,93.2,150.6,93.2,168,0c9.7-51.7,63-82.5,112.5-65c89.3,31.5,155.9-84.1,84-145.8c-39.9-34.2-39.9-95.9,0-130.1
	c71.9-61.7,5.2-177.3-84-145.8C659.4,319.7,606.1,288.8,596.4,237.1L596.4,237.1z"/>
<path class="st0" d="M512.4,374.7c76.3,0,138.2,61.9,138.2,138.3s-61.9,138.3-138.2,138.3S374.2,589.4,374.2,513
	S436.1,374.7,512.4,374.7L512.4,374.7z M512.4,443.8c-38.1,0-69.1,31-69.1,69.2s31,69.2,69.1,69.2s69.1-31,69.1-69.2
	S550.6,443.8,512.4,443.8L512.4,443.8z"/>
</svg>
