<?xml version="1.0" encoding="utf-8"?>
<!-- Generator: Adobe Illustrator 25.0.1, SVG Export Plug-In . SVG Version: 6.00 Build 0)  -->
<svg version="1.1" id="Layer_1" xmlns="http://www.w3.org/2000/svg" xmlns:xlink="http://www.w3.org/1999/xlink" x="0px" y="0px"
	 viewBox="0 0 1024 1024" style="enable-background:new 0 0 1024 1024;" xml:space="preserve">
<style type="text/css">
	.st0{fill:#CCCCCC;}
</style>
<path class="st0" d="M677.4,138C831.2,138,960,253.3,960,400.2c0,140.7-80,249.8-167.6,327c-87.8,77.4-187.3,126.6-236.3,148.1
	c-28.1,12.4-60.1,12.4-88.2,0c-49-21.6-148.5-70.8-236.3-148.1C144,650,64,541,64,400.2C64,253.2,192.8,138,346.6,138
	c63.9,0,120.9,27,165.4,58.8C556.5,165,613.5,138,677.4,138z M677.4,205.9c-52.1,0-102.4,26.3-143.3,60L512,284l-22.1-18.2
	c-40.9-33.7-91.2-60-143.3-60c-120.2,0-213.7,89.2-213.7,194.4c0,113.5,64.3,205.6,144.6,276.4c80.2,70.7,172.4,116.5,218.5,136.8
	c10.2,4.5,21.7,4.5,31.9,0c46.1-20.3,138.3-66.1,218.5-136.8C826.7,605.8,891,513.7,891,400.2C891.1,295,797.7,205.9,677.4,205.9
	L677.4,205.9z"/>
</svg>
