<?xml version="1.0" encoding="utf-8"?>
<!-- Generator: Adobe Illustrator 25.0.1, SVG Export Plug-In . SVG Version: 6.00 Build 0)  -->
<svg version="1.1" id="Layer_1" xmlns="http://www.w3.org/2000/svg" xmlns:xlink="http://www.w3.org/1999/xlink" x="0px" y="0px"
	 viewBox="0 0 1024 1024" style="enable-background:new 0 0 1024 1024;" xml:space="preserve">
<style type="text/css">
	.st0{fill:#CCCCCC;}
</style>
<path class="st0" d="M545.4,135.1v-1.8c0-19.5-15.6-35.3-34.6-35.3c-19,0-34.6,15.8-34.6,35.3v1.9c8.3-1.2,16.6-1.9,24.9-1.9h19.4
	C528.8,133.3,537.1,133.9,545.4,135.1L545.4,135.1z M387.3,811.4c-15.2,11.7-18.3,33.8-6.9,49.5c65.7,89.5,197.1,89.5,262.8,0
	c11.4-15.6,8.3-37.8-6.9-49.5s-37-8.5-48.4,7.1c-38,51.8-114.1,51.8-152.2,0C424.3,802.9,402.6,799.7,387.3,811.4L387.3,811.4z"/>
<path class="st0" d="M521.5,132.6c124.5,0,250.7,138.3,232.4,294c-9,44.5,18.7,67.8,47.7,92.2l1.6,1.4l1.6,1.4l0.8,0.7l1.6,1.4
	l1.6,1.4l0.8,0.7l1.6,1.4c24,20.7,46.2,44,46.2,82.4c0,59.1-34.6,93.7-85.4,110c0,0-93,35.5-260.4,35.5s-260.4-35.5-260.4-35.5
	c-50.8-16.3-85.4-49.2-85.4-110c-0.6-40.3,24.1-63.9,49.9-85.6l1.7-1.4c1.4-1.2,2.8-2.3,4.2-3.5c29.1-24.5,57.1-48.1,48.1-92.5
	c-18.3-155.6,107.9-294,232.4-294L521.5,132.6L521.5,132.6z M521.5,201.7h-19.4c-37,0-81.6,21.4-116.5,63.6
	c-33.9,40.8-53.3,94.9-47.4,150.9c6.9,38.5-1.7,72.1-19,99.8c-15.2,24-36.7,42-49.8,53.1l-1,0.8c-29.2,24.7-32.7,30.6-33.1,36.3v0.4
	c0,0.3,0,0.5,0,0.8v0.6v1.5c0,16.3,4.1,23.4,7.6,27.2c3.8,4.9,12.4,11.4,29.7,16.9l1.7,0.6l1.7,0.6l0,0c0.3,0.1,0.7,0.3,1.4,0.6
	c0.3,0,0.3,0.1,0.3,0.1c2.1,0.7,5.5,1.8,10.4,3.2c9.3,2.8,24.2,6.7,44.3,10.8c40.1,8.1,100.6,16.4,179.5,16.4s139.4-8.4,179.5-16.4
	c20.1-4,34.9-8,44.3-10.8c4.8-1.4,8.3-2.5,10.4-3.2c0.7-0.3,1.4-0.6,1.7-0.7h0.3l1.4-0.6l1.7-0.6c16.6-5.3,25.2-12,29.7-17.3
	c3.5-4.4,7.6-11.7,7.6-26.8V609v-0.2v-0.5c0-0.1,0-0.2,0-0.2v-0.5c0-0.1,0-0.2,0-0.2v-0.5c-0.5-6.7-4.6-12.9-33.8-37.4l-1-0.9
	l-2.2-1.9l-1.6-1.3c-12.9-11.1-31.9-27.9-45.7-49.8c-17.3-27.7-25.6-61.2-18.7-99.5c5.9-56-13.5-110.1-47.4-150.9
	C603.1,223.2,558.5,201.7,521.5,201.7L521.5,201.7z"/>
</svg>
