<?xml version="1.0" encoding="utf-8"?>
<!-- Generator: Adobe Illustrator 25.0.1, SVG Export Plug-In . SVG Version: 6.00 Build 0)  -->
<svg version="1.1" id="Layer_1" xmlns="http://www.w3.org/2000/svg" xmlns:xlink="http://www.w3.org/1999/xlink" x="0px" y="0px"
	 viewBox="0 0 1024 1024" style="enable-background:new 0 0 1024 1024;" xml:space="preserve">
<style type="text/css">
	.st0{fill:#CCCCCC;}
</style>
<path class="st0" d="M477.3,98c-19.1,0-34.6,15.5-34.6,34.6v69.2H581v-69.2c0-19.1-15.5-34.6-34.6-34.6L477.3,98L477.3,98z
	 M408.1,513c0-19.1-15.5-34.6-34.6-34.6s-34.6,15.5-34.6,34.6v207.5c0,19.1,15.5,34.6,34.6,34.6s34.6-15.5,34.6-34.6V513z
	 M546.4,513c0-19.1-15.5-34.6-34.6-34.6s-34.6,15.5-34.6,34.6v207.5c0,19.1,15.5,34.6,34.6,34.6s34.6-15.5,34.6-34.6V513z
	 M650.2,478.4c19.1,0,34.6,15.5,34.6,34.6v207.5c0,19.1-15.5,34.6-34.6,34.6s-34.6-15.5-34.6-34.6V513
	C615.6,493.9,631.1,478.4,650.2,478.4L650.2,478.4z"/>
<path class="st0" d="M219.3,300c41.1-26.4,138-63.7,292.6-63.7c154.1,0,248.3,37.1,293.4,64.2c16.4,9.9,37.6,4.6,47.5-11.8
	s4.6-37.6-11.8-47.5c-57.1-34.3-164-74.1-329.1-74.1c-164.6,0-275.2,39.6-329.9,74.6c-16.1,10.3-20.8,31.7-10.4,47.8
	C181.8,305.7,203.2,310.3,219.3,300L219.3,300z"/>
<path class="st0" d="M511.8,305.5c273.6,0,387.6,62.2,332.2,311.2c-2,9.2-4,18.1-5.9,26.8C788.1,870.2,775.3,928,511.8,928
	s-276.2-57.8-326.3-284.4c-1.9-8.7-3.9-17.6-5.9-26.8C124.3,367.8,238.2,305.5,511.8,305.5L511.8,305.5z M511.8,374.7
	c-66.4,0-119.6,3.8-161.4,12.2c-42.1,8.5-67.9,20.7-83.6,33.9c-24.9,20.8-45.8,63.5-19.6,180.9c2.1,9.5,4.1,18.6,6.1,27.3
	c11.1,50.5,19.7,89.3,29.4,121.3c11.3,37.2,21.8,57,32.8,69.2c19.2,21.4,57.7,39.3,196.5,39.3s177.3-17.9,196.5-39.3
	c11-12.2,21.5-31.9,32.8-69.2c9.7-32.1,18.3-70.9,29.4-121.3c1.9-8.7,3.9-17.8,6.1-27.3c26.1-117.4,5.3-160.1-19.6-180.9
	c-15.8-13.2-41.6-25.4-83.6-33.9C631.5,378.5,578.2,374.7,511.8,374.7L511.8,374.7z"/>
</svg>
