<?xml version="1.0" encoding="utf-8"?>
<!-- Generator: Adobe Illustrator 25.0.1, SVG Export Plug-In . SVG Version: 6.00 Build 0)  -->
<svg version="1.1" id="Layer_1" xmlns="http://www.w3.org/2000/svg" xmlns:xlink="http://www.w3.org/1999/xlink" x="0px" y="0px"
	 viewBox="0 0 1024 1024" style="enable-background:new 0 0 1024 1024;" xml:space="preserve">
<style type="text/css">
	.st0{fill:#CCCCCC;}
</style>
<path class="st0" d="M512.1,98c-17.3,0-30.1,9.4-37.7,16.1c-8,7.3-14.9,16.6-21.1,25.8c-12.5,18.7-24.6,43.1-35.6,67.9
	c-22.1,50.1-42.2,107.7-52.6,139.1c-0.3,0.5-0.7,0.8-1.4,0.8c-32.9,1.1-93,4-145.3,11.8c-25.9,3.8-52.2,9-72.3,16.6
	c-10,3.7-21.1,8.9-30.1,16.3c-9.3,7.6-20,20.8-20,39.8c0,13.2,4.8,24.8,9.3,33.1c4.8,8.9,11.4,17.7,18.3,26.1
	c13.5,16.7,31.5,34.6,50.2,51.6c37.7,34.2,81.3,67.9,105.8,86.5c0.7,0.3,0.7,0.8,0.7,1.3c-9.7,31.2-26.3,88.3-36.7,141.3
	c-5.2,26.3-9.3,53-9.7,75.6c-0.3,11.2,0,22.8,2.4,33.5c2.1,9.9,6.6,23.9,18.3,34.2c13.1,11.7,29.1,13.2,40.1,12.5
	c11.1-0.7,22.5-3.9,32.5-7.7c20.1-7.6,42.9-20.4,65-34.2c44.3-27.9,91-64.1,117.9-85.4c0.4-0.4,1-0.4,1.3,0l0,0
	c27,21.3,73.7,57.6,118.3,85.5c22.1,13.8,45.3,26.6,65.7,34.2c10.4,3.8,21.8,7,33.2,7.7c11.1,0.7,26.6-0.9,39.8-11.7
	c12.1-10.1,17.3-24,19.7-34.3c2.4-10.9,3.1-22.7,2.8-34c-0.3-22.7-4.8-49.5-10.4-75.8c-11.1-53-28.4-110.1-38.4-141.4
	c-0.3-0.6,0-1.1,0.3-1.4c24.9-18.7,68.1-52.5,105.5-86.5c18.7-16.9,36.7-34.8,50.5-51.4c6.6-8.3,13.1-17.1,18-26
	c4.5-8.3,9.3-19.9,9.3-33c0-19-10.7-32.2-20.1-39.7c-9-7.4-19.7-12.6-29.7-16.3c-20.4-7.6-46.3-12.8-72.3-16.6
	c-52.6-7.7-112.4-10.7-145.6-11.8c-0.3,0-1-0.4-1-0.8c-10.4-31.5-29.7-89.1-51.5-139.1c-10.7-24.8-22.8-49.2-34.9-67.9
	c-6.2-9.2-13.1-18.5-21.1-25.8C542.5,107.4,529.4,98,512.1,98L512.1,98z M430.5,368.8c10.4-30.9,29.7-85.9,50.5-132.9
	c10.4-23.7,20.8-43.9,29.7-57.8c0.3-0.1,0.3-0.2,0.3-0.3c0.3-0.5,0.7-0.9,1-1.4c0.3,0.5,0.7,1,1,1.5c9,13.7,19,33.9,29.4,57.6
	c20.4,46.9,39.1,101.9,49.1,132.9c9,28.2,34.9,47.6,64.7,48.6c32.2,1.1,89.2,3.9,137.7,11.1c23.5,3.5,43.2,7.7,56.7,12.5
	c-1.7,2.1-3.5,4.4-5.5,7c-10.4,12.8-25.6,28-43.2,44.1c-35.3,31.9-76.4,64.1-101,82.5c-23.9,18.1-33.6,49.4-24.6,77.9
	c10,30.7,26.6,85,37,134.3c5.2,24.8,8.3,46.9,8.6,63.4v6.6c-0.7-0.2-1.4-0.5-2.1-0.8c-13.8-5.2-32.5-15-53.3-28
	c-41.2-25.8-85.4-60-111.7-80.9c-25.6-20.5-62.3-20.6-87.9,0c-26.3,20.9-70.9,55.1-111.7,80.9c-20.8,13-38.7,22.8-52.6,28v-5.9
	c0.7-16.8,3.8-39,8.6-64c10-49.5,25.6-104,34.9-134.6c8.6-28.3-1.4-58.9-24.9-76.7c-24.2-18.3-65.7-50.5-101-82.5
	c-17.6-16.1-32.9-31.3-43.6-44.2c-2.1-2.6-3.8-4.9-5.5-7c13.5-4.8,33.2-9,57.1-12.5c48.4-7.1,105.5-10,137.7-11
	C395.5,415.9,421.1,396.8,430.5,368.8L430.5,368.8z"/>
</svg>
