<?xml version="1.0" encoding="utf-8"?>
<!-- Generator: Adobe Illustrator 25.0.1, SVG Export Plug-In . SVG Version: 6.00 Build 0)  -->
<svg version="1.1" id="Layer_1" xmlns="http://www.w3.org/2000/svg" xmlns:xlink="http://www.w3.org/1999/xlink" x="0px" y="0px"
	 viewBox="0 0 1024 1024" style="enable-background:new 0 0 1024 1024;" xml:space="preserve">
<style type="text/css">
	.st0{fill:#CCCCCC;}
</style>
<path class="st0" d="M278.3,245.8C133.4,263.1,96,307.8,96,409.2c0,104.1,39.1,148.4,193.7,164.7c-7.6-20.2-12.8-41.8-14.5-64.7
	c-0.3-2.2-0.3-4.5-0.7-6.8c-33.2-4.6-56.4-10.5-72.6-17.2c-19-7.9-24.9-15.5-28-21.5c-4.5-8.3-8.6-23.6-8.6-54.5s4.1-46.2,8.6-54.5
	c3.1-6,9-13.6,28-21.5c15.6-6.4,37.4-12.1,68.1-16.6C271.3,290.2,274.1,266.1,278.3,245.8L278.3,245.8z M747.6,502.5
	c33.2-4.6,56.4-10.5,72.6-17.2c19-7.9,24.9-15.5,28-21.5c4.5-8.3,8.6-23.6,8.6-54.5s-4.2-46.2-8.6-54.5c-3.1-6-9-13.6-28-21.5
	c-15.6-6.4-37.3-12.1-68.1-16.6c-1.4-26.4-4.2-50.5-8.3-70.8C888.7,263.1,926,307.8,926,409.2c0,104.1-39.1,148.4-193.7,164.7
	c7.6-20.2,12.8-41.8,14.5-64.7C747.2,507,747.2,504.7,747.6,502.5L747.6,502.5z"/>
<path class="st0" d="M753.8,166.9c39.8,48,38,206.5,27.3,346.8c-9.7,127.7-111,224-235.5,239.2v105.9h69.2c19,0,34.6,15.5,34.6,34.6
	S633.8,928,614.8,928H407.3c-19,0-34.6-15.5-34.6-34.6s15.6-34.6,34.6-34.6h69.2V753C352,737.8,250.7,641.5,241,513.8
	C230.3,373.5,228.6,215,268.3,167C344,75,678,75,753.8,166.9L753.8,166.9z M511,167.2c-46.7,0-91.6,5.3-128,14.9
	c-38.7,10.3-56.7,22.8-61.6,28.9v0.1c-0.7,1.3-4.5,8.2-8.3,25.4c-4.1,18.6-6.9,43.2-8.6,72.7c-2.8,58.9,0,130.3,5.5,199.3
	c7.6,100.2,94.1,177.4,200.9,177.4s193.3-77.3,200.9-177.4c5.5-69,8.3-140.4,5.5-199.3c-1.7-29.5-4.5-54.1-8.6-72.7
	c-3.8-17.2-7.6-24.1-8.3-25.4V211c-4.8-6.1-22.8-18.6-61.6-28.9C602.7,172.5,557.7,167.2,511,167.2L511,167.2z"/>
</svg>
