<?xml version="1.0" encoding="utf-8"?>
<!-- Generator: Adobe Illustrator 25.0.1, SVG Export Plug-In . SVG Version: 6.00 Build 0)  -->
<svg version="1.1" id="Layer_1" xmlns="http://www.w3.org/2000/svg" xmlns:xlink="http://www.w3.org/1999/xlink" x="0px" y="0px"
	 viewBox="0 0 1024 1024" style="enable-background:new 0 0 1024 1024;" xml:space="preserve">
<style type="text/css">
	.st0{fill:#CCCCCC;}
</style>
<path class="st0" d="M616.8,98c52.2,0,59.4,22,63.1,47.1l0.2,1.6c0.2,1.1,0.3,2.2,0.5,3.3l0.2,1.7c4.3,31.4,8.9,64.9,91.6,64.9
	c155.6,0,155.6,158.2,155.6,350C928,864.2,854.8,928,513,928S98,867.8,98,566.6v-11.7c0.1-190.1,3.1-338.3,155.6-338.3
	c82.7,0,87.3-33.5,91.5-64.9l0.2-1.7c3.7-27,8.3-52.1,63.9-52.1h207.6V98z M613.2,167.2H412.8v0.1c-2.3,15.9-7.9,53.4-40.2,82.3
	c-31.3,28-73.9,36.1-119,36.1c-27.1,0-39.9,6.5-46.7,12c-7.6,6.1-16.2,17.5-23.3,40.9c-15.4,49.7-16.4,123-16.4,221.9v6.1
	c0,152.2,20.6,211.2,55.4,241.3c17.9,15.5,46.1,28.9,94.2,38c48.5,9.2,112,12.9,196.2,12.9h2.6c82.8-0.1,145.4-4.1,193.3-13.3
	c48.1-9.3,76.3-23,94.3-38.7c35.1-30.6,55.6-90,55.6-240.1v-6c0-97.1-1-170.5-16.4-220.8c-7.3-23.8-16-35.7-23.8-42
	c-6.9-5.7-19.6-12.2-46.3-12.2c-45.1,0-87.7-8.1-119.1-36.1c-32.3-28.9-37.8-66.4-40.2-82.3L613.2,167.2L613.2,167.2z"/>
<path class="st0" d="M720.5,409.2c-19.1,0-34.6-15.5-34.6-34.6s15.5-34.6,34.6-34.6s34.6,15.5,34.6,34.6S739.6,409.2,720.5,409.2z"
	/>
<path class="st0" d="M513,374.7c95.5,0,172.9,77.4,172.9,172.9S608.5,720.5,513,720.5s-172.9-77.4-172.9-172.9
	S417.5,374.7,513,374.7z M513,443.8c-57.3,0-103.8,46.4-103.8,103.8c0,57.3,46.4,103.8,103.8,103.8S616.8,605,616.8,547.6
	C616.8,490.3,570.3,443.8,513,443.8z"/>
</svg>
