<?xml version="1.0" encoding="utf-8"?>
<!-- Generator: Adobe Illustrator 25.0.1, SVG Export Plug-In . SVG Version: 6.00 Build 0)  -->
<svg version="1.1" id="Layer_1" xmlns="http://www.w3.org/2000/svg" xmlns:xlink="http://www.w3.org/1999/xlink" x="0px" y="0px"
	 viewBox="0 0 1024 1024" style="enable-background:new 0 0 1024 1024;" xml:space="preserve">
<style type="text/css">
	.st0{fill:#CCCCCC;}
</style>
<path class="st0" d="M513,98c59.2,0,119.6,19.7,165.6,60.6c43.5,38.7,72.4,94.8,76.1,166C892.3,357.1,928,437.9,928,616.8
	C928,873,854.8,928,513,928S98,873,98,616.8c0-178.8,35.7-259.7,173.3-292.2c3.7-71.2,32.5-127.3,76.1-166
	C393.4,117.7,453.8,98,513,98z M515.6,374.7H513c-84.3,0-148.4,3.4-197.6,11.7c-49.4,8.2-78.4,20.4-96.5,34
	c-31.8,23.8-51.7,68.8-51.7,196.4s19.9,172.6,51.7,196.4c18.2,13.6,47.2,25.8,96.5,34c48.7,8.1,112,11.6,195,11.7h2.6
	c84.3,0,148.4-3.4,197.6-11.7c49.3-8.2,78.4-20.4,96.5-34c31.8-23.8,51.7-68.8,51.7-196.4s-19.9-172.6-51.7-196.4
	c-18.2-13.6-47.2-25.8-96.5-34C661.9,378.2,598.6,374.7,515.6,374.7L515.6,374.7z M513,167.2c-44.5,0-87.9,14.9-119.7,43.1
	c-26.2,23.3-46,57-51.6,102.6c47.8-5.3,104.4-7.4,171.3-7.4s123.5,2.1,171.3,7.4c-5.6-45.6-25.4-79.3-51.6-102.6
	C600.9,182,557.5,167.2,513,167.2L513,167.2z"/>
<path class="st0" d="M513,513c57.3,0,103.8,46.4,103.8,103.8S570.3,720.5,513,720.5s-103.8-46.4-103.8-103.8S455.7,513,513,513z
	 M513,582.2c-19.1,0-34.6,15.5-34.6,34.6s15.5,34.6,34.6,34.6c19.1,0,34.6-15.5,34.6-34.6S532.1,582.2,513,582.2z"/>
</svg>
