<?xml version="1.0" encoding="utf-8"?>
<!-- Generator: Adobe Illustrator 25.0.1, SVG Export Plug-In . SVG Version: 6.00 Build 0)  -->
<svg version="1.1" id="Layer_1" xmlns="http://www.w3.org/2000/svg" xmlns:xlink="http://www.w3.org/1999/xlink" x="0px" y="0px"
	 viewBox="0 0 1024 1024" style="enable-background:new 0 0 1024 1024;" xml:space="preserve">
<style type="text/css">
	.st0{fill:#CCCCCC;}
</style>
<path class="st0" d="M737.8,98C894.4,98,928,131.6,928,288.2s-33.6,190.2-190.2,190.2s-190.2-33.6-190.2-190.2S581.2,98,737.8,98z
	 M737.8,167.2c-37.6,0-63,2.1-80.8,6.1c-16.7,3.7-22.1,8.1-24,10l-0.1,0.1c-1.8,1.8-6.3,7.2-10.1,24.1c-3.9,17.7-6.1,43.2-6.1,80.8
	s2.1,63,6.1,80.8c3.8,16.9,8.2,22.3,10.1,24.1c1.8,1.8,7.2,6.3,24.1,10.1c17.7,3.9,43.2,6.1,80.8,6.1s63-2.1,80.8-6.1
	c16.9-3.8,22.3-8.2,24.1-10.1c1.8-1.8,6.3-7.2,10.1-24.1c3.9-17.5,6-42.4,6-79.1v-1.7c0-37.6-2.1-63-6-80.8
	c-3.8-16.9-8.2-22.3-10.1-24.1c-1.8-1.8-7.2-6.3-24.1-10.1C800.8,169.3,775.4,167.2,737.8,167.2L737.8,167.2z M288.2,547.6
	c156.6,0,190.2,33.6,190.2,190.2S444.8,928,288.2,928S98,894.4,98,737.8S131.6,547.6,288.2,547.6z M288.2,616.8
	c-37.6,0-63,2.1-80.8,6.1c-16.9,3.8-22.3,8.2-24.1,10.1l-0.1,0.1c-1.9,1.9-6.3,7.4-10,24c-3.9,17.7-6.1,43.2-6.1,80.8
	s2.1,63,6.1,80.8c3.8,16.9,8.2,22.3,10.1,24.1c1.8,1.8,7.2,6.3,24.1,10.1c17.7,3.9,43.2,6.1,80.8,6.1h1.7c36.6-0.1,61.6-2.2,79.1-6
	c16.9-3.8,22.3-8.2,24.1-10.1c1.8-1.8,6.3-7.2,10.1-24.1c3.9-17.7,6.1-43.2,6.1-80.8s-2.1-63-6.1-80.8c-3.8-16.9-8.2-22.3-10.1-24.1
	c-1.8-1.8-7.2-6.3-24.1-10.1C351.3,618.9,325.8,616.8,288.2,616.8z"/>
<path class="st0" d="M288.2,98c156.6,0,190.2,33.6,190.2,190.2s-33.6,190.2-190.2,190.2S98,444.8,98,288.2S131.6,98,288.2,98z
	 M288.2,167.2c-37.6,0-63,2.1-80.8,6.1c-16.7,3.7-22.1,8.1-24,10l-0.1,0.1c-1.8,1.8-6.3,7.2-10.1,24.1c-3.9,17.7-6.1,43.2-6.1,80.8
	s2.1,63,6.1,80.8c3.8,16.9,8.2,22.3,10.1,24.1c1.8,1.8,7.2,6.3,24.1,10.1c17.7,3.9,43.2,6.1,80.8,6.1s63-2.1,80.8-6.1
	c16.9-3.8,22.3-8.2,24.1-10.1c1.8-1.8,6.3-7.2,10.1-24.1c3.9-17.7,6.1-43.2,6.1-80.8s-2.1-63-6.1-80.8c-3.8-16.9-8.2-22.3-10.1-24.1
	c-1.8-1.8-7.2-6.3-24.1-10.1C351.3,169.3,325.8,167.2,288.2,167.2z M737.8,547.6c156.6,0,190.2,33.6,190.2,190.2
	S894.4,928,737.8,928s-190.2-33.6-190.2-190.2S581.2,547.6,737.8,547.6z M737.8,616.8c-37.6,0-63,2.1-80.8,6.1
	c-16.7,3.7-22.1,8.1-24,10l-0.1,0.1c-1.8,1.8-6.3,7.2-10.1,24.1c-3.9,17.7-6.1,43.2-6.1,80.8s2.1,63,6.1,80.8
	c3.8,16.9,8.2,22.3,10.1,24.1c1.8,1.8,7.2,6.3,24.1,10.1c17.5,3.9,42.4,6,79.1,6h1.7c37.6,0,63-2.1,80.8-6
	c16.9-3.8,22.3-8.2,24.1-10.1c1.8-1.8,6.3-7.2,10.1-24.1c3.9-17.5,6-42.4,6-79.1v-1.7c0-37.6-2.1-63-6-80.8
	c-3.8-16.9-8.2-22.3-10.1-24.1c-1.8-1.8-7.2-6.3-24.1-10.1C800.8,618.9,775.4,616.8,737.8,616.8L737.8,616.8z"/>
</svg>
