<?xml version="1.0" encoding="utf-8"?>
<!-- Generator: Adobe Illustrator 25.0.1, SVG Export Plug-In . SVG Version: 6.00 Build 0)  -->
<svg version="1.1" id="Layer_1" xmlns="http://www.w3.org/2000/svg" xmlns:xlink="http://www.w3.org/1999/xlink" x="0px" y="0px"
	 viewBox="0 0 1024 1024" style="enable-background:new 0 0 1024 1024;" xml:space="preserve">
<style type="text/css">
	.st0{fill:#CCCCCC;}
</style>
<path class="st0" d="M489.6,98.4c44.6-6.4,90.1,0.7,128.8,15c38.3,14.2,73.4,36.9,95,65.3c11.6,15.2,8.6,36.9-6.6,48.5
	c-15.2,11.6-36.9,8.6-48.5-6.6c-11.3-14.9-33.9-31.2-64-42.4c-29.7-11-63.5-15.9-95-11.4c-31.1,4.4-59.5,17.8-81.3,43.2
	c-17.9,20.9-33.1,52-40.1,97.6c39.5-2.9,84.3-4.1,135-4.1c341.8,0,415,55,415,311.2C928,871.1,854.8,926,513,926S98,871.1,98,614.8
	c0-193.5,41.7-272.2,209.3-299.2c6.8-64.6,27.3-114.5,58.3-150.6C399.9,124.9,444.5,104.8,489.6,98.4L489.6,98.4z M515.6,372.7H513
	c-84.3,0-148.4,3.5-197.6,11.7c-49.4,8.2-78.4,20.4-96.5,34c-31.8,23.8-51.7,68.8-51.7,196.4s19.9,172.6,51.7,196.4
	c18.2,13.6,47.2,25.8,96.5,34c49.2,8.2,113.4,11.7,197.6,11.7s148.4-3.4,197.6-11.7c49.3-8.2,78.4-20.4,96.5-34
	c31.8-23.8,51.7-68.8,51.7-196.4s-19.9-172.6-51.7-196.4c-18.2-13.6-47.2-25.8-96.5-34C661.9,376.2,598.6,372.7,515.6,372.7
	L515.6,372.7z"/>
<path class="st0" d="M409.2,614.8c0,57.3,46.4,103.8,103.8,103.8s103.8-46.4,103.8-103.8c0-57.3-46.4-103.8-103.8-103.8
	S409.2,557.4,409.2,614.8z M478.4,614.8c0,19.1,15.5,34.6,34.6,34.6c19.1,0,34.6-15.5,34.6-34.6s-15.5-34.6-34.6-34.6
	C493.9,580.2,478.4,595.7,478.4,614.8z"/>
</svg>
