<?xml version="1.0" encoding="utf-8"?>
<!-- Generator: Adobe Illustrator 25.0.1, SVG Export Plug-In . SVG Version: 6.00 Build 0)  -->
<svg version="1.1" id="Layer_1" xmlns="http://www.w3.org/2000/svg" xmlns:xlink="http://www.w3.org/1999/xlink" x="0px" y="0px"
	 viewBox="0 0 1024 1024" style="enable-background:new 0 0 1024 1024;" xml:space="preserve">
<style type="text/css">
	.st0{fill:#CCCCCC;}
</style>
<path class="st0" d="M513,98c276.7,0,415,138.3,415,415S789.7,928,513,928S98,789.7,98,513S236.3,98,513,98z M842.9,651.3H183.1
	c14.5,53.6,37.7,94.1,67.4,124c51.9,51.6,134.9,83.5,262.5,83.5s210.6-31.9,262.5-83.5C805.2,745.4,828.4,704.9,842.9,651.3z
	 M855.4,443.8H170.6c-2.4,21.4-3.5,44.5-3.5,69.2s1,47.7,3.5,69.2h684.8c2.4-21.4,3.5-44.5,3.5-69.2S857.8,465.3,855.4,443.8
	L855.4,443.8z M513,167.2c-127.6,0-210.6,31.9-262.5,83.5c-29.7,29.9-52.9,70.4-67.4,124h659.8c-14.5-53.6-37.7-94.1-67.4-124
	C723.6,199.1,640.6,167.2,513,167.2L513,167.2z"/>
<path class="st0" d="M513,98c76.4,0,138.3,185.8,138.3,415S589.4,928,513,928S374.7,742.2,374.7,513S436.6,98,513,98z M513,178.1
	c-0.3,0.5-1,1.1-1.4,1.7c-9,11.6-20.4,32.8-31.5,65.5c-21.4,64.9-36.3,159.5-36.3,267.7s14.9,202.8,36.3,267.7
	c11.1,32.8,22.5,53.9,31.5,65.5c0.3,0.6,1,1.2,1.4,1.7c0.3-0.5,1-1.1,1.4-1.7c9-11.6,20.4-32.8,31.5-65.5
	c21.4-64.9,36.3-159.5,36.3-267.7s-14.9-202.8-36.3-267.7c-11.1-32.8-22.5-53.9-31.5-65.5C514,179.2,513.3,178.6,513,178.1
	L513,178.1z"/>
</svg>
