<?xml version="1.0" encoding="utf-8"?>
<!-- Generator: Adobe Illustrator 25.0.1, SVG Export Plug-In . SVG Version: 6.00 Build 0)  -->
<svg version="1.1" id="Layer_1" xmlns="http://www.w3.org/2000/svg" xmlns:xlink="http://www.w3.org/1999/xlink" x="0px" y="0px"
	 viewBox="0 0 1024 1024" style="enable-background:new 0 0 1024 1024;" xml:space="preserve">
<style type="text/css">
	.st0{fill:#CCCCCC;}
</style>
<path class="st0" d="M298.3,518c-2.3-1-4.6-2-6.9-3.1c-22.6-10-42.7-19-60.4-27c-17.5,31.8-23.7,83.7-23.7,167.8
	c0,179.2,53.5,215,303.4,215c234.2,0,305.9-35.8,305.9-215c0-83.9-6.4-135.8-24.2-167.6c-17.6,8-37.5,16.9-59.9,26.8
	c-2.5,1.1-5.1,2.3-7.5,3.4c0.1,0,0.2,0.1,0.3,0.1h0.1c0.9,0.3,4.8,1.4,9.5,17.8c6.2,21.5,10,57.6,10,119.5
	c0,83.2-17.1,104.4-33.1,115c-11.6,7.7-31.1,15.4-65.5,20.8c-34.2,5.3-78.2,7.6-135.6,7.6c-61.5,0-107.3-2.3-142-7.6
	c-34.9-5.4-52.7-13-62.2-19.7c-12.7-8.9-27.6-27.7-27.6-116.1c0-62.1,3.6-98.3,9.7-120c2.8-10,5.4-14.1,6.4-15.4
	c0.6-0.8,1-1.3,2.6-2.1C298,518.2,298.1,518.1,298.3,518L298.3,518z"/>
<path class="st0" d="M512,154c78.2,0,152.2,34.8,252.3,84.2l3.5,1.8c48.9,24.1,90.3,44.5,119.1,62.3c14.7,9.1,30.6,20.1,43.4,33.5
	c12.8,13.4,29.6,36.7,29.6,69.1s-16.8,55.7-29.6,69.1s-28.7,24.4-43.4,33.5c-28.9,17.8-70.2,38.2-119.1,62.3l-3.5,1.8
	C664.2,621,590.2,655.8,512,655.8S359.8,621,259.7,571.6l-3.5-1.8c-48.9-24.1-90.3-44.5-119.1-62.3c-0.5-0.2-0.9-0.5-1.3-0.8v184.9
	c0,19.8-16.1,35.8-35.8,35.8s-36-16-36-35.8V404.7c0-32.3,16.8-55.6,29.6-69s28.7-24.4,43.4-33.5c28.9-17.8,70.2-38.2,119.1-62.3
	l3.5-1.8C359.8,188.8,433.8,154,512,154z M291.4,302.5c-103.8,51.2-155.7,76.8-155.7,102.4s51.9,51.2,155.7,102.4
	c207.6,102.4,233.6,102.4,441.2,0s207.6-102.4,0-204.8S499,200.1,291.4,302.5L291.4,302.5z"/>
</svg>
