<?xml version="1.0" encoding="utf-8"?>
<!-- Generator: Adobe Illustrator 25.0.1, SVG Export Plug-In . SVG Version: 6.00 Build 0)  -->
<svg version="1.1" id="Layer_1" xmlns="http://www.w3.org/2000/svg" xmlns:xlink="http://www.w3.org/1999/xlink" x="0px" y="0px"
	 viewBox="0 0 1024 1024" style="enable-background:new 0 0 1024 1024;" xml:space="preserve">
<style type="text/css">
	.st0{fill:#CCCCCC;}
</style>
<path class="st0" d="M589.9,98c111.5,0,174.1,10.3,217.5,34.6c47.9,26.8,79.5,63.6,101.4,122.4c12.3,33.1,17,72,18.7,129.5
	c0.5,15.8,0.7,23.7-0.6,30.9c-4.9,27-26.7,49.4-53.6,55.2c-6.4,1.4-13.8,1.5-27.2,1.5h-2h-1h-2.2c-22.7,0-41.1,22.5-41.1,50.4
	c0,27.8,18.4,50.4,41.1,50.4h3.2c14.4,0,22,0.1,28.7,1.5c27.1,5.8,49.4,29,53.9,56.3c1.2,7.2,0.8,14.7,0.1,29.6
	c-2.2,47.5-7.1,81.4-18,110.8c-21.9,58.7-53.5,95.5-101.4,122.4C764,917.7,701.4,928,589.9,928H436.1
	c-111.5,0-174.1-10.3-217.5-34.6c-47.9-26.8-79.5-63.6-101.4-122.4c-10.9-29.3-15.8-63.3-18-110.8c-0.7-15-1-22.4,0.1-29.6
	c4.5-27.3,26.8-50.6,53.9-56.3c6.6-1.4,14.3-1.5,28.7-1.5h3.2c22.7,0,41.1-22.5,41.1-50.4c0-27.8-18.4-50.4-41.1-50.4h-5.2
	c-13.5,0-20.8-0.2-27.2-1.5c-26.9-5.8-48.7-28.2-53.6-55.2c-0.7-3.8-0.9-7.7-1-12.9V401c0-4.5,0.2-9.8,0.4-16.6
	c1.8-57.5,6.4-96.5,18.7-129.5c21.9-58.7,53.5-95.5,101.4-122.4C262,108.3,324.6,98,436.1,98H589.9z M589.9,167.2H436.1
	c-110.5,0-157.1,10.9-183.6,25.8c-32.6,18.2-53.8,41.6-70.4,86.1c-8.2,22-12.7,51.4-14.4,107.6c-0.2,8.4-0.4,12.7-0.4,15.9v0.2h0.6
	c2.7,0.1,6.1,0.1,11.6,0.1h1.5h4.1c73.5,0,110.4,67.4,110.4,119.5s-36.9,119.5-110.4,119.5h-4.8c-5.8,0-9.3,0-12.1,0.1h-0.3
	l-0.1,0.1l-0.1,0.1c0,2.9,0.2,6.9,0.6,14.8c2.1,45,6.6,70.5,13.7,89.8c16.6,44.6,37.8,67.9,70.4,86.1
	c26.5,14.8,73.1,25.8,183.6,25.8h153.9c110.5,0,157.1-10.9,183.6-25.8c32.6-18.2,53.8-41.6,70.4-86.1c7.2-19.3,11.7-44.8,13.7-89.8
	c0.4-8,0.6-11.9,0.6-14.8l-0.1-0.1L858,642h-0.3c-2.7-0.1-6.3-0.1-12.1-0.1h-4.8c-73.5,0-110.4-67.4-110.4-119.5
	s36.9-119.5,110.4-119.5h5.6c5.5,0,8.9,0,11.6-0.1h0.6v-0.2c0-3.1-0.1-7.5-0.4-15.9c-1.7-56.1-6.3-85.6-14.4-107.5
	c-16.6-44.6-37.8-68-70.4-86.1C747.1,178.1,700.5,167.2,589.9,167.2L589.9,167.2z"/>
<path class="st0" d="M616.7,236.3c19.1,0,34.6,15.5,34.6,34.6v69.2c0,19.1-15.5,34.6-34.6,34.6s-34.6-15.5-34.6-34.6v-69.2
	C582.2,251.8,597.7,236.3,616.7,236.3L616.7,236.3z M651.3,478.4c0-19.1-15.5-34.6-34.6-34.6s-34.6,15.5-34.6,34.6v69.2
	c0,19.1,15.5,34.6,34.6,34.6s34.6-15.5,34.6-34.6V478.4L651.3,478.4z M616.7,651.3c19.1,0,34.6,15.5,34.6,34.6v69.2
	c0,19.1-15.5,34.6-34.6,34.6s-34.6-15.5-34.6-34.6v-69.2C582.2,666.8,597.7,651.3,616.7,651.3L616.7,651.3z"/>
</svg>
