<?xml version="1.0" encoding="utf-8"?>
<!-- Generator: Adobe Illustrator 25.0.1, SVG Export Plug-In . SVG Version: 6.00 Build 0)  -->
<svg version="1.1" id="Layer_1" xmlns="http://www.w3.org/2000/svg" xmlns:xlink="http://www.w3.org/1999/xlink" x="0px" y="0px"
	 viewBox="0 0 1024 1024" style="enable-background:new 0 0 1024 1024;" xml:space="preserve">
<style type="text/css">
	.st0{fill:#CCCCCC;}
</style>
<path class="st0" d="M100.3,391.1c7.6-36,31.5-64.4,54-85.1c23.5-21.8,53.3-41.8,85.1-59.9c64-36.2,144.9-69,225.8-94.5
	C545.8,126.1,629.8,107,700,99.4l0,0c35.3-3.7,69.2-4.9,98.9-1.5c27,3,64,11.1,90.3,37.9c25.9,26.5,33.9,63.2,36.7,89.9
	c3.5,29.8,2.4,64-1.4,99.2c-7.3,70.8-26.3,155.1-51.9,236.4c-25.2,81.1-58.1,162.4-95.1,226.2c-18,31.8-38.7,61.5-61.2,84.9
	c-21.4,22.4-51.2,45.5-88.9,51.8l0,0c-7.3,1.1-14.2,1.4-16.6,1.5h-0.3c-24.6,1-45.7-7.7-60.2-15.5c-15.6-8.3-30.1-19.3-42.9-30.8
	c-25.9-23.1-51.2-53.3-71.9-84.8c-20.1-31.1-38.7-67.6-47-103.6c-3.5-13.3-5.9-29.8-5.2-47.3c-19,0.9-37-2-51.5-5.6
	c-37.8-9.2-75.8-29.1-108-51.3c-32.5-22.4-63.6-50.1-86.5-79.1c-11.4-14.5-22.1-31-29.7-48.9C100.7,441.5,94.5,417.4,100.3,391.1
	 M187.8,366.5c-11.8,12.8-19.3,25.4-22.3,37.8l-0.2,1c-14.5,66.4,188.9,219,248.7,158.6l97.9-98.5c14.5-14.6,34.6-12.7,48.1,0.7
	c13.5,13.5,15.6,33.4,1,48l-97.9,98.8c-57.1,57.5,84.4,249.2,144.6,246.8c2.8-0.1,5.9-0.2,8.6-0.7
	C752.6,836.1,919,261.2,841.5,182.5c0-0.1,0-0.2-0.3-0.3l-2.2-2.1C760.9,114.3,298.1,244.6,187.8,366.5"/>
<path class="st0" d="M414,561.8c-13.5,13.5-13.5,35.4,0,48.9s35.4,13.5,48.9,0L609.7,464c13.5-13.5,13.5-35.4,0-48.9
	s-35.4-13.5-48.9,0L414,561.8z"/>
</svg>
