<?xml version="1.0" encoding="utf-8"?>
<!-- Generator: Adobe Illustrator 25.0.1, SVG Export Plug-In . SVG Version: 6.00 Build 0)  -->
<svg version="1.1" id="Layer_1" xmlns="http://www.w3.org/2000/svg" xmlns:xlink="http://www.w3.org/1999/xlink" x="0px" y="0px"
	 viewBox="0 0 1024 1024" style="enable-background:new 0 0 1024 1024;" xml:space="preserve">
<style type="text/css">
	.st0{fill:#CCCCCC;}
</style>
<path class="st0" d="M434.8,122.6c47.3-35.4,112.2-35.5,159.7-0.4C712.8,209.5,920.8,368.3,923.4,407l0.3,3.8
	c3.8,56.8,13.2,198.4-18.1,357.2c-17.8,90.3-70.4,131-177.8,144.4c-145.7,18.2-284,18.2-426.6,0C193.9,898.7,143,857.6,123.4,768
	c-35.6-162.4-25.9-306.8-17.8-361C111.5,368.3,317.5,210,434.8,122.6L434.8,122.6z M553.5,178.1c-23.1-17.1-54.3-17-77.4,0.2
	c-37.9,28.2-84.7,63.6-130.8,99.8l-5.8,4.5c-23,18.1-45.8,36.4-67,53.9c-32.9,27.2-61.1,51.9-80.9,71.4c-8.8,8.7-15,15.4-18.9,20.2
	c-6.8,55.1-12.8,182.6,18.4,324.9c7.5,34.3,18.9,51.1,32,61.6c14.5,11.7,39.5,22.8,87,28.8c136.8,17.5,269.3,17.5,409.4,0
	c47.7-5.9,73.2-16.9,87.8-28.7c12.9-10.3,24.1-26.7,30.7-60.3c27.8-141.1,21.5-268.3,17.5-329.2c-3.6-4.4-9-10.3-16.6-17.8
	c-19.4-19.4-47.4-44-80.4-71.2C692.7,282.1,612.4,221.5,553.5,178.1L553.5,178.1z"/>
<path class="st0" d="M409.3,853.2c-23.1-1.5-46.2-3.6-69.2-6.1V653.3c0-57.4,46.4-104,103.8-104h138.3c57.3,0,103.7,46.6,103.7,104
	v194.1c-23,2.4-46.1,4.4-69.2,5.9v-200c0-19.1-15.5-34.7-34.6-34.7H443.8c-19.1,0-34.6,15.5-34.6,34.7L409.3,853.2L409.3,853.2z"/>
</svg>
