<?xml version="1.0" encoding="utf-8"?>
<!-- Generator: Adobe Illustrator 25.0.1, SVG Export Plug-In . SVG Version: 6.00 Build 0)  -->
<svg version="1.1" id="Layer_1" xmlns="http://www.w3.org/2000/svg" xmlns:xlink="http://www.w3.org/1999/xlink" x="0px" y="0px"
	 viewBox="0 0 1024 1024" style="enable-background:new 0 0 1024 1024;" xml:space="preserve">
<style type="text/css">
	.st0{fill:#CCCCCC;}
</style>
<path class="st0" d="M512.4,582.2c313.3,0,380.4,30.5,380.4,172.9S825.7,928,512.4,928S132,897.5,132,755.1S199.1,582.2,512.4,582.2
	z M515.1,651.3h-2.6c-77.6,0-137.8,1.9-184.6,6.6c-47.5,4.8-76.6,12.1-94.4,20.2c-15.6,7.1-20.7,13.8-23.8,20.2
	c-4.4,9-8.4,25.3-8.4,56.7s3.9,47.7,8.4,56.7c3.1,6.4,8.2,13.1,23.8,20.2c17.8,8.1,46.9,15.4,94.4,20.2c46.8,4.7,107,6.6,184.6,6.6
	s137.8-1.9,184.6-6.6c47.5-4.8,76.6-12.1,94.4-20.2c15.6-7.1,20.7-13.8,23.8-20.2c4.4-9,8.4-25.3,8.4-56.7s-3.9-47.7-8.4-56.7
	c-3.1-6.4-8.2-13.1-23.8-20.2c-17.8-8.1-46.9-15.4-94.4-20.2C650.8,653.3,591.4,651.4,515.1,651.3L515.1,651.3z"/>
<path class="st0" d="M512.4,98c114.6,0,207.5,92.9,207.5,207.5S627,513,512.4,513s-207.5-92.9-207.5-207.5S397.8,98,512.4,98z
	 M512.4,167.2c-76.4,0-138.3,61.9-138.3,138.3S436,443.8,512.4,443.8s138.3-61.9,138.3-138.3S588.8,167.2,512.4,167.2z"/>
</svg>
