<?xml version="1.0" encoding="utf-8"?>
<!-- Generator: Adobe Illustrator 25.0.1, SVG Export Plug-In . SVG Version: 6.00 Build 0)  -->
<svg version="1.1" id="Layer_1" xmlns="http://www.w3.org/2000/svg" xmlns:xlink="http://www.w3.org/1999/xlink" x="0px" y="0px"
	 viewBox="0 0 1024 1024" style="enable-background:new 0 0 1024 1024;" xml:space="preserve">
<style type="text/css">
	.st0{fill:#CCCCCC;}
</style>
<path class="st0" d="M513,98c336.8,0,443,245.5,409,420.8c-40.9,210.3-258.4,345.1-358.5,396.8c-32,16.5-69,16.5-100.9,0
	C362.5,863.9,144.9,729.1,104,518.8C70,343.5,176.2,98,513,98z M513,168.1c-150.6,0-239.8,54-289.1,117.8
	c-50.9,65.9-65.5,150-52,219.3c16.5,84.8,69.6,158.6,135.7,219.6c65.7,60.7,139.2,104,186.3,128.3c12.2,6.3,25.9,6.3,38.1,0
	c47.1-24.3,120.6-67.6,186.3-128.3c66.2-61,119.2-134.8,135.7-219.6c13.5-69.3-1-153.4-52-219.3C752.8,222.2,663.6,168.1,513,168.1
	L513,168.1z"/>
<path class="st0" d="M513,308.4c76.4,0,138.3,62.8,138.3,140.3S589.4,588.9,513,588.9s-138.3-62.8-138.3-140.2
	C374.7,371.2,436.6,308.4,513,308.4z M513,378.5c-38.2,0-69.2,31.4-69.2,70.1s31,70.1,69.2,70.1s69.2-31.4,69.2-70.1
	S551.2,378.5,513,378.5L513,378.5z"/>
</svg>
