<?xml version="1.0" encoding="utf-8"?>
<!-- Generator: Adobe Illustrator 25.0.1, SVG Export Plug-In . SVG Version: 6.00 Build 0)  -->
<svg version="1.1" id="Layer_1" xmlns="http://www.w3.org/2000/svg" xmlns:xlink="http://www.w3.org/1999/xlink" x="0px" y="0px"
	 viewBox="0 0 1024 1024" style="enable-background:new 0 0 1024 1024;" xml:space="preserve">
<style type="text/css">
	.st0{fill:#CCCCCC;}
</style>
<path class="st0" d="M513,98c334.8,0,411.9,70.6,415,395.9v4c0,7.8-0.1,12.4-0.7,17.9c-0.7,6.3-1.7,10.6-3.8,19.2
	c-61.6,259.2-280.1,355.9-370.7,385.3c-15.6,5.1-23.5,7.6-39.8,7.6s-24.2-2.6-39.8-7.6C382.6,890.9,164.1,794.2,102.5,535
	c-2.1-8.6-3.1-12.9-3.8-19.2c-0.6-5.5-0.7-10.1-0.7-17.9v-4C101.1,168.6,178.2,98,513,98z M513,167.4c-169.8,0-245.2,19.9-284.3,57
	c-38,36-59.8,106-61.6,270.1v4.2v0.5v1c0,6.1,0.1,6.8,0.3,7.8c0,0.9,0,1.6,0.3,2.6c0.3,1.6,0.7,3.7,1.7,8.3
	C222.5,741.8,411,827.1,494.3,854.3c4.1,1.3,6.9,2.2,9,2.8s3.1,0.9,3.8,1l0,0c0.7,0.1,1.7,0.4,5.9,0.4s5.2-0.3,5.9-0.4l0,0
	c0.7-0.1,1.7-0.4,3.8-1c2.1-0.7,4.8-1.5,9-2.8c83.3-27.2,271.8-112.5,324.7-335.4c1-4.6,1.4-6.7,1.7-8.3c0.3-1.1,0.3-1.7,0.3-2.6
	c0.3-1.1,0.3-1.7,0.3-7.8v-1v-4.7c-1.7-164.2-23.5-234.1-61.6-270.1C758.2,187.3,682.8,167.4,513,167.4L513,167.4z"/>
<path class="st0" d="M641.3,435.1c13.5-13.6,13.5-35.6,0-49.1c-13.5-13.6-35.6-13.6-49.1,0L513,465.6L433.8,386
	c-13.5-13.6-35.6-13.6-49.1,0s-13.5,35.6,0,49.1l79.5,79.6l-79.5,79.6c-13.5,13.6-13.5,35.6,0,49.1c13.5,13.6,35.6,13.6,49.1,0
	l79.2-79.6l79.2,79.6c13.5,13.6,35.6,13.6,49.1,0s13.5-35.6,0-49.1l-79.5-79.6L641.3,435.1L641.3,435.1z"/>
</svg>
