<?xml version="1.0" encoding="utf-8"?>
<!-- Generator: Adobe Illustrator 25.0.1, SVG Export Plug-In . SVG Version: 6.00 Build 0)  -->
<svg version="1.1" id="Layer_1" xmlns="http://www.w3.org/2000/svg" xmlns:xlink="http://www.w3.org/1999/xlink" x="0px" y="0px"
	 viewBox="0 0 1024 1024" style="enable-background:new 0 0 1024 1024;" xml:space="preserve">
<style type="text/css">
	.st0{fill:#CCCCCC;}
</style>
<path class="st0" d="M612.9,148c124.2,0,159.4,155.6,159.4,363.2S737,874.3,612.9,874.3c-55,0-75-30.6-97.5-64.7
	c-28-42.7-59.8-90.9-168.1-90.9c-195,0-249.3-83-249.3-207.4s72.3-207.6,249.3-207.6c96.5,0,129.7-46.1,160.1-88.1
	C533.1,180.3,556.6,148,612.9,148z M612.9,217.2c-13.8,0-19,3.4-23.9,7.5c-7.3,6.4-12.8,13.9-23.5,28.7c-2.8,4-6.2,8.5-10,13.6
	c-15.6,21.1-38,49.4-73,71.1c-36.3,22.4-80.2,34.7-135.2,34.7c-78.9,0-121.7,18.6-144.9,39.3c-21.4,19.6-35.3,50.4-35.3,99.2
	c0,53.6,11.8,82.9,30.1,100.4c19.4,18.5,60.5,37.9,150.1,37.9c58.1,0,104.4,11.7,141.8,34.2c37,22.2,59.5,51.5,74.7,73.8
	c5.5,8,9.7,14.4,13.1,19.5c7.6,11.7,11.4,17.2,16.9,22.6l0.3,0.2c2.4,2.3,5.5,5.3,18.7,5.3c15.2,0,24.6-4.2,32.2-10.9
	c9-7.8,19.7-22.3,29.4-48c19.7-52.6,28.7-133,28.7-235.1s-9-182.5-28.7-235.1c-9.7-25.7-20.4-40.3-29.4-48
	C637.5,221.4,628.2,217.2,612.9,217.2L612.9,217.2z"/>
<path class="st0" d="M888.2,372.1c-9.7-16.3-31.1-21.5-47.4-11.6c-16.3,9.9-21.4,31.2-11.4,47.5v0.1l0.3,0.6
	c0.3,0.5,0.7,1.3,1.4,2.4c1,2.1,2.8,5.1,4.5,8.6c4.2,7.3,8,15.5,10.4,22.1c8.6,25.4,12.8,40.9,12.8,69.4s-4.2,44.1-12.8,69.4
	c-2.4,6.5-6.2,14.8-10.4,22.1c-1.7,3.5-3.5,6.5-4.5,8.6c-0.7,1-1,1.8-1.4,2.4l-0.3,0.6v0.1c-10,16.3-4.8,37.6,11.4,47.5
	c16.3,9.9,37.7,4.7,47.4-11.6l-27-16.5c1.7,1,3.5,2,4.8,2.9l22.1,13.6h0.3v-0.4l0.7-0.9c0.3-0.7,1-1.8,1.7-3.1
	c1.4-2.6,3.5-6.3,5.9-10.7c4.5-8.3,10.4-20.3,14.5-31.9c10-29.6,16.6-53.2,16.6-92s-6.6-62.4-16.6-92c-4.2-11.6-10-23.6-14.5-31.9
	c-2.4-4.3-4.5-8-5.9-10.6c-0.7-1.3-1.4-2.4-1.7-3.1l-0.7-0.9v-0.3L888.2,372.1l-29.4,18L888.2,372.1L888.2,372.1z"/>
</svg>
