<?xml version="1.0" encoding="utf-8"?>
<!-- Generator: Adobe Illustrator 25.0.1, SVG Export Plug-In . SVG Version: 6.00 Build 0)  -->
<svg version="1.1" id="Layer_1" xmlns="http://www.w3.org/2000/svg" xmlns:xlink="http://www.w3.org/1999/xlink" x="0px" y="0px"
	 viewBox="0 0 1024 1024" style="enable-background:new 0 0 1024 1024;" xml:space="preserve">
<style type="text/css">
	.st0{fill:#CCCCCC;}
</style>
<path class="st0" d="M791.3,253.7c9.8-9.6,13.2-24.1,7.9-36.7c-27.2-63.4-69.8-101-134-101c-62.3,0-87.9,35.2-116.2,73.6
	c-33.6,45.8-70.2,96.2-176.6,96.2C177.3,285.8,98,376.5,98,512.3c0,116.1,43.8,199.1,190.6,220.8c10.6,1.6,21.1-2.2,29.1-9.8
	l56.6-56.1c1.5-1.4,0.4-4-1.9-4c-98.9,0-144.2-21.2-165.7-41.6c-20.4-19.2-33.2-51-33.2-109.3c0-53.1,15.1-86.5,38.9-108
	c25.3-22.7,73.2-43.1,160-43.1c60.4,0,108.7-13.4,148.3-37.7c38.5-23.7,63.4-54.4,80.4-77.5c4.5-5.6,7.9-10.5,11.3-14.9
	c11.7-16.2,17.7-24.4,26-31.3c5.3-4.5,10.9-8.4,26.8-8.4c17,0,27.5,4.7,35.9,12.1c10.2,8.6,21.9,24.4,32.5,52.4
	c6.8,18.2,30.6,24.9,44.2,11.2L791.3,253.7L791.3,253.7z M462.6,691.9c8.7-8.8,21.9-12.2,33.6-7.5c11.3,4.6,21.9,9.9,32.1,15.9
	c40.8,24.2,65.3,56,81.9,80.5c6,8.8,10.6,15.7,14.3,21.3c8.7,12.7,12.8,18.8,18.9,24.7l0.4,0.2c2.6,2.7,6.4,6.1,21.5,6.1
	c17,0,27.5-4.7,36.2-12.1c9.8-8.5,21.5-24.4,32.1-52.3c21.9-57.4,31.7-145,31.7-256.3c0-35-1.1-67.6-3-97.7
	c-0.8-11.7,3.4-23.1,11.7-31.4c23-22.7,61.1-9.7,63.4,22.5c2.3,33.7,3.4,69.4,3.4,106.7c0,226.6-38.9,396.2-175.5,396.2
	c-60.8,0-83-33.4-107.6-70.6c-18.5-28.2-38.9-58.5-78.1-78.1C454.3,747.2,442.6,711.8,462.6,691.9L462.6,691.9z"/>
<path class="st0" d="M917,127.2c-14.7-14.8-38.9-14.8-54,0l-662,656c-9.1,9.2-12.8,22-10.6,33.9c1.5,7.1,4.9,13.9,10.6,19.5
	c15.1,14.7,39.2,14.7,54,0l662-655.9C931.7,165.9,931.7,142,917,127.2L917,127.2z"/>
</svg>
