<?xml version="1.0" encoding="utf-8"?>
<!-- Generator: Adobe Illustrator 25.0.1, SVG Export Plug-In . SVG Version: 6.00 Build 0)  -->
<svg version="1.1" id="Layer_1" xmlns="http://www.w3.org/2000/svg" xmlns:xlink="http://www.w3.org/1999/xlink" x="0px" y="0px"
	 viewBox="0 0 1024 1024" style="enable-background:new 0 0 1024 1024;" xml:space="preserve">
<style type="text/css">
	.st0{fill:#CCCCCC;}
</style>
<path class="st0" d="M685.9,478.4c-19.1,0-34.6,15.5-34.6,34.6c0,19.1,15.5,34.6,34.6,34.6h69.2c19.1,0,34.6-15.5,34.6-34.6
	c0-19.1-15.5-34.6-34.6-34.6H685.9L685.9,478.4z"/>
<path class="st0" d="M850.8,340.1H687.5c-22.9,0-45.6,4.5-66.7,13.2c-21.1,8.6-40.4,21.4-56.6,37.5c-16.2,16-29,35.1-37.8,56.1
	s-13.3,43.4-13.3,66.2c0,22.7,4.5,45.2,13.3,66.2s21.7,40.1,37.8,56.1c16.2,16.1,35.5,28.8,56.6,37.5c21.2,8.7,43.8,13.2,66.7,13.2
	h163.4c3.6-20.4,6.2-43.4,8-69.2H687.5c-13.7,0-27.3-2.7-40-7.9s-24.2-12.9-34-22.5c-9.7-9.6-17.4-21-22.7-33.7
	c-5.3-12.6-8-26.1-8-39.7c0-13.6,2.7-27.1,8-39.7s13-24,22.7-33.7s21.3-17.3,34-22.5s26.3-7.9,40-7.9h171.4
	C857,383.4,854.4,360.5,850.8,340.1L850.8,340.1z"/>
<path class="st0" d="M513,98c341.8,0,415,73.2,415,415s-73.2,415-415,415S98,854.8,98,513S171.2,98,513,98z M513,167.2
	c-83.9,0-146.5,4.6-194,15.1c-46.7,10.4-74.4,25.6-92.8,43.9c-18.3,18.4-33.5,46-43.9,92.8c-10.6,47.5-15.1,110.1-15.1,194
	s4.6,146.5,15.1,194c10.4,46.7,25.6,74.4,43.9,92.8c18.4,18.3,46,33.5,92.8,43.9c47.5,10.5,110.1,15.1,194,15.1s146.5-4.6,194-15.1
	c46.7-10.4,74.4-25.6,92.8-43.9c18.3-18.4,33.5-46,43.9-92.8c10.5-47.5,15.1-110.1,15.1-194s-4.6-146.5-15.1-194
	c-10.4-46.7-25.6-74.4-43.9-92.8c-18.4-18.3-46-33.5-92.8-43.9C659.5,171.8,596.9,167.2,513,167.2L513,167.2z"/>
</svg>
