<?xml version="1.0" encoding="utf-8"?>
<!-- Generator: Adobe Illustrator 25.0.1, SVG Export Plug-In . SVG Version: 6.00 Build 0)  -->
<svg version="1.1" id="Layer_1" xmlns="http://www.w3.org/2000/svg" xmlns:xlink="http://www.w3.org/1999/xlink" x="0px" y="0px"
	 viewBox="0 0 1024 1024" style="enable-background:new 0 0 1024 1024;" xml:space="preserve">
<style type="text/css">
	.st0{fill:#CCCCCC;}
</style>
<path class="st0" d="M651.3,755.1c-19.1,0-34.6-15.5-34.6-34.6V443.8h69.2v276.7C685.9,739.6,670.4,755.1,651.3,755.1z M340.1,305.5
	c0-19.1,15.5-34.6,34.6-34.6s34.6,15.5,34.6,34.6v276.7h-69.2L340.1,305.5L340.1,305.5z"/>
<path class="st0" d="M513,98c341.8,0,415,73.2,415,415s-73.2,415-415,415S98,854.8,98,513S171.2,98,513,98z M513,167.2
	c-83.9,0-146.5,4.6-194,15.1c-46.7,10.4-74.4,25.6-92.8,43.9c-18.3,18.4-33.5,46-43.9,92.8c-10.6,47.5-15.1,110.1-15.1,194
	s4.6,146.5,15.1,194c10.4,46.7,25.6,74.4,43.9,92.8c18.4,18.3,46,33.5,92.8,43.9c47.5,10.5,110.1,15.1,194,15.1s146.5-4.6,194-15.1
	c46.7-10.4,74.4-25.6,92.8-43.9c18.3-18.4,33.5-46,43.9-92.8c10.5-47.5,15.1-110.1,15.1-194s-4.6-146.5-15.1-194
	c-10.4-46.7-25.6-74.4-43.9-92.8c-18.4-18.3-46-33.5-92.8-43.9C659.5,171.8,596.9,167.2,513,167.2L513,167.2z"/>
<path class="st0" d="M651.3,270.9c57.3,0,103.8,46.4,103.8,103.8c0,57.3-46.4,103.8-103.8,103.8c-57.3,0-103.8-46.4-103.8-103.8
	C547.6,317.4,594,270.9,651.3,270.9z M651.3,340.1c-19.1,0-34.6,15.5-34.6,34.6s15.5,34.6,34.6,34.6s34.6-15.5,34.6-34.6
	S670.4,340.1,651.3,340.1L651.3,340.1z M374.7,547.6c57.3,0,103.8,46.4,103.8,103.8c0,57.3-46.4,103.8-103.8,103.8
	c-57.3,0-103.8-46.4-103.8-103.8C270.9,594,317.4,547.6,374.7,547.6z M374.7,616.8c-19.1,0-34.6,15.5-34.6,34.6s15.5,34.6,34.6,34.6
	s34.6-15.5,34.6-34.6S393.8,616.8,374.7,616.8L374.7,616.8z"/>
</svg>
