<?xml version="1.0" encoding="utf-8"?>
<!-- Generator: Adobe Illustrator 25.0.1, SVG Export Plug-In . SVG Version: 6.00 Build 0)  -->
<svg version="1.1" id="Layer_1" xmlns="http://www.w3.org/2000/svg" xmlns:xlink="http://www.w3.org/1999/xlink" x="0px" y="0px"
	 viewBox="0 0 1024 1024" style="enable-background:new 0 0 1024 1024;" xml:space="preserve">
<style type="text/css">
	.st0{fill:#CCCCCC;}
</style>
<path class="st0" d="M675.9,466.4c13.5-13.5,13.5-35.4,0-48.9s-35.6-13.5-49.1,0L478.4,565.9l-44.6-44.7
	c-13.5-13.5-35.6-13.5-49.1,0s-13.5,35.4,0,48.9l69.2,69.2c13.5,13.5,35.6,13.5,49.1,0L675.9,466.4L675.9,466.4z"/>
<path class="st0" d="M420.3,142.1c46.4-61.5,139.1-61.5,185.4,0l39.1,51.2l63.6-8.8c76.1-10.5,141.5,54.8,131.1,131.3l-8.6,63.6
	l51.2,38.8c61.2,46.6,61.2,139,0,185.6l-51.2,38.8l8.6,63.6c10.4,76.4-55,141.8-131.1,131.3l-63.6-8.8l-39.1,51.2
	c-46.3,61.5-139.1,61.5-185.4,0l-39.1-51.2l-63.6,8.8c-76.1,10.5-141.5-54.8-131.1-131.3l8.6-63.6l-51.2-38.8
	c-61.2-46.6-61.2-139,0-185.6l51.2-38.8l-8.6-63.6c-10.4-76.4,55-141.8,131.1-131.3l63.6,8.8L420.3,142.1z M543.8,189
	c-15.2-20.5-46.4-20.5-61.6,0l-39.1,51.2c-17,22.4-44.6,33.8-72.3,30l-63.6-8.8c-25.6-3.5-47.4,18.3-43.9,43.8l9,63.6
	c3.8,27.8-7.6,55.5-30.1,72.4l-51.2,39c-20.4,15.5-20.4,46.3,0,61.8l51.2,38.8c22.5,17,33.9,44.7,30.1,72.4l-9,63.6
	c-3.5,25.5,18.3,47.2,43.9,43.8l63.6-8.8c27.7-3.8,55.3,7.6,72.3,30l39.1,51.2c15.2,20.5,46.4,20.5,61.6,0l39.1-51.2
	c17-22.4,44.6-33.8,72.3-30l63.6,8.8c25.6,3.5,47.4-18.3,43.9-43.8l-9-63.6c-3.8-27.8,7.6-55.5,30.1-72.4L835,542
	c20.4-15.5,20.4-46.3,0-61.8l-51.2-38.8c-22.5-16.9-33.9-44.7-30.1-72.4l9-63.6c3.5-25.5-18.3-47.3-43.9-43.8l-63.6,8.8
	c-27.7,3.8-55.3-7.6-72.3-30L543.8,189z"/>
</svg>
