<?xml version="1.0" encoding="utf-8"?>
<!-- Generator: Adobe Illustrator 25.0.1, SVG Export Plug-In . SVG Version: 6.00 Build 0)  -->
<svg version="1.1" id="Layer_1" xmlns="http://www.w3.org/2000/svg" xmlns:xlink="http://www.w3.org/1999/xlink" x="0px" y="0px"
	 viewBox="0 0 1024 1024" style="enable-background:new 0 0 1024 1024;" xml:space="preserve">
<style type="text/css">
	.st0{fill:#CCCCCC;}
</style>
<path class="st0" d="M513,98c341.8,0,415,73.2,415,415s-73.2,415-415,415S98,854.8,98,513S171.2,98,513,98z M513,167.2
	c-83.9,0-146.5,4.6-194,15.1c-46.7,10.4-74.4,25.6-92.8,43.9c-18.3,18.4-33.5,46-43.9,92.8c-10.6,47.5-15.1,110.1-15.1,194
	s4.6,146.5,15.1,194c10.4,46.7,25.6,74.4,43.9,92.8c18.4,18.3,46,33.5,92.8,43.9c47.5,10.5,110.1,15.1,194,15.1s146.5-4.6,194-15.1
	c46.7-10.4,74.4-25.6,92.8-43.9c18.3-18.4,33.5-46,43.9-92.8c10.5-47.5,15.1-110.1,15.1-194s-4.6-146.5-15.1-194
	c-10.4-46.7-25.6-74.4-43.9-92.8c-18.4-18.3-46-33.5-92.8-43.9C659.5,171.8,596.9,167.2,513,167.2L513,167.2z"/>
<path class="st0" d="M409.2,270.9c76.4,0,138.3,61.9,138.3,138.3s-61.9,138.3-138.3,138.3s-138.3-61.9-138.3-138.3
	S332.9,270.9,409.2,270.9L409.2,270.9z M409.2,340.1c-38.2,0-69.2,31-69.2,69.2s31,69.2,69.2,69.2s69.2-31,69.2-69.2
	S447.5,340.1,409.2,340.1z"/>
<path class="st0" d="M182.3,707c-1.4-6.3-2.7-12.7-3.8-19c3.3-3.4,6.8-6.8,10.5-10.2c30-27.7,77.2-61,133.7-61
	c40.2,0,71.6,9.1,97.5,19.2c9.6,3.8,19,7.9,27,11.4c2.3,1,4.6,2,6.7,3c10,4.4,17.9,7.6,25.3,9.7c12.9,3.7,23.7,4,38.2-2.7
	c16.6-7.6,39.8-25.2,73.2-63.5C666,507.8,740.7,485.2,800,488.3c20.1,1,39.8,5.1,58.7,12.1c0,4.1,0,8.3,0,12.6
	c0,22.8-0.3,44.1-1,63.9c-0.7-0.4-1.3-0.8-1.9-1.3l-0.3-0.2c-0.8-0.6-1.7-1.1-2.6-1.6c-2.5-1.5-6.5-3.7-11.8-5.9
	c-10.6-4.6-25.9-9.5-44.8-10.5c-35.8-1.8-90.7,10.1-153.7,82.1c-35.8,40.9-66.6,67.1-96.5,80.8c-32,14.7-60.1,13.7-86.1,6.3
	c-12.1-3.5-23.6-8.3-34-12.8c-2.6-1.1-5.2-2.3-7.9-3.5c-7.9-3.5-15.3-6.7-23.4-9.9c-20.6-8.1-43.2-14.5-72.2-14.5
	c-29.9,0-60.6,18.5-86.8,42.7c-12.5,11.5-22.7,23.2-29.8,32c-1.5,1.9-2.9,3.6-4.1,5.2C194.4,750.4,187.7,731.3,182.3,707L182.3,707z
	"/>
</svg>
