<?xml version="1.0" encoding="utf-8"?>
<!-- Generator: Adobe Illustrator 25.0.1, SVG Export Plug-In . SVG Version: 6.00 Build 0)  -->
<svg version="1.1" id="Layer_1" xmlns="http://www.w3.org/2000/svg" xmlns:xlink="http://www.w3.org/1999/xlink" x="0px" y="0px"
	 viewBox="0 0 1024 1024" style="enable-background:new 0 0 1024 1024;" xml:space="preserve">
<style type="text/css">
	.st0{fill:#CCCCCC;}
</style>
<path class="st0" d="M742.3,98c94.9,0,149.1,113,92.2,192.1L642.4,557c-10,13.9-15.4,30.7-15.4,48v176c0,23.8-10.1,46.3-27.6,61.5
	l-76.8,66.7c-50,43.5-126,6.4-126-61.5V605.1c0-17.3-5.4-34.2-15.4-48l-192-266.9C132.3,211,186.5,98,281.4,98H742.3z M742.3,167.2
	H281.4c-17.5,0-32.4,9.8-40.7,27.1c-8.4,17.5-7.7,38.2,4.7,55.4l192,266.9c18.6,25.8,28.4,56.9,28.4,88.4v242.7
	c0,3.7,0.9,5.8,1.7,7.1c0.9,1.4,2.2,2.5,3.7,3.3c1.5,0.7,2.5,0.7,3,0.7c0.2,0,1.2-0.1,3.1-1.7l76.8-66.7c2-1.7,3.8-5,3.8-9.3v-176
	c0-31.6,9.8-62.6,28.4-88.4l192-266.9c12.4-17.2,13-38,4.7-55.4C774.6,177,759.8,167.2,742.3,167.2L742.3,167.2z"/>
<path class="st0" d="M408.1,236.3c-19.1,0-34.6,15.5-34.6,34.6s15.5,34.6,34.6,34.6h207.5c19.1,0,34.6-15.5,34.6-34.6
	s-15.5-34.6-34.6-34.6L408.1,236.3L408.1,236.3z"/>
</svg>
