<?xml version="1.0" encoding="utf-8"?>
<!-- Generator: Adobe Illustrator 25.0.1, SVG Export Plug-In . SVG Version: 6.00 Build 0)  -->
<svg version="1.1" id="Layer_1" xmlns="http://www.w3.org/2000/svg" xmlns:xlink="http://www.w3.org/1999/xlink" x="0px" y="0px"
	 viewBox="0 0 1024 1024" style="enable-background:new 0 0 1024 1024;" xml:space="preserve">
<style type="text/css">
	.st0{fill:#CCCCCC;}
</style>
<path class="st0" d="M513,98c341.7,0,415,73.2,415,415s-73.3,415-415,415S98,854.8,98,513S171.3,98,513,98z M513,167.2
	c-83.7,0-146.6,4.6-194,15.1c-46.7,10.4-74.4,25.6-92.7,43.9c-18.3,18.4-33.5,46-43.9,92.8c-10.7,47.5-15.2,110.1-15.2,194
	s4.5,146.5,15.2,194c10.4,46.7,25.6,74.4,43.9,92.8c18.3,18.3,46,33.5,92.7,43.9c47.4,10.5,110.3,15.1,194,15.1s146.6-4.6,194-15.1
	c46.7-10.4,74.4-25.6,92.7-43.9c18.3-18.4,33.5-46,43.9-92.8c10.7-47.5,15.2-110.1,15.2-194s-4.5-146.5-15.2-194
	c-10.4-46.7-25.6-74.4-43.9-92.8c-18.3-18.3-46-33.5-92.7-43.9C659.6,171.8,596.7,167.2,513,167.2L513,167.2z"/>
<path class="st0" d="M337.7,594.9c-6.9,17.7-27,26.4-45,19.4c-17.6-7-26.3-27.1-19.4-44.9l32.2,12.7
	C337.7,594.9,337.7,594.9,337.7,594.9L337.7,594.9z"/>
<path class="st0" d="M305.5,582.2l32.2,12.7v-0.3c0.3-0.3,0.3-0.9,0.7-1.6c0.7-1.5,1.7-3.7,3.1-6.6c2.4-5.7,6.2-13.8,11.1-23
	c10.4-18.8,23.9-40.4,39.4-56.5c16.6-16.8,29.7-22.1,39.1-21.5c9,0.6,27.7,7.1,52.9,46.4c30.4,47.1,65.7,75.2,106.2,77.9
	c39.8,2.6,71.6-20.1,93.4-42.3c22.1-22.8,39.4-50.9,50.8-72.1c4.8-8.9,9.3-17.9,13.5-27.1c1.4-3.5,2.8-6.2,3.5-8.2
	c0.3-1,0.7-1.8,1-2.3l0.3-0.7v-0.3c0,0,0,0-32.2-12.8l32.2,12.7c6.9-17.8-1.7-37.9-19.4-44.9c-18-7-38,1.7-45,19.4v0.4
	c-0.3,0.3-0.3,0.9-0.7,1.6c-0.7,1.5-1.7,3.7-3.1,6.6c-2.4,5.7-6.2,13.8-11.1,23c-10.4,18.8-23.9,40.4-39.4,56.5
	c-16.6,16.8-29.7,22.1-39.1,21.5c-9-0.6-27.7-7.1-52.9-46.4c-30.4-47.1-65.7-75.2-106.2-77.9c-39.8-2.6-71.6,20.1-93.4,42.3
	c-22.1,22.8-39.4,50.9-50.8,72.1c-4.8,8.9-9.3,17.9-13.5,27.1c-1.4,3.5-2.8,6.2-3.5,8.2c-0.3,1-0.7,1.8-1,2.4l-0.3,0.7v0.3
	C273.3,569.4,273.3,569.4,305.5,582.2L305.5,582.2z"/>
</svg>
