<?xml version="1.0" encoding="utf-8"?>
<!-- Generator: Adobe Illustrator 25.0.1, SVG Export Plug-In . SVG Version: 6.00 Build 0)  -->
<svg version="1.1" id="Layer_1" xmlns="http://www.w3.org/2000/svg" xmlns:xlink="http://www.w3.org/1999/xlink" x="0px" y="0px"
	 viewBox="0 0 1024 1024" style="enable-background:new 0 0 1024 1024;" xml:space="preserve">
<style type="text/css">
	.st0{fill:#CCCCCC;}
</style>
<path class="st0" d="M270.9,408.7c0,19.1-15.5,34.6-34.6,34.6s-34.6-15.5-34.6-34.6c0-88.1,28.1-159.2,84.6-207.6
	c55.6-47.7,133.7-69,225.6-69c91.7,0,170.3,21.1,226.5,68.5c57.1,48.3,85.9,119.5,85.9,208.2c0,19.1-15.5,34.6-34.6,34.6
	s-34.6-15.5-34.6-34.6c0-73.1-23.1-123-61.4-155.3c-39.3-33.1-99.6-52.2-181.9-52.2c-82.2,0-141.9,19.2-180.5,52.4
	C293.6,285.9,270.9,335.8,270.9,408.7L270.9,408.7z M270.9,719.9c0-19.1-15.5-34.6-34.6-34.6s-34.6,15.5-34.6,34.6
	c0,95.5,77.4,172.9,172.9,172.9h34.6c19.1,0,34.6-15.5,34.6-34.6s-15.5-34.6-34.6-34.6h-34.6C317.4,823.7,270.9,777.2,270.9,719.9
	L270.9,719.9z"/>
<path class="st0" d="M253.6,374.1c128.2,0,155.6,30.5,155.6,172.9s-27.5,172.9-155.6,172.9S98,689.4,98,547S125.5,374.1,253.6,374.1
	L253.6,374.1z M253.6,443.2c-65.4,0-74.1,9.8-74.5,10.2c-0.3,0.3-3.9,4.3-7.1,20.1c-3.2,16.1-4.9,39.3-4.9,73.5
	c0,34.2,1.7,57.4,4.9,73.5c3.1,15.7,6.8,19.7,7.1,20.1c0.3,0.4,9.1,10.2,74.5,10.2s74.1-9.8,74.5-10.2c0.3-0.3,3.9-4.3,7.1-20.1
	c3.2-16.1,4.9-39.3,4.9-73.5s-1.7-57.4-4.9-73.5c-3.1-15.7-6.8-19.7-7.1-20.1C327.7,453,319,443.2,253.6,443.2z M772.4,374.1
	C900.5,374.1,928,404.6,928,547s-27.5,172.9-155.6,172.9c-128.2,0-155.6-30.5-155.6-172.9C616.8,404.6,644.2,374.1,772.4,374.1
	L772.4,374.1z M772.4,443.2c-65.4,0-74.1,9.8-74.5,10.2c-0.3,0.3-3.9,4.3-7.1,20.1c-3.2,16.1-4.9,39.3-4.9,73.5
	c0,34.2,1.7,57.4,4.9,73.5c3.1,15.7,6.8,19.7,7.1,20.1c0.3,0.4,9.1,10.2,74.5,10.2s74.1-9.8,74.5-10.2c0.3-0.3,3.9-4.3,7.1-20.1
	c3.2-16.1,4.9-39.3,4.9-73.5s-1.7-57.4-4.9-73.5c-3.1-15.7-6.8-19.7-7.1-20.1C846.5,453,837.8,443.2,772.4,443.2z"/>
</svg>
