<?xml version="1.0" encoding="utf-8"?>
<!-- Generator: Adobe Illustrator 25.0.1, SVG Export Plug-In . SVG Version: 6.00 Build 0)  -->
<svg version="1.1" id="Layer_1" xmlns="http://www.w3.org/2000/svg" xmlns:xlink="http://www.w3.org/1999/xlink" x="0px" y="0px"
	 viewBox="0 0 1024 1024" style="enable-background:new 0 0 1024 1024;" xml:space="preserve">
<style type="text/css">
	.st0{fill:#CCCCCC;}
</style>
<path class="st0" d="M659.9,98.1c47-1.8,93,26,115.5,66.7C835.6,274,933.8,465.7,925.5,505.7C914.5,558,705.2,987.4,492.9,921
	c-65-20.4-297.4-152.2-346.5-200.2C-12.3,566.1,251.2,175.9,289.9,138.7C318.3,111.5,536.8,102.8,659.9,98.1L659.9,98.1z
	 M714.9,198.2c-10.7-19.2-33.2-31.7-52.2-31c-61.9,2.4-145.6,5.7-217.5,11.7c-36,3-67.4,6.6-90.6,10.8c-9.7,1.7-16.6,3.3-21.8,4.7
	c-2.8,3.7-6.6,8.5-11.1,14.5c-9.3,13.1-21.4,30.6-34.2,51.5c-26.3,41.9-56,95.7-79.5,152.1c-24.2,57.2-40.1,113.3-42.5,160.9
	c-2.4,47.1,8.6,77.9,29.1,98c7.3,6.8,25.6,20.8,55.7,40.3c28,18.5,62.6,39.4,97.9,59.7c73.7,42.2,141.4,76.2,165.6,83.7
	c27,8.4,58.4,3.4,97.5-21.8c40.1-25.5,80.6-67.5,118.3-117.2c37.3-49.1,69.2-102.2,92.3-146.2c11.4-22,20.8-41.2,27-56
	c3.5-7.8,5.5-13.4,6.9-17.1c-1-5.2-3.5-12.8-6.9-22.8c-8-22.3-20.1-51.1-35.3-83.6C783.4,325.8,744.7,252,714.9,198.2L714.9,198.2z"
	/>
<path class="st0" d="M494.3,308.8c28.7-50.1,93-67.3,143.2-38.4c49.8,28.9,67.1,93,38,143.1c-28.7,50.1-93,67.3-142.8,38.4
	C482.5,423,465.2,358.9,494.3,308.8z M554.1,343.3c-10,17.1-4.2,38.8,13.1,48.7c16.9,9.8,38.7,4,48.4-13c10-17,4.2-38.8-12.8-48.6
	C585.6,320.5,563.8,326.3,554.1,343.3z"/>
<path class="st0" d="M306.9,563.5c-16.6-9.6-38-3.9-47.7,12.8c-9.7,16.7-3.8,38,12.8,47.7l242,139.7c16.6,9.7,38,3.9,47.7-12.8
	c9.3-16.7,3.8-38.1-12.8-47.7L306.9,563.5L306.9,563.5z"/>
</svg>
