<?xml version="1.0" encoding="utf-8"?>
<!-- Generator: Adobe Illustrator 25.0.1, SVG Export Plug-In . SVG Version: 6.00 Build 0)  -->
<svg version="1.1" id="Layer_1" xmlns="http://www.w3.org/2000/svg" xmlns:xlink="http://www.w3.org/1999/xlink" x="0px" y="0px"
	 viewBox="0 0 1024 1024" style="enable-background:new 0 0 1024 1024;" xml:space="preserve">
<style type="text/css">
	.st0{fill:#CCCCCC;}
</style>
<path class="st0" d="M199.8,443.8h622.4H199.8z"/>
<path class="st0" d="M826.3,270.9c6.5,0,15.7,0.1,24.2,1.2c12.4,1.7,32.7,6.6,50.2,24.1s22.4,37.9,24.1,50.2
	c1.3,9.5,1.3,20.1,1.2,26.6v37.8c0,6.5,0,17-1.2,26.6c-1.7,12.4-6.5,32.7-24.1,50.2c-14.8,14.8-31.5,20.5-43.9,23
	c-0.1,73.3-0.6,134.6-5,184.7c-5,57-15.3,104.9-39.6,142c-25.4,38.9-63.1,61.6-112.7,74.4C651.3,924.2,589.2,928,511,928h-2.6
	c-76.9-0.1-138.2-3.9-186-16.2c-49.6-12.8-87.3-35.5-112.7-74.4c-24.2-37.1-34.5-85-39.5-142c-4.4-50.1-4.9-111.4-5-184.7
	c-12.3-2.5-29.1-8.2-43.8-23c-17.5-17.5-22.4-37.9-24.1-50.2c-1.1-8.4-1.2-17.7-1.2-24.2v-42.6c0-6.5,0.1-15.7,1.2-24.2
	c1.7-12.4,6.6-32.7,24.1-50.2s37.9-22.4,50.2-24.1c8.4-1.1,17.7-1.2,24.2-1.2L826.3,270.9z M787.7,513H234.3
	c0.1,72.4,0.7,129.9,4.7,176.4c4.7,54,13.9,87.8,28.5,110.2c13.5,20.6,34.2,35.4,72.1,45.2c39.2,10.1,93.8,14,171.3,14
	s132.1-3.9,171.3-14c37.9-9.8,58.6-24.6,72.1-45.2c14.7-22.4,23.8-56.2,28.5-110.2C787,642.9,787.6,585.4,787.7,513z M825,340.1H197
	c-14.5,0-22,0.3-26.8,5.1c-4.8,4.8-5.1,12.3-5.1,26.8v40c0,14.5,0.3,22,5.1,26.8c4.9,4.9,12.6,5,27.6,5h626.3c15,0,22.7-0.2,27.6-5
	c4.8-4.8,5-12.3,5-26.8v-40.1c0-14.5-0.3-22-5-26.8C847,340.4,839.5,340.1,825,340.1z"/>
<path class="st0" d="M597.5,98c66.8,0,121,54.2,121,121c0,66.9-54.2,121-121,121h-51.9v518.8h-69.2V340.1h-51.9
	c-66.9,0-121-54.2-121-121s54.2-121,121-121c33.9,0,64.5,13.9,86.5,36.3C533,111.9,563.6,98,597.5,98L597.5,98z M597.5,167.2
	c-22.6,0-41.8,14.4-48.9,34.6c-2,5.6-2.9,11.4-2.9,17.3V271h51.9c6.1,0,11.9-1,17.3-2.9c20.2-7.1,34.6-26.4,34.6-48.9
	C649.3,190.4,626.1,167.2,597.5,167.2L597.5,167.2z M424.5,167.2c-28.6,0-51.9,23.2-51.9,51.9c0,22.6,14.5,41.8,34.6,48.9
	c5.4,1.9,11.2,2.9,17.3,2.9h51.9V219c0-6.1-1-11.9-2.9-17.3C466.4,181.6,447.1,167.2,424.5,167.2L424.5,167.2z"/>
</svg>
