<?xml version="1.0" encoding="utf-8"?>
<!-- Generator: Adobe Illustrator 25.0.1, SVG Export Plug-In . SVG Version: 6.00 Build 0)  -->
<svg version="1.1" id="Layer_1" xmlns="http://www.w3.org/2000/svg" xmlns:xlink="http://www.w3.org/1999/xlink" x="0px" y="0px"
	 viewBox="0 0 1024 1024" style="enable-background:new 0 0 1024 1024;" xml:space="preserve">
<style type="text/css">
	.st0{fill:#CCCCCC;}
</style>
<path class="st0" d="M720,478.4c19.2,0,34.8-15.5,34.8-34.6s-15.6-34.6-34.8-34.6s-34.8,15.5-34.8,34.6S700.8,478.4,720,478.4z
	 M764.7,312.9c-18.6-4.3-39.7-7.8-63.6-10.4c0.7-9.1,1.1-19.7,1.1-32.2c0-68.8-12.2-80.8-20.7-86.5c-7.5-5.1-22.2-11.3-51.4-15.6
	c-29-4.3-67.4-6.3-119-6.3s-90.1,1.9-119,6.3c-29.2,4.4-43.9,10.6-51.4,15.6c-8.5,5.7-20.7,17.7-20.7,86.5c0,12.5,0.4,23.2,1.1,32.2
	c-23.9,2.6-45,6.1-63.6,10.4c-1.2-13-1.8-27.1-1.8-42.6C255.7,128.4,300.8,98,511.1,98s255.4,30.4,255.4,172.3
	C766.5,285.8,765.9,300,764.7,312.9L764.7,312.9z"/>
<path class="st0" d="M200.7,638c-6.2-23.4-8.4-57-8.4-109.4c0-103.4,17.2-129.1,40.9-143.3c16.4-9.9,43.7-18.7,91-24.4
	c46.8-5.6,107.5-7.5,186.9-7.5c87.6,0,152.2,1.9,200.5,7.5c49.2,5.7,74.2,14.6,87.5,23.2c10,6.5,17,14.9,22.3,35
	c6.2,23.4,8.4,57,8.4,109.4s-2.2,86-8.4,109.4c-5.3,20.1-12.4,28.6-22.3,35c-9.2,6-24,12.1-48.5,17.1c1.4,14.3,1.9,30.1,1.9,47.5
	c0,5.9-0.1,11.6-0.2,17.1c126.4-22.4,141.8-81.3,141.8-226.3c0-209.1-31.9-239-383.1-239c-319.2,0-383.1,29.9-383.1,239
	c0,146.6,15.7,205.1,146,227c-0.2-5.8-0.2-11.7-0.2-17.9c0-17.1,0.6-32.6,1.9-46.7c-27-5.2-42.9-11.6-52.6-17.9
	C213,666.5,206,658.1,200.7,638z"/>
<path class="st0" d="M521.8,547.6c124.3,0,182.3,0.9,209.3,30.1c23,24.8,23.7,69.9,23.7,152.4v7.8C754.8,896.3,710,928,510.1,928
	s-242.8-31.7-242.8-190.2v-10.3c0-81.1,1-125.6,23.7-150c26.9-29,84.5-29.9,207.5-29.9H521.8z M520.3,611.4H498h-3.9
	c-53.3,0-90.7,0.3-118.7,2.7c-24.9,2.2-34.3,5.6-37,6.9c-0.9,2-2.3,6.6-3.6,15.7c-2.8,19.8-3.1,47.4-3.2,91.1v3.3v1.7v5.1
	c0,79.7,12.5,97.1,21.7,104.2c6.2,4.8,18.6,11.1,45.3,15.6c26.3,4.4,61.5,6.5,109.4,6.5h2.1c49,0,84.9-2,111.8-6.5
	s39.7-10.8,46.3-15.8c9.5-7.3,22.4-24.9,22.4-104v-3.4v-5c0-44.6-0.3-72.7-3.2-92.7c-1.3-9.1-2.8-13.6-3.6-15.6
	c-2.7-1.3-12.2-4.8-37.7-7c-28.2-2.4-66-2.7-119.7-2.7h-4L520.3,611.4L520.3,611.4z"/>
</svg>
