<?xml version="1.0" encoding="utf-8"?>
<!-- Generator: Adobe Illustrator 25.0.1, SVG Export Plug-In . SVG Version: 6.00 Build 0)  -->
<svg version="1.1" id="Layer_1" xmlns="http://www.w3.org/2000/svg" xmlns:xlink="http://www.w3.org/1999/xlink" x="0px" y="0px"
	 viewBox="0 0 1024 1024" style="enable-background:new 0 0 1024 1024;" xml:space="preserve">
<style type="text/css">
	.st0{fill:#CCCCCC;}
</style>
<path class="st0" d="M651.3,305.5c0-19.1,15.5-34.6,34.6-34.6s34.6,15.5,34.6,34.6c0,67-25.5,119.8-65.6,155.5
	c-39.5,35.1-91.3,52-141.9,52s-102.3-16.8-141.9-52c-40.2-35.7-65.6-88.5-65.6-155.5c0-19.1,15.5-34.6,34.6-34.6
	s34.6,15.5,34.6,34.6c0,48.2,17.7,81.9,42.4,103.9c25.3,22.5,60,34.5,95.9,34.5s70.6-12,95.9-34.5
	C633.6,387.4,651.3,353.7,651.3,305.5L651.3,305.5z"/>
<path class="st0" d="M513,98c315.2,0,331.4,80.5,391,376.9c2.5,12.3,5,25,7.7,38.1c66.5,371.3-70.3,415-398.6,415
	S47.9,884.3,114.4,513c2.6-12.7,5.1-25.4,7.7-38.1C181.6,178.5,197.8,98,513,98z M513,167.2c-164.2,0-215.5,23.7-243.5,58.7
	c-16.3,20.3-30.2,51.1-44.3,102.3C213.4,371.3,203,423,190,487.9c-2.5,12.2-5,24.9-7.7,38c-32.8,184.1-7.2,250.8,28.4,281.2
	c20.1,17.2,51.9,31.1,103.9,40c51.8,8.9,117.1,11.7,198.5,11.7s146.6-2.8,198.5-11.7c52-8.9,83.8-22.8,103.9-40
	c35.5-30.4,61.2-97.1,28.4-281.2c-2.7-13.1-5.2-25.7-7.6-37.9v-0.1C823,423,812.6,371.3,800.8,328.2c-14-51.2-28-82-44.3-102.3
	C728.4,190.8,677.2,167.2,513,167.2L513,167.2z"/>
</svg>
