<?xml version="1.0" encoding="utf-8"?>
<!-- Generator: Adobe Illustrator 25.0.1, SVG Export Plug-In . SVG Version: 6.00 Build 0)  -->
<svg version="1.1" id="Layer_1" xmlns="http://www.w3.org/2000/svg" xmlns:xlink="http://www.w3.org/1999/xlink" x="0px" y="0px"
	 viewBox="0 0 1024 1024" style="enable-background:new 0 0 1024 1024;" xml:space="preserve">
<style type="text/css">
	.st0{fill:#CCCCCC;}
</style>
<path class="st0" d="M917.9,348.2c-10.1-8.7-26.4-8.7-59-8.7V547c32.6,0,48.9,0,59-8.7s10.1-22.7,10.1-50.6v-88.9
	C928,370.8,928,356.9,917.9,348.2z M238.3,588.3c-0.7-2.2-1.4-4.5-2-6.7c13.1,5.5,27.3,8.4,42.1,8.4h28.8l73.3,222.8
	c6.3,19.2,33.3,14.4,33.3-5.9V596c21.9,4.7,43.4,12,64.6,21v190c0,96.8-128.9,119.6-159,28L238.3,588.3L238.3,588.3z"/>
<path class="st0" d="M680.6,151.5c48.4-24,92.8-26.5,129.2-4.1c33.8,20.7,52.2,58,63,93.4c19.3,63.3,20.6,142.5,20.6,187v2.8
	c0,2.3,0,4.5,0,6.6v12c0,2.1,0,4.3,0,6.6v2.8c0,44.5-1.3,123.7-20.6,187c-10.8,35.4-29.3,72.7-63,93.4
	c-36.5,22.4-80.8,19.8-129.2-4.2c-22-10.9-44.3-22.8-66.3-34.6c-5-2.7-10-5.3-14.9-8c-27-14.5-53.8-28.4-81-40.7
	C464.1,627,410.7,610.1,356,610.1h-89.4C173.5,610.1,98,535.3,98,443.3c0-92.1,75.5-166.8,168.6-166.8H356
	c54.7,0,108.1-16.9,162.4-41.6c27.1-12.3,53.9-26.3,81-40.7c4.9-2.6,9.9-5.3,14.9-8C636.3,174.3,658.6,162.4,680.6,151.5z
	 M774.8,203c-10.3-6.3-28.7-10.7-64.6,7.1c-21,10.4-42.1,21.7-64,33.4h-0.1c-5,2.7-10.2,5.4-15.3,8.2
	c-27.2,14.5-55.6,29.4-84.8,42.6c-56.2,25.5-117.3,46.1-183,47.5v202.7c65.7,1.4,126.8,22,183,47.5c29.2,13.2,57.5,28.1,84.8,42.6
	c5.2,2.8,10.3,5.5,15.3,8.2h0.1c21.9,11.7,43,23,64,33.4c35.9,17.7,54.3,13.4,64.6,7.1c13-8,25.2-26.2,34.5-56.7
	c17.3-56.6,17.8-131.6,17.8-175.3V439v-4c0-43.8-0.5-118.7-17.8-175.3C800,229.3,787.8,211,774.8,203z M296.9,342h-30.2
	c-56.5,0-102.3,45.3-102.3,101.3s45.9,101.3,102.3,101.3h30.2V342L296.9,342z"/>
</svg>
