<?xml version="1.0" encoding="utf-8"?>
<!-- Generator: Adobe Illustrator 25.0.1, SVG Export Plug-In . SVG Version: 6.00 Build 0)  -->
<svg version="1.1" id="Layer_1" xmlns="http://www.w3.org/2000/svg" xmlns:xlink="http://www.w3.org/1999/xlink" x="0px" y="0px"
	 viewBox="0 0 1024 1024" style="enable-background:new 0 0 1024 1024;" xml:space="preserve">
<style type="text/css">
	.st0{fill:#CCCCCC;}
</style>
<path class="st0" d="M285.1,167.2c-15.5,0.1-37.5,11.4-61.1,31.5c-11.1,9.5-21,19.5-28.4,27.9c-3.7,4.2-6.7,7.9-8.9,10.8
	c-1.9,2.5-2.8,3.8-3.1,4.2c0,0.1,0,0.1,0,0.1l-0.9,1.6l-1,1.5c-9.4,13.1-14.5,28.3-14.5,46.5c0,19.2,5.4,42.7,18.4,70.4l0.3,0.7
	l0.3,0.7c28.6,68,91.1,155.2,167.9,238.4l0.3,0.4l0.3,0.4c7.7,8.8,27.3,28.7,47.8,48.8l2.2,2.1l2.2,2.1c14.7,14.3,29.5,28.3,40.4,38
	c76,68.1,152.4,121.9,213.7,146.8l0.7,0.2l0.6,0.3c56.8,25.7,93.9,21.9,118.4,4l1.2-0.9l1.3-0.8c5.4-3.2,26.3-19.4,45.4-41.7
	c19.9-23.2,30.3-44.2,30.1-58.5c-0.5-4.7-3.3-12.1-13.2-21.9l-0.2-0.2c-8.8-8.9-31.2-27.8-55.2-45.8l-2.2-1.6
	c-12.2-9.1-24-17.4-33.9-23.5c-4.9-3.1-9-5.4-12-6.9c-1.9-1-2.9-1.4-3.3-1.5c-11-2.1-20,1.8-38.6,12.2l-0.9,0.5
	c-2.7,1.6-6.1,3.8-11,7l-0.8,0.5c-9,5.9-22,14.4-35.2,20.5c-11.6,5.4-33.7,14-56,5.9l-0.7-0.3l-0.7-0.3
	c-29.1-12.1-57.1-27.9-83.4-46.4c-27.8-19.6-74-64.6-103.1-99.5l-0.4-0.5l-0.4-0.5c-26.9-34.8-49.6-72.8-65.6-112.1l-0.2-0.5
	l-0.2-0.4c-8.3-22.2,0.4-44,5.7-55.2c6-12.9,14.4-25.5,20.3-34.4c0.2-0.3,0.4-0.6,0.6-0.8c3.5-5.3,5.9-9,7.6-11.9l0.6-1.1
	c10.7-18.7,14.3-27.3,12.2-37.5c-0.1-0.3-0.5-1.3-1.5-3.1c-1.6-3-3.9-7-7-11.9c-6.3-9.8-14.7-21.5-24-33.7
	c-18.8-24.6-39.1-47.9-48.5-57.1C298.1,171.2,290.3,168,285.1,167.2L285.1,167.2z M98,291.2c0-31.5,8.9-60.6,26.6-85.7
	c4.2-6.7,11.3-15.7,19.2-24.7c9.3-10.4,21.4-22.9,35.4-34.8c26-22.1,66.2-49.4,109.6-48h1.3l1.3,0.1c24,2.6,45.9,14.6,64.6,32.6
	l0.1,0.1c10.6,10.3,27.9,30.2,44.7,51.3l1.9,2.4c2.8,3.6,5.7,7.2,8.4,10.8c10,13,19.7,26.5,27.4,38.5c3.9,6,7.5,12.1,10.4,17.8
	c2.7,5.2,5.8,12.1,7.4,19.5c8.2,38-9,67.9-18.6,84.8c-0.4,0.7-0.8,1.3-1.1,1.9l-0.8,1.4c-2.8,4.8-6.4,10.3-9.5,15l-0.3,0.5
	c-6.5,9.9-12.2,18.6-15.9,26.4c-1,2.2-1.7,3.9-2.1,5.2c13.2,31.2,31.6,62.1,54,91c27,32.1,68.4,72,89.5,86.8
	c21.4,15,43.4,27.6,65.8,37.3c1.4-0.4,3.4-1.1,6.2-2.4c8.2-3.8,17.2-9.6,27.1-16.1l0.4-0.3c4.4-2.9,9.3-6.1,13.8-8.7l0.2-0.1
	l1.5-0.8c0.6-0.3,1.2-0.7,1.8-1c17.1-9.6,47-26.5,85.4-18.5c7.3,1.5,14.2,4.6,19.4,7.2c5.7,2.8,11.7,6.3,17.7,10.1
	c12.1,7.5,25.6,17,38.6,26.7c25.2,18.8,51.4,40.6,64.4,53.5l0.5,0.5l0.2,0.2l-0.1-0.1c18.2,18,31.3,40.2,33.3,66.1l0.1,0.6v0.6
	c1.8,42.6-24.8,81.7-46.7,107.1c-21.9,25.4-46.8,45.9-60.2,54.5l-0.6,0.4c-52.1,37.3-117.1,33.1-183.9,3.6l-2-0.9
	c-72.2-29.4-155.3-89.3-233.3-159.1c-12.5-11.2-30.3-28-47.6-44.9l-2.3-2.2c-5.4-5.2-10.6-10.5-15.7-15.5l-2.1-2.1
	c-13.1-13.2-24.4-24.9-30.7-32C224.8,563.4,157,470.7,123.5,392.7l-1-2.4l0.1,0.2l0.1,0.2c0.2,0.3-0.8-1.9-0.2-0.4l0,0l-0.8-1.8
	C106.4,355.1,98,322.2,98,291.2z"/>
</svg>
