<?xml version="1.0" encoding="utf-8"?>
<!-- Generator: Adobe Illustrator 25.0.1, SVG Export Plug-In . SVG Version: 6.00 Build 0)  -->
<svg version="1.1" id="Layer_1" xmlns="http://www.w3.org/2000/svg" xmlns:xlink="http://www.w3.org/1999/xlink" x="0px" y="0px"
	 viewBox="0 0 1024 1024" style="enable-background:new 0 0 1024 1024;" xml:space="preserve">
<style type="text/css">
	.st0{fill:#CCCCCC;}
</style>
<path class="st0" d="M478.4,789.4c11.2,0.2,22.7,0.2,34.6,0.2c11.9,0,23.4-0.1,34.6-0.2v69.4h103.8c19.1,0,34.6,15.5,34.6,34.6
	S670.4,928,651.3,928H374.7c-19.1,0-34.6-15.5-34.6-34.6s15.5-34.6,34.6-34.6h103.8v-69.2v-0.2H478.4z"/>
<path class="st0" d="M513,98c341.8,0,415,61,415,345.8s-73.2,345.8-415,345.8s-415-61-415-345.8S171.2,98,513,98z M515.6,167.2H513
	c-84.1,0-147.8,3.8-196.4,12.8c-48.5,9-76.9,22.2-94.9,37.2c-34.1,28.4-54.5,83.3-54.5,226.6s20.4,198.2,54.5,226.6
	c18.1,15,46.5,28.3,94.9,37.2c48.7,9,112.3,12.8,196.4,12.8s147.8-3.8,196.4-12.8c48.5-9,76.9-22.2,94.9-37.2
	c34.1-28.4,54.5-83.3,54.5-226.6s-20.4-198.2-54.5-226.6c-18.1-15-46.5-28.3-94.9-37.2C661.3,171.1,598.5,167.2,515.6,167.2
	L515.6,167.2z"/>
</svg>
