<?xml version="1.0" encoding="utf-8"?>
<!-- Generator: Adobe Illustrator 25.0.1, SVG Export Plug-In . SVG Version: 6.00 Build 0)  -->
<svg version="1.1" id="Layer_1" xmlns="http://www.w3.org/2000/svg" xmlns:xlink="http://www.w3.org/1999/xlink" x="0px" y="0px"
	 viewBox="0 0 1024 1024" style="enable-background:new 0 0 1024 1024;" xml:space="preserve">
<style type="text/css">
	.st0{fill:#CCCCCC;}
</style>
<path class="st0" d="M513,98c129.8,0,238.7,26.4,313.7,101.3C901.6,274.3,928,383.2,928,513c0,67.2-67.2,96.9-115,80.3
	c-19.3-6.8-46.4-11.1-83.9-11.1c-69.2,0-100.8,14.6-116.6,30.4c-15.8,15.8-30.4,47.3-30.4,116.6c0,37.5,4.3,64.6,11.1,83.9
	c16.7,47.7-13,115-80.3,115c-129.8,0-238.7-26.4-313.7-101.3C124.4,751.7,98,642.8,98,513s26.4-238.7,101.3-313.7
	C274.3,124.4,383.2,98,513,98z M513,167.2C268,167.2,167.2,268,167.2,513c0,227.3,86.8,330.5,295,344.2c1.3,0.1,2.6,0.2,3.9,0.2
	c15,0.9,30.6,1.3,46.9,1.3c11.4,0,18.7-12.2,15-23c-10.2-29.1-15-64.5-15-106.7c0-153,63-216,216.1-216c42.2,0,77.6,4.8,106.7,15
	c10.8,3.8,23-3.6,23-15c0-16.3-0.5-31.9-1.3-46.9c-0.1-1.3-0.2-2.6-0.2-3.9C843.5,254,740.3,167.2,513,167.2z"/>
<path class="st0" d="M461.1,340.1c28.6,0,51.9-23.2,51.9-51.9c0-28.6-23.2-51.9-51.9-51.9c-28.6,0-51.9,23.2-51.9,51.9
	C409.2,316.8,432.5,340.1,461.1,340.1z M634,409.2c28.6,0,51.9-23.2,51.9-51.9c0-28.6-23.2-51.9-51.9-51.9
	c-28.6,0-51.9,23.2-51.9,51.9C582.2,386,605.4,409.2,634,409.2L634,409.2z M374.7,426.5c0,28.6-23.2,51.9-51.9,51.9
	c-28.6,0-51.9-23.2-51.9-51.9c0-28.6,23.2-51.9,51.9-51.9C351.4,374.7,374.7,397.9,374.7,426.5L374.7,426.5z M357.4,651.3
	c28.6,0,51.9-23.2,51.9-51.9c0-28.6-23.2-51.9-51.9-51.9c-28.6,0-51.9,23.2-51.9,51.9S328.7,651.3,357.4,651.3z"/>
</svg>
