<?xml version="1.0" encoding="utf-8"?>
<!-- Generator: Adobe Illustrator 25.0.1, SVG Export Plug-In . SVG Version: 6.00 Build 0)  -->
<svg version="1.1" id="Layer_1" xmlns="http://www.w3.org/2000/svg" xmlns:xlink="http://www.w3.org/1999/xlink" x="0px" y="0px"
	 viewBox="0 0 1024 1024" style="enable-background:new 0 0 1024 1024;" xml:space="preserve">
<style type="text/css">
	.st0{fill:#CCCCCC;}
</style>
<path class="st0" d="M513,98c341.8,0,415,73.2,415,415s-73.2,415-415,415S98,854.8,98,513S171.2,98,513,98z M852.6,651.3H173.4
	c2.3,20.6,5.3,39.1,9,55.7c10.4,46.7,25.6,74.4,43.9,92.8c18.4,18.3,46,33.5,92.8,43.9c47.5,10.5,110.1,15.2,194,15.2
	s146.5-4.6,194-15.1c46.7-10.4,74.4-25.6,92.8-43.9c18.3-18.4,33.5-46,43.9-92.8C847.4,690.4,850.4,671.9,852.6,651.3L852.6,651.3z
	 M513,167.2c-83.9,0-146.5,4.6-194,15.1c-46.7,10.4-74.4,25.6-92.8,43.9c-18.3,18.4-33.5,46-43.9,92.8
	c-10.6,47.5-15.1,110.1-15.1,194c0,24.9,0.4,47.9,1.2,69.2h689.2c0.8-21.3,1.2-44.3,1.2-69.2c0-83.9-4.6-146.5-15.1-194
	c-10.4-46.7-25.6-74.4-43.9-92.8c-18.4-18.3-46-33.5-92.8-43.9C659.5,171.8,596.9,167.2,513,167.2L513,167.2z"/>
<path class="st0" d="M685.9,424.4c19,0,34.6,15.5,34.6,34.6s-15.6,34.6-34.6,34.6H340.1c-19,0-34.6-15.5-34.6-34.6
	s15.6-34.6,34.6-34.6H685.9L685.9,424.4z"/>
</svg>
