<?xml version="1.0" encoding="utf-8"?>
<!-- Generator: Adobe Illustrator 25.0.1, SVG Export Plug-In . SVG Version: 6.00 Build 0)  -->
<svg version="1.1" id="Layer_1" xmlns="http://www.w3.org/2000/svg" xmlns:xlink="http://www.w3.org/1999/xlink" x="0px" y="0px"
	 viewBox="0 0 1024 1024" style="enable-background:new 0 0 1024 1024;" xml:space="preserve">
<style type="text/css">
	.st0{fill:#CCCCCC;}
</style>
<path class="st0" d="M598.4,550.8c-18.6,0-33.5,14.9-33.5,33.3c0,18.4,14.9,33.3,33.5,33.3h133.1c18.3,0,33.2-14.9,33.2-33.3
	c0-18.4-14.9-33.3-33.2-33.3H598.4L598.4,550.8z M464.9,684.1c-18.3,0-33.2,14.9-33.2,33.3s14.9,33.3,33.2,33.3h266.6
	c18.3,0,33.2-14.9,33.2-33.3s-14.9-33.3-33.2-33.3H464.9L464.9,684.1z"/>
<path class="st0" d="M543.6,118.7c40.5,3.8,76.7,9.7,99.3,17.7c45.8,16.3,70.4,44.5,81,76.5c5.6,16.1,7.3,32.7,7.6,46.4
	C915,282.9,948.6,363.6,918,580.9c-38.5,271.6-117.2,329.8-446.5,329.8c-227.7,0-327.6-27.9-354.9-135.3l-0.3,0.1
	c-5-20-9.6-62-12.9-112.3c-3.7-51.4-6-114.2-5.3-177.2c0.7-62.9,4.3-126.9,12.3-180.4c4.3-26.7,9.6-51.7,16.9-72.9
	c7-20.5,16.6-40.9,31.5-55.3c25.6-24.9,66.1-39.1,107.2-47.9c42.5-9.1,91.6-13.6,139.8-14.9C454.3,113.1,502.4,114.9,543.6,118.7
	L543.6,118.7z M555.5,317.1c-81,0-142.7,3.6-190.9,12.2c-47.8,8.6-77,21.2-96.3,35.6c-36.8,27.1-63.7,79.4-83,216.1
	C166,717.6,178,770,207.2,797.1c15.3,14.3,40.8,27,86.3,35.5c45.5,8.6,106.2,12.2,187.6,12.2c81,0,142.7-3.7,190.9-12.2
	c47.8-8.5,77-21.2,96.3-35.5c36.5-27.1,63.7-79.5,83-216.1s7.3-189-21.9-216.1c-15.3-14.4-40.8-27-86.3-35.6
	C697.3,320.7,636.5,317.1,555.5,317.1L555.5,317.1z M407.8,181c-45.8,1.3-90.6,5.5-127.8,13.5c-38.8,8.3-63.4,19.5-74.7,30.5
	c-3.7,3.6-9.3,12.2-14.9,29.1c-5.6,16.2-10.3,37-13.9,61.5c-3.7,23.6-6.3,49.8-8.3,77.5c56.8-113,164.3-142,396.7-142
	c36.5,0,69.7,0.7,99.9,2.3c-0.7-6.5-1.7-12.8-3.7-19c-4-11.7-12.9-25.4-40.5-35.2c-14.3-5.1-43.8-10.5-83-14.1
	C499.1,181.5,453.3,179.8,407.8,181L407.8,181z"/>
</svg>
