<?xml version="1.0" encoding="utf-8"?>
<!-- Generator: Adobe Illustrator 25.0.1, SVG Export Plug-In . SVG Version: 6.00 Build 0)  -->
<svg version="1.1" id="Layer_1" xmlns="http://www.w3.org/2000/svg" xmlns:xlink="http://www.w3.org/1999/xlink" x="0px" y="0px"
	 viewBox="0 0 1024 1024" style="enable-background:new 0 0 1024 1024;" xml:space="preserve">
<style type="text/css">
	.st0{fill:#CCCCCC;}
</style>
<path class="st0" d="M629.9,323.4c-6.2-11.3-18.3-18.2-31.1-17.9c-12.8,0.2-24.6,7.6-30.1,19.1L425.2,611.5l-63.3-115.2
	c-6.2-11-18-17.9-30.4-17.9H271c-19,0-34.6,15.5-34.6,34.6c0,19.1,15.6,34.6,34.6,34.6h40l85.1,155c6.2,11.3,18.3,18.2,31.1,17.9
	c12.8-0.2,24.6-7.6,30.1-19.1l143.5-286.9l63.3,115.2c6.2,11,18,17.9,30.4,17.9H755c19,0,34.6-15.5,34.6-34.6
	c0-19.1-15.6-34.6-34.6-34.6h-40L629.9,323.4L629.9,323.4z"/>
<path class="st0" d="M513,98c341.7,0,415,73.2,415,415s-73.3,415-415,415S98,854.8,98,513S171.3,98,513,98z M513,167.2
	c-83.7,0-146.6,4.6-194,15.1c-46.7,10.4-74.4,25.6-92.7,43.9c-18.3,18.4-33.5,46-43.9,92.8c-10.7,47.5-15.2,110.1-15.2,194
	s4.5,146.5,15.2,194c10.4,46.7,25.6,74.4,43.9,92.8c18.3,18.3,46,33.5,92.7,43.9c47.4,10.5,110.3,15.1,194,15.1s146.6-4.6,194-15.1
	c46.7-10.4,74.4-25.6,92.7-43.9c18.3-18.4,33.5-46,43.9-92.8c10.7-47.5,15.2-110.1,15.2-194s-4.5-146.5-15.2-194
	c-10.4-46.7-25.6-74.4-43.9-92.8c-18.3-18.3-46-33.5-92.7-43.9C659.6,171.8,596.7,167.2,513,167.2L513,167.2z"/>
</svg>
