<?xml version="1.0" encoding="utf-8"?>
<!-- Generator: Adobe Illustrator 25.0.1, SVG Export Plug-In . SVG Version: 6.00 Build 0)  -->
<svg version="1.1" id="Layer_1" xmlns="http://www.w3.org/2000/svg" xmlns:xlink="http://www.w3.org/1999/xlink" x="0px" y="0px"
	 viewBox="0 0 1024 1024" style="enable-background:new 0 0 1024 1024;" xml:space="preserve">
<style type="text/css">
	.st0{fill:#CCCCCC;}
</style>
<path class="st0" d="M513,98c341.7,0,415,73.2,415,415s-73.3,415-415,415S98,854.8,98,513S171.3,98,513,98z M513,167.2
	c-83.7,0-146.6,4.6-194,15.1c-46.7,10.4-74.4,25.6-92.7,43.9c-18.3,18.4-33.5,46-43.9,92.8c-10.7,47.5-15.2,110.1-15.2,194
	s4.5,146.5,15.2,194c10.4,46.7,25.6,74.4,43.9,92.8c18.3,18.3,46,33.5,92.7,43.9c47.4,10.5,110.3,15.1,194,15.1s146.6-4.6,194-15.1
	c46.7-10.4,74.4-25.6,92.7-43.9c18.3-18.4,33.5-46,43.9-92.8c10.7-47.5,15.2-110.1,15.2-194s-4.5-146.5-15.2-194
	c-10.4-46.7-25.6-74.4-43.9-92.8c-18.3-18.3-46-33.5-92.7-43.9C659.6,171.8,596.7,167.2,513,167.2L513,167.2z"/>
<path class="st0" d="M443.8,270.9c-19,0-34.6,15.5-34.6,34.6s15.6,34.6,34.6,34.6h138.3c19,0,34.6-15.5,34.6-34.6
	s-15.6-34.6-34.6-34.6H443.8L443.8,270.9z"/>
<path class="st0" d="M513,582.2c57.4,0,103.8,46.4,103.8,103.8c0,57.3-46.3,103.8-103.8,103.8c-57.4,0-103.8-46.4-103.8-103.8
	C409.2,628.6,455.6,582.2,513,582.2z M513,651.3c-19,0-34.6,15.5-34.6,34.6s15.6,34.6,34.6,34.6s34.6-15.5,34.6-34.6
	S532,651.3,513,651.3z"/>
</svg>
