<?xml version="1.0" encoding="utf-8"?>
<!-- Generator: Adobe Illustrator 25.0.1, SVG Export Plug-In . SVG Version: 6.00 Build 0)  -->
<svg version="1.1" id="Layer_1" xmlns="http://www.w3.org/2000/svg" xmlns:xlink="http://www.w3.org/1999/xlink" x="0px" y="0px"
	 viewBox="0 0 1024 1024" style="enable-background:new 0 0 1024 1024;" xml:space="preserve">
<style type="text/css">
	.st0{fill:#CCCCCC;}
</style>
<path class="st0" d="M857.8,343.6c-6.9-32-16.3-55.5-27-73.3c-35.6,35-80.6,77.4-129.3,114.6c-67.1,51.3-133.8,86.6-188.5,86.6
	S391.6,436.3,324.5,385c-48.8-37.2-93.7-79.7-129.3-114.6c-10.7,17.8-20.1,41.3-27,73.3c-0.3,1.5-0.7,3-1,4.6
	c32.2,30.8,70.6,65.4,111.7,96.7c68.4,52.3,152.8,102,234.1,102s165.7-49.7,234.1-102.1c41.2-31.4,79.5-65.9,111.7-96.7
	C858.5,346.7,858.1,345.1,857.8,343.6L857.8,343.6z"/>
<path class="st0" d="M513,132c341.7,0,415,67.2,415,380.4c0,313.3-73.3,380.4-415,380.4S98,825.7,98,512.4
	C98,199.2,171.3,132,513,132z M513,195.4c-83.7,0-146.6,4.2-194,13.9c-46.7,9.5-74.4,23.4-92.7,40.3c-18.3,16.8-33.5,42.2-43.9,85
	c-10.7,43.5-15.2,101-15.2,177.9s4.5,134.3,15.2,177.9c10.4,42.8,25.6,68.2,43.9,85s46,30.7,92.7,40.3c47.4,9.7,110.3,13.9,194,13.9
	s146.6-4.2,194-13.9c46.7-9.5,74.4-23.4,92.7-40.3c18.3-16.8,33.5-42.2,43.9-85c10.7-43.5,15.2-101,15.2-177.9
	s-4.5-134.3-15.2-177.9c-10.4-42.8-25.6-68.2-43.9-85c-18.3-16.8-46-30.7-92.7-40.3C659.6,199.6,596.7,195.4,513,195.4L513,195.4z"
	/>
</svg>
