<?xml version="1.0" encoding="utf-8"?>
<!-- Generator: Adobe Illustrator 25.0.1, SVG Export Plug-In . SVG Version: 6.00 Build 0)  -->
<svg version="1.1" id="Layer_1" xmlns="http://www.w3.org/2000/svg" xmlns:xlink="http://www.w3.org/1999/xlink" x="0px" y="0px"
	 viewBox="0 0 1024 1024" style="enable-background:new 0 0 1024 1024;" xml:space="preserve">
<style type="text/css">
	.st0{fill:#CCCCCC;}
</style>
<path class="st0" d="M513,98c341.7,0,415,61.5,415,368.9c0,199.8-34.6,322.8-190.2,322.8c-79.7,0-105.8,36.4-128.3,71.9l-1.4,2.2
	l-1.4,2.2c-20,32-38.7,62-93.7,62s-73.7-30-93.7-62c-0.9-1.5-1.9-2.9-2.8-4.4l-1.4-2.2c-22.1-34.8-48.5-69.6-126.9-69.6
	C132.6,789.7,98,662.8,98,466.9C98,163.1,171.3,98,513,98z M515.6,167.2H513c-84,0-147.3,4.1-195.7,13.6
	c-47.7,9.5-75.7,23.4-94.1,39.5c-35.6,31.6-56,93.2-56,246.7c0,97.2,9.3,163.4,29.4,203.9c9.3,18.4,19.7,29.5,31.8,36.6
	c12.1,7.2,30.4,13.1,59.8,13.1c49.8,0,90.3,11.2,123.1,33.5c31.5,21.4,49.8,49.2,61.6,67.7l4.8,7.5c10.4,16.1,13.5,21.4,18.3,25.7
	l0.3,0.2c1,1,3.8,3.7,16.6,3.7c12.8,0,15.6-2.8,16.6-3.7l0.3-0.2c4.8-4.3,8-9.6,18.3-25.7l4.8-7.5c11.8-18.5,30.1-46.3,61.6-67.7
	c33.2-22.3,73.3-33.5,123.1-33.5c29.7,0,48.4-5.8,60.5-12.9c11.8-6.8,22.1-17.5,31.1-35.5c20.1-39.8,29.4-105.8,29.4-205.1
	c0-155.6-20.8-216.8-56-247.9c-18-15.8-46-29.5-93.7-38.7C661.2,171.1,598.3,167.2,515.6,167.2L515.6,167.2z"/>
<path class="st0" d="M409.2,478.4c0,19.1-15.6,34.6-34.6,34.6S340,497.5,340,478.4s15.6-34.6,34.6-34.6
	C393.7,443.8,409.2,459.3,409.2,478.4L409.2,478.4z M547.6,478.4c0,19.1-15.6,34.6-34.6,34.6s-34.6-15.5-34.6-34.6
	s15.6-34.6,34.6-34.6S547.6,459.3,547.6,478.4L547.6,478.4z M651.3,513c19,0,34.6-15.5,34.6-34.6s-15.6-34.6-34.6-34.6
	s-34.6,15.5-34.6,34.6S632.3,513,651.3,513z"/>
</svg>
