<?xml version="1.0" encoding="utf-8"?>
<!-- Generator: Adobe Illustrator 27.9.0, SVG Export Plug-In . SVG Version: 6.00 Build 0)  -->
<svg version="1.1" id="Layer_1" xmlns="http://www.w3.org/2000/svg" xmlns:xlink="http://www.w3.org/1999/xlink" x="0px" y="0px"
	 viewBox="0 0 1024 1024" style="enable-background:new 0 0 1024 1024;" xml:space="preserve">
<style type="text/css">
	.st0{fill:#CCCCCC;}
</style>
<circle class="st0" cx="512" cy="758.1" r="50"/>
<g>
	<path class="st0" d="M506.4,659.6c-16.9,0-31.7-12.2-34.5-29.4c-6.5-39.9-1.8-75.8,13.9-106.7c21.6-42.6,56.7-60.2,82.4-73.1
		c18.1-9.1,28.4-14.6,31.5-22.5c5.1-13.2,0.5-42.6-18-71.1c-9.3-14.3-35.5-47.8-77.2-50c-41.2-2.1-81.8,26.1-101.2,70.3
		c-7.7,17.7-28.4,25.8-46.1,18.1c-17.7-7.7-25.8-28.4-18.1-46.1C370,278.3,437.9,233.2,508,236.8c52,2.7,100.3,32.5,132.3,81.7
		c13.6,20.8,23.2,43.8,28,66.5c5.3,25.1,4.1,48.6-3.2,67.8c-12.9,33.7-42,48.3-65.5,60.1c-21.5,10.8-40.1,20.1-51.3,42.2
		C539.4,572.5,537,594,541,619c3.1,19.1-9.9,37.1-29,40.1C510.2,659.4,508.3,659.6,506.4,659.6z"/>
</g>
<path class="st0" d="M513,98c341.7,0,415,73.2,415,415s-73.3,415-415,415S98,854.8,98,513S171.3,98,513,98z M513,167.2
	c-83.7,0-146.6,4.6-194,15.1c-46.7,10.4-74.4,25.6-92.7,43.9c-18.3,18.4-33.5,46-43.9,92.8c-10.7,47.5-15.2,110.1-15.2,194
	s4.5,146.5,15.2,194c10.4,46.7,25.6,74.4,43.9,92.8c18.3,18.3,46,33.5,92.7,43.9c47.4,10.5,110.3,15.1,194,15.1s146.6-4.6,194-15.1
	c46.7-10.4,74.4-25.6,92.7-43.9c18.3-18.4,33.5-46,43.9-92.8c10.7-47.5,15.2-110.1,15.2-194s-4.5-146.5-15.2-194
	c-10.4-46.7-25.6-74.4-43.9-92.8c-18.3-18.3-46-33.5-92.7-43.9C659.6,171.8,596.7,167.2,513,167.2L513,167.2z"/>
</svg>
