<?xml version="1.0" encoding="utf-8"?>
<!-- Generator: Adobe Illustrator 25.0.1, SVG Export Plug-In . SVG Version: 6.00 Build 0)  -->
<svg version="1.1" id="Layer_1" xmlns="http://www.w3.org/2000/svg" xmlns:xlink="http://www.w3.org/1999/xlink" x="0px" y="0px"
	 viewBox="0 0 1024 1024" style="enable-background:new 0 0 1024 1024;" xml:space="preserve">
<style type="text/css">
	.st0{fill:#CCCCCC;}
</style>
<path class="st0" d="M513,98c341.8,0,415,73.2,415,415s-73.2,415-415,415S98,854.8,98,513S171.2,98,513,98z M513,167.2
	c-83.9,0-146.5,4.6-194,15.1c-46.7,10.4-74.4,25.6-92.8,43.9c-18.3,18.4-33.5,46-43.9,92.8c-10.6,47.5-15.1,110.1-15.1,194
	s4.6,146.5,15.1,194c10.4,46.7,25.6,74.4,43.9,92.8c18.4,18.3,46,33.5,92.8,43.9c47.5,10.5,110.1,15.1,194,15.1
	c39.8,0,74.9-1,105.8-3.3c-0.1-6.2-0.5-12.9-0.8-20.4c-0.2-4.2-0.4-8.8-0.7-13.7c-0.6-15.1-1-32.3,0.3-50
	c2.6-35.1,12.3-76,44.5-108.4c32.3-32.4,74.5-42.3,109.9-45.2c18-1.5,35.5-1.3,50.7-0.7c5.8,0.2,11.1,0.4,15.9,0.6
	c5.7,0.3,10.8,0.5,15.5,0.6h1.4v-0.6c2.2-30.7,3.2-65.4,3.2-104.8c0-83.9-4.6-146.5-15.1-194c-10.4-46.7-25.6-74.4-43.9-92.8
	c-18.4-18.3-46-33.5-92.8-43.9C659.5,171.8,596.9,167.2,513,167.2L513,167.2z M833.5,686.8c-4.5-0.2-9-0.4-13.2-0.6
	c-14.2-0.5-28.6-0.6-42.6,0.6c-28.5,2.4-51.2,9.6-66.6,25.1c-15.5,15.6-22.4,37.2-24.5,64.6c-1,13.6-0.7,27.7-0.1,42
	c0.1,3.7,0.3,7.5,0.5,11.4c0.3,5.8,0.6,11.8,0.8,17.5c6.7-1.1,13.1-2.4,19.2-3.8c46.7-10.4,74.4-25.6,92.8-43.9
	c18.3-18.4,33.5-46,43.9-92.8c1.4-6.4,2.7-12.8,3.8-19.3l0.1-0.3C843,687.2,838.2,687,833.5,686.8L833.5,686.8z M855.6,618.4
	L855.6,618.4l-0.1,1.4c-1.6,22.1-3.8,42-6.7,60.1l-0.3,1.6l0.1-0.7c2.9-17.9,5.1-37.7,6.7-59.6L855.6,618.4z"/>
<path class="st0" d="M340.1,305.5c-19.1,0-34.6,15.5-34.6,34.6s15.5,34.6,34.6,34.6h103.8c19.1,0,34.6-15.5,34.6-34.6
	s-15.5-34.6-34.6-34.6H340.1L340.1,305.5z M340.1,478.4c-19.1,0-34.6,15.5-34.6,34.6c0,19.1,15.5,34.6,34.6,34.6h345.8
	c19.1,0,34.6-15.5,34.6-34.6c0-19.1-15.5-34.6-34.6-34.6H340.1L340.1,478.4z"/>
</svg>
