<?xml version="1.0" encoding="utf-8"?>
<!-- Generator: Adobe Illustrator 25.0.1, SVG Export Plug-In . SVG Version: 6.00 Build 0)  -->
<svg version="1.1" id="Layer_1" xmlns="http://www.w3.org/2000/svg" xmlns:xlink="http://www.w3.org/1999/xlink" x="0px" y="0px"
	 viewBox="0 0 1024 1024" style="enable-background:new 0 0 1024 1024;" xml:space="preserve">
<style type="text/css">
	.st0{fill:#CCCCCC;}
</style>
<path class="st0" d="M511.1,161.8c315.5,0,383.1,67.6,383.1,383.1S826.6,928,511.1,928S128,860.4,128,544.9
	C128,229.5,195.6,161.8,511.1,161.8z M829.2,481.1H193c-0.8,19.7-1.1,40.9-1.1,63.8c0,77.4,4.2,135.3,14,179.1
	c9.6,43.1,23.6,68.7,40.5,85.6c17,16.9,42.5,31,85.6,40.5c43.4,9.6,100.4,13.9,176.6,14h2.5c77.4,0,135.3-4.2,179.1-14
	c43.1-9.6,68.7-23.6,85.6-40.5c16.9-17,31-42.5,40.5-85.6c9.7-43.8,14-101.7,14-179.1C830.3,522,829.9,500.7,829.2,481.1
	L829.2,481.1z M513.5,225.7H511c-77.4,0-135.3,4.2-179.1,14c-43.1,9.6-68.7,23.6-85.6,40.5c-16.9,17-31,42.5-40.5,85.6
	c-3.4,15.3-6.2,32.4-8.3,51.4h627c-2.1-19-4.9-36.1-8.3-51.4c-9.6-43.1-23.6-68.7-40.5-85.6c-17-16.9-42.5-31-85.6-40.5
	C646.8,230,589.7,225.8,513.5,225.7L513.5,225.7z"/>
<path class="st0" d="M319.5,576.8c-17.6,0-31.9,14.3-31.9,31.9c0,17.6,14.3,31.9,31.9,31.9h95.8c17.6,0,31.9-14.3,31.9-31.9
	s-14.3-31.9-31.9-31.9H319.5L319.5,576.8z M319.5,704.5c-17.6,0-31.9,14.3-31.9,31.9c0,17.6,14.3,31.9,31.9,31.9h95.8
	c17.6,0,31.9-14.3,31.9-31.9s-14.3-31.9-31.9-31.9H319.5L319.5,704.5z M574.9,608.8c0-17.6,14.3-31.9,31.9-31.9h95.8
	c17.6,0,31.9,14.3,31.9,31.9c0,17.6-14.3,31.9-31.9,31.9h-95.8C589.2,640.7,574.9,626.4,574.9,608.8z M606.8,704.5
	c-17.6,0-31.9,14.3-31.9,31.9c0,17.6,14.3,31.9,31.9,31.9h95.8c17.6,0,31.9-14.3,31.9-31.9s-14.3-31.9-31.9-31.9H606.8L606.8,704.5z
	 M383.4,98c-17.6,0-31.9,14.3-31.9,31.9v127.7c0,17.6,14.3,31.9,31.9,31.9s31.9-14.3,31.9-31.9V129.9C415.3,112.3,401,98,383.4,98z
	 M638.8,98c-17.6,0-31.9,14.3-31.9,31.9v127.7c0,17.6,14.3,31.9,31.9,31.9c17.6,0,31.9-14.3,31.9-31.9V129.9
	C670.7,112.3,656.4,98,638.8,98z"/>
</svg>
